<?xml version="1.0" encoding="UTF-8" standalone="no"?>
<svg
   xmlns:dc="http://purl.org/dc/elements/1.1/"
   xmlns:cc="http://creativecommons.org/ns#"
   xmlns:rdf="http://www.w3.org/1999/02/22-rdf-syntax-ns#"
   xmlns:svg="http://www.w3.org/2000/svg"
   xmlns="http://www.w3.org/2000/svg"
   xmlns:sodipodi="http://sodipodi.sourceforge.net/DTD/sodipodi-0.dtd"
   xmlns:inkscape="http://www.inkscape.org/namespaces/inkscape"
   fill="#419236"
   height="48"
   version="1.1"
   viewBox="0 0 48 48"
   width="48"
   id="svg18"
   sodipodi:docname="flash-player-properties.svg"
   inkscape:version="0.92.3 (2405546, 2018-03-11)">
  <metadata
     id="metadata22">
    <rdf:RDF>
      <cc:Work
         rdf:about="">
        <dc:format>image/svg+xml</dc:format>
        <dc:type
           rdf:resource="http://purl.org/dc/dcmitype/StillImage" />
      </cc:Work>
    </rdf:RDF>
  </metadata>
  <sodipodi:namedview
     pagecolor="#ffffff"
     bordercolor="#666666"
     borderopacity="1"
     objecttolerance="10"
     gridtolerance="10"
     guidetolerance="10"
     inkscape:pageopacity="0"
     inkscape:pageshadow="2"
     inkscape:window-width="732"
     inkscape:window-height="480"
     id="namedview20"
     showgrid="false"
     inkscape:zoom="4.9166667"
     inkscape:cx="-1.6271186"
     inkscape:cy="24"
     inkscape:window-x="38"
     inkscape:window-y="0"
     inkscape:window-maximized="0"
     inkscape:current-layer="svg18" />
  <defs
     id="defs10">
    <linearGradient
       id="a"
       gradientTransform="scale(1.0058652 .994169)"
       gradientUnits="userSpaceOnUse"
       x1="45.447727"
       x2="45.447727"
       y1="92.539597"
       y2="7.01654">
      <stop
         offset="0"
         id="stop2" />
      <stop
         offset="1"
         stop-opacity=".588235"
         id="stop4" />
    </linearGradient>
    <filter
       id="b"
       color-interpolation-filters="sRGB">
      <feGaussianBlur
         stdDeviation="1.71"
         id="feGaussianBlur7" />
    </filter>
  </defs>
  <g
     display="none"
     transform="translate(91.171924 -23.544574)"
     id="g14">
    <rect
       fill="url(#a)"
       filter="url(#b)"
       height="85"
       opacity=".9"
       rx="6"
       ry="6"
       width="86"
       x="5"
       y="7"
       id="rect12" />
  </g>
  <path
     d="m35.124499 10.103528l0 5.594748c-5.58592.09815-6.95873 5.545665-6.95873 5.545665l4.213109 0 0 5.594745-6.532685 0C21.917115 38.96063 12.8755 37.880943 12.8755 37.880943l0-5.594744c0 0 5.737464 1.064341 8.662908-9.619033C25.197872 9.303236 35.1245 10.103528 35.1245 10.103528ZM10 6C7.79 6 6 7.79 6 10l0 28c0 2.21 1.79 4 4 4l28 0c2.21 0 4-1.79 4-4L42 10C42 7.79 40.21 6 38 6L10 6Z"
     fill="#d41818"
     id="path16"
     style="fill:#419236;fill-opacity:1" />
</svg>
