<?xml version="1.0" encoding="UTF-8" standalone="no"?>
<svg
   xmlns:dc="http://purl.org/dc/elements/1.1/"
   xmlns:cc="http://creativecommons.org/ns#"
   xmlns:rdf="http://www.w3.org/1999/02/22-rdf-syntax-ns#"
   xmlns:svg="http://www.w3.org/2000/svg"
   xmlns="http://www.w3.org/2000/svg"
   xmlns:xlink="http://www.w3.org/1999/xlink"
   xmlns:sodipodi="http://sodipodi.sourceforge.net/DTD/sodipodi-0.dtd"
   xmlns:inkscape="http://www.inkscape.org/namespaces/inkscape"
   fill="#419236"
   height="48"
   version="1.1"
   viewBox="0 0 48 48"
   width="48"
   id="svg35"
   sodipodi:docname="AdobeAIR.svg"
   inkscape:version="0.92.3 (2405546, 2018-03-11)">
  <metadata
     id="metadata39">
    <rdf:RDF>
      <cc:Work
         rdf:about="">
        <dc:format>image/svg+xml</dc:format>
        <dc:type
           rdf:resource="http://purl.org/dc/dcmitype/StillImage" />
      </cc:Work>
    </rdf:RDF>
  </metadata>
  <sodipodi:namedview
     pagecolor="#ffffff"
     bordercolor="#666666"
     borderopacity="1"
     objecttolerance="10"
     gridtolerance="10"
     guidetolerance="10"
     inkscape:pageopacity="0"
     inkscape:pageshadow="2"
     inkscape:window-width="732"
     inkscape:window-height="480"
     id="namedview37"
     showgrid="false"
     inkscape:zoom="4.9166667"
     inkscape:cx="-1.6271186"
     inkscape:cy="24"
     inkscape:window-x="38"
     inkscape:window-y="0"
     inkscape:window-maximized="0"
     inkscape:current-layer="svg35" />
  <defs
     id="defs19">
    <linearGradient
       id="a"
       gradientTransform="scale(1.0058652 .994169)"
       gradientUnits="userSpaceOnUse"
       x1="45.447727"
       x2="45.447727"
       y1="92.539597"
       y2="7.01654">
      <stop
         offset="0"
         id="stop2" />
      <stop
         offset="1"
         stop-opacity=".588235"
         id="stop4" />
    </linearGradient>
    <filter
       id="b"
       color-interpolation-filters="sRGB">
      <feGaussianBlur
         stdDeviation="1.71"
         id="feGaussianBlur7" />
    </filter>
    <filter
       id="c"
       color-interpolation-filters="sRGB">
      <feGaussianBlur
         stdDeviation="1.71"
         id="feGaussianBlur10" />
    </filter>
    <linearGradient
       id="d"
       gradientTransform="scale(1.0058652 .994169)"
       gradientUnits="userSpaceOnUse"
       x1="45.447727"
       x2="45.447727"
       xlink:href="#a"
       y1="92.539597"
       y2="7.01654" />
    <filter
       id="e"
       color-interpolation-filters="sRGB">
      <feGaussianBlur
         stdDeviation="1.71"
         id="feGaussianBlur14" />
    </filter>
    <linearGradient
       id="f"
       gradientTransform="scale(1.0058652 .994169)"
       gradientUnits="userSpaceOnUse"
       x1="45.447727"
       x2="45.447727"
       xlink:href="#a"
       y1="92.539597"
       y2="7.01654" />
    <linearGradient
       id="g"
       gradientTransform="scale(1.0058652 .994169)"
       gradientUnits="userSpaceOnUse"
       x1="45.447727"
       x2="45.447727"
       xlink:href="#a"
       y1="92.539597"
       y2="7.01654" />
  </defs>
  <g
     display="none"
     transform="translate(91.171924 -23.544574)"
     id="g23">
    <rect
       fill="url(#g)"
       filter="url(#b)"
       height="85"
       opacity=".9"
       rx="6"
       ry="6"
       width="86"
       x="5"
       y="7"
       id="rect21" />
  </g>
  <g
     display="none"
     transform="translate(-115.580744 -50.198037)"
     id="g27">
    <rect
       fill="url(#d)"
       filter="url(#c)"
       height="85"
       opacity=".9"
       rx="6"
       ry="6"
       width="86"
       x="5"
       y="7"
       id="rect25" />
  </g>
  <path
     d="M10 6C7.79 6 6 7.79 6 10l0 28c0 2.21 1.79 4 4 4l28 0c2.21 0 4-1.79 4-4L42 10C42 7.79 40.21 6 38 6L10 6Zm17.689453 6.28125c.282172.019101.567953.064643.851563.140625 2.225305.596607 3.597255 2.787686 3.21875 5.015625-.017716.119944-.087891.410156-.087891.410156-.450328 1.763246-.498993 3.571808-.089844 5.302734.019631.081159.03852.162225.060547.242188.021068.079484.044897.159037.068359.238281.511138 1.704831 1.458211 3.245247 2.728516 4.548828.122098.125211.23231.255005.300781.347656 1.412991 1.739066 1.31858 4.295659-.300781 5.914063-1.595422 1.595418-4.086098 1.698743-5.835938.365234-.129041-.091214-.265856-.205069-.425781-.365234-1.301666-1.271024-2.842763-2.218852-4.546875-2.730469C23.550897 31.688194 23.471306 31.664124 23.390625 31.642578 23.310184 31.620792 23.227165 31.602142 23.146484 31.582031 21.41484 31.173121 19.606757 31.223739 17.84375 31.673828 15.481024 32.307304 13.053637 30.904498 12.419922 28.542969 11.787164 26.180961 13.189731 23.749706 15.550781 23.117188 17.489035 22.59791 19.218283 21.583605 20.578125 20.15625c1.197045-1.284668 2.045527-2.855452 2.533203-4.583984.000718-.003112.063104-.209138.09375-.291016.649187-1.920119 2.509169-3.133706 4.484375-3zm-2.302734 8.533203c-2.011846-.120646-3.899055 1.182313-4.441406 3.205078-.619351 2.311492.75296 4.689243 3.064453 5.308594 2.31245.61959 4.689003-.752721 5.308594-3.064453.61959-2.311732-.752003-4.688764-3.064453-5.308594-.288937-.077419-.579781-.12339-.867188-.140625z"
     fill="#d41818"
     id="path29"
     style="fill:#419236;fill-opacity:1" />
  <g
     display="none"
     transform="translate(-79.105813 -63.111927)"
     id="g33">
    <rect
       fill="url(#f)"
       filter="url(#e)"
       height="85"
       opacity=".9"
       rx="6"
       ry="6"
       width="86"
       x="5"
       y="7"
       id="rect31" />
  </g>
</svg>
