<?xml version="1.0" encoding="UTF-8" standalone="no"?>
<svg
   xmlns:dc="http://purl.org/dc/elements/1.1/"
   xmlns:cc="http://creativecommons.org/ns#"
   xmlns:rdf="http://www.w3.org/1999/02/22-rdf-syntax-ns#"
   xmlns:svg="http://www.w3.org/2000/svg"
   xmlns="http://www.w3.org/2000/svg"
   xmlns:sodipodi="http://sodipodi.sourceforge.net/DTD/sodipodi-0.dtd"
   xmlns:inkscape="http://www.inkscape.org/namespaces/inkscape"
   height="48"
   preserveAspectRatio="xMidYMid"
   version="1.1"
   width="48"
   id="svg10"
   sodipodi:docname="atom.svg"
   inkscape:version="0.92.3 (2405546, 2018-03-11)">
  <metadata
     id="metadata16">
    <rdf:RDF>
      <cc:Work
         rdf:about="">
        <dc:format>image/svg+xml</dc:format>
        <dc:type
           rdf:resource="http://purl.org/dc/dcmitype/StillImage" />
      </cc:Work>
    </rdf:RDF>
  </metadata>
  <defs
     id="defs14" />
  <sodipodi:namedview
     pagecolor="#ffffff"
     bordercolor="#666666"
     borderopacity="1"
     objecttolerance="10"
     gridtolerance="10"
     guidetolerance="10"
     inkscape:pageopacity="0"
     inkscape:pageshadow="2"
     inkscape:window-width="1328"
     inkscape:window-height="737"
     id="namedview12"
     showgrid="false"
     inkscape:zoom="4.9166667"
     inkscape:cx="2.6440678"
     inkscape:cy="24"
     inkscape:window-x="38"
     inkscape:window-y="0"
     inkscape:window-maximized="1"
     inkscape:current-layer="svg10" />
  <path
     style="fill:#419236;fill-opacity:1;stroke-width:0.17107175"
     d="M 24 4 A 20 20 0 0 0 4 24 A 20 20 0 0 0 24 44 A 20 20 0 0 0 44 24 A 20 20 0 0 0 24 4 z M 18.548828 11.164062 C 19.729223 11.078526 21.079023 11.676957 22.601562 12.925781 C 22.909491 13.182389 22.961685 13.645196 22.705078 13.953125 C 22.44847 14.278162 21.985663 14.311295 21.677734 14.054688 C 20.497339 13.079578 19.438262 12.567821 18.685547 12.619141 C 18.514475 12.636248 18.359513 12.669851 18.222656 12.738281 C 17.384406 13.16596 17.042691 14.791151 17.316406 17.066406 C 17.384834 17.596728 17.487671 18.143977 17.607422 18.691406 C 18.702281 18.520334 19.881565 18.418508 21.113281 18.367188 C 24.20968 14.398323 27.597654 11.831159 30.009766 11.728516 C 30.659839 11.711408 31.224124 11.848321 31.703125 12.15625 C 32.609806 12.737894 33.549993 14.174739 32.882812 17.613281 C 32.797278 18.006746 32.422762 18.263274 32.029297 18.177734 C 31.618724 18.092198 31.361726 17.717213 31.447266 17.306641 C 31.840731 15.30168 31.634047 13.820798 30.898438 13.341797 C 30.693151 13.198096 30.403161 13.134504 30.078125 13.146484 C 28.521372 13.206359 25.817767 14.978553 23.029297 18.314453 C 23.439869 18.321293 23.867714 18.337135 24.3125 18.359375 C 27.973436 18.550975 31.396344 19.255733 33.945312 20.34375 C 35.228352 20.891179 36.236577 21.513962 36.955078 22.191406 L 36.865234 22.240234 C 37.693222 23.035718 38.086476 23.880942 38.035156 24.763672 C 37.983835 25.772996 37.316894 27.208831 34.425781 28.324219 C 34.340245 28.358429 34.253509 28.376953 34.167969 28.376953 C 33.868594 28.376953 33.587018 28.204884 33.484375 27.914062 C 33.330411 27.542836 33.518174 27.118067 33.894531 26.972656 C 35.562481 26.326005 36.540728 25.493491 36.580078 24.689453 C 36.6314 23.731452 35.400587 22.637149 33.279297 21.730469 C 30.884293 20.704038 27.634395 20.053413 24.144531 19.865234 C 23.443137 19.831024 22.775543 19.814453 22.142578 19.814453 L 21.783203 19.814453 C 21.338416 20.430312 20.876428 21.079385 20.431641 21.763672 C 20.003962 22.439406 19.593154 23.113572 19.216797 23.791016 C 19.524726 24.499253 19.860468 25.211185 20.226562 25.929688 C 21.810687 29.043193 23.732433 31.746245 25.648438 33.525391 C 27.328362 35.087276 28.839482 35.76557 29.677734 35.337891 C 30.481771 34.927318 30.841535 33.406446 30.619141 31.285156 C 30.374509 28.86449 29.438956 25.881202 28.001953 22.892578 C 27.830882 22.526484 27.984499 22.089041 28.34375 21.917969 C 28.711554 21.741765 29.147287 21.893673 29.318359 22.259766 C 30.834055 25.397223 31.810526 28.550356 32.072266 31.138672 C 32.203992 32.449082 32.153563 33.567929 31.914062 34.474609 C 31.640347 35.535254 31.110138 36.253019 30.357422 36.646484 C 29.967379 36.834663 29.556115 36.9375 29.111328 36.9375 C 28.632327 36.9375 28.111883 36.818096 27.564453 36.595703 C 26.657773 36.227899 25.682681 35.554675 24.65625 34.603516 C 22.620497 32.704619 20.585177 29.865126 18.925781 26.597656 C 18.727338 26.209323 18.540953 25.832918 18.361328 25.439453 C 17.53163 27.133063 16.924174 28.787323 16.582031 30.263672 C 16.068815 32.504712 16.235282 34.145714 17.027344 34.664062 C 17.768085 35.153327 19.233141 34.716064 20.933594 33.511719 C 21.263763 33.272219 21.719483 33.348293 21.958984 33.683594 C 22.186509 34.010341 22.112145 34.463624 21.787109 34.703125 C 20.069549 35.929709 18.770031 36.328125 17.794922 36.328125 C 17.127742 36.328125 16.614639 36.139891 16.238281 35.900391 C 15.502673 35.42139 15.040683 34.599777 14.886719 33.470703 C 14.756704 32.505858 14.852227 31.317051 15.160156 29.957031 C 15.604943 28.046159 16.444134 25.90308 17.607422 23.730469 C 17.145528 22.58942 16.768867 21.472283 16.460938 20.394531 C 13.244789 21.070264 11.346242 22.26741 11.294922 23.396484 C 11.260707 24.200521 12.150748 25.124168 13.724609 25.945312 C 14.083855 26.116384 14.2199 26.560672 14.048828 26.919922 C 13.860649 27.279171 13.415891 27.416695 13.056641 27.228516 C 10.302385 25.808621 9.7885217 24.31987 9.8398438 23.310547 C 9.8911652 22.267009 10.627199 20.761886 13.757812 19.632812 C 14.476314 19.376205 15.264253 19.153023 16.136719 18.964844 C 15.999862 18.3832 15.914133 17.801336 15.845703 17.253906 C 15.674632 15.868225 15.707766 14.688471 15.947266 13.730469 C 16.220981 12.618503 16.752132 11.848072 17.539062 11.4375 C 17.846992 11.283535 18.189578 11.198272 18.548828 11.164062 z M 20.033203 19.84375 C 19.314701 19.895072 18.637856 19.967924 17.998047 20.058594 C 18.179383 20.69327 18.391358 21.345522 18.630859 22.005859 C 18.849831 21.641476 19.076179 21.276734 19.310547 20.914062 C 19.546626 20.549679 19.78857 20.192737 20.033203 19.84375 z "
     id="circle2" />
  <path
     inkscape:connector-curvature="0"
     style="fill:#419236;fill-opacity:1;stroke-width:0.17107175"
     id="path6"
     d="m 22.518522,24.169361 c 0,0.882731 0.71337,1.5961 1.594389,1.5961 0.88102,0 1.594389,-0.713369 1.594389,-1.5961 0,-0.881019 -0.713369,-1.596099 -1.594389,-1.596099 -0.881019,0 -1.596099,0.71508 -1.596099,1.596099" />
</svg>
