<?xml version="1.0" encoding="UTF-8" standalone="no"?>
<svg
   xmlns:dc="http://purl.org/dc/elements/1.1/"
   xmlns:cc="http://creativecommons.org/ns#"
   xmlns:rdf="http://www.w3.org/1999/02/22-rdf-syntax-ns#"
   xmlns:svg="http://www.w3.org/2000/svg"
   xmlns="http://www.w3.org/2000/svg"
   xmlns:sodipodi="http://sodipodi.sourceforge.net/DTD/sodipodi-0.dtd"
   xmlns:inkscape="http://www.inkscape.org/namespaces/inkscape"
   height="48"
   preserveAspectRatio="xMidYMid"
   version="1.1"
   width="48"
   id="svg12"
   sodipodi:docname="atom-outline.svg"
   inkscape:version="0.92.3 (2405546, 2018-03-11)">
  <metadata
     id="metadata18">
    <rdf:RDF>
      <cc:Work
         rdf:about="">
        <dc:format>image/svg+xml</dc:format>
        <dc:type
           rdf:resource="http://purl.org/dc/dcmitype/StillImage" />
      </cc:Work>
    </rdf:RDF>
  </metadata>
  <defs
     id="defs16" />
  <sodipodi:namedview
     pagecolor="#ffffff"
     bordercolor="#666666"
     borderopacity="1"
     objecttolerance="10"
     gridtolerance="10"
     guidetolerance="10"
     inkscape:pageopacity="0"
     inkscape:pageshadow="2"
     inkscape:window-width="1328"
     inkscape:window-height="737"
     id="namedview14"
     showgrid="false"
     inkscape:zoom="4.9166667"
     inkscape:cx="2.6440678"
     inkscape:cy="24"
     inkscape:window-x="38"
     inkscape:window-y="0"
     inkscape:window-maximized="1"
     inkscape:current-layer="svg12" />
  <circle
     style="fill:#e4e4e4;stroke-width:0.15642108"
     id="circle2"
     r="20"
     cy="24"
     cx="24" />
  <path
     style="fill:#419236;stroke-width:0.15642108;fill-opacity:1"
     d="M 23.978516 5.734375 A 18.287189 18.287189 0 0 0 5.6914062 24.021484 A 18.287189 18.287189 0 0 0 23.978516 42.308594 A 18.287189 18.287189 0 0 0 42.265625 24.021484 A 18.287189 18.287189 0 0 0 23.978516 5.734375 z M 18.992188 12.285156 C 20.071494 12.206946 21.307071 12.75461 22.699219 13.896484 C 22.980775 14.131116 23.029554 14.554379 22.794922 14.835938 C 22.560291 15.133135 22.137027 15.164319 21.855469 14.929688 C 20.776163 14.038088 19.80544 13.568304 19.117188 13.615234 C 18.960767 13.630879 18.820449 13.662039 18.695312 13.724609 C 17.928852 14.115662 17.616913 15.601241 17.867188 17.681641 C 17.929756 18.166547 18.023318 18.667421 18.132812 19.167969 C 19.133907 19.011548 20.213613 18.918024 21.339844 18.871094 C 24.171066 15.242125 27.267119 12.896584 29.472656 12.802734 C 30.067057 12.787092 30.583505 12.911802 31.021484 13.193359 C 31.850516 13.725191 32.711604 15.03953 32.101562 18.183594 C 32.023351 18.543362 31.678128 18.777429 31.318359 18.699219 C 30.942949 18.621008 30.708899 18.275802 30.787109 17.900391 C 31.146877 16.067136 30.95972 14.715323 30.287109 14.277344 C 30.099404 14.145954 29.832356 14.086706 29.535156 14.097656 C 28.111724 14.152403 25.641461 15.772055 23.091797 18.822266 C 23.467208 18.828516 23.856978 18.844904 24.263672 18.865234 C 27.611084 19.040425 30.739638 19.684849 33.070312 20.679688 C 34.243471 21.180234 35.167251 21.749714 35.824219 22.369141 L 35.740234 22.412109 C 36.497312 23.139467 36.857477 23.911617 36.810547 24.71875 C 36.763621 25.641635 36.153282 26.956698 33.509766 27.976562 C 33.431555 28.007852 33.353601 28.023438 33.275391 28.023438 C 33.001654 28.023438 32.744241 27.867477 32.650391 27.601562 C 32.509612 27.262128 32.681265 26.873192 33.025391 26.740234 C 34.550497 26.148962 35.444489 25.387523 35.480469 24.652344 C 35.527395 23.776386 34.402513 22.774344 32.462891 21.945312 C 30.272996 21.006785 27.300365 20.412297 24.109375 20.240234 C 23.468048 20.208944 22.858055 20.193359 22.279297 20.193359 L 21.951172 20.193359 C 21.544477 20.756475 21.121539 21.350877 20.714844 21.976562 C 20.323791 22.594426 19.949595 23.212603 19.605469 23.832031 C 19.887026 24.479614 20.192603 25.13014 20.527344 25.787109 C 21.975803 28.633973 23.734412 31.10369 25.486328 32.730469 C 27.022383 34.158593 28.403458 34.779725 29.169922 34.388672 C 29.905101 34.013262 30.232645 32.621262 30.029297 30.681641 C 29.805615 28.468283 28.950656 25.742442 27.636719 23.009766 C 27.480298 22.675025 27.620735 22.275562 27.949219 22.119141 C 28.285524 21.958027 28.685376 22.0969 28.841797 22.431641 C 30.227688 25.300403 31.12005 28.182177 31.359375 30.548828 C 31.479819 31.747013 31.433834 32.770577 31.214844 33.599609 C 30.96457 34.56942 30.479269 35.226168 29.791016 35.585938 C 29.434376 35.758003 29.059039 35.851562 28.652344 35.851562 C 28.214365 35.851563 27.738829 35.74241 27.238281 35.539062 C 26.409249 35.202757 25.516651 34.586498 24.578125 33.716797 C 22.716714 31.980523 20.855175 29.384127 19.337891 26.396484 C 19.156443 26.041408 18.986509 25.697659 18.822266 25.337891 C 18.063624 26.886459 17.508154 28.398133 17.195312 29.748047 C 16.726049 31.797163 16.877333 33.299481 17.601562 33.773438 C 18.278866 34.220803 19.619003 33.819955 21.173828 32.71875 C 21.475721 32.499761 21.892339 32.568415 22.111328 32.875 C 22.319368 33.173765 22.252278 33.587651 21.955078 33.806641 C 20.384611 34.92818 19.196288 35.292969 18.304688 35.292969 C 17.694645 35.292969 17.224985 35.121333 16.880859 34.902344 C 16.208248 34.464365 15.787263 33.71402 15.646484 32.681641 C 15.527604 31.799426 15.614926 30.712298 15.896484 29.46875 C 16.303179 27.721527 17.06915 25.761939 18.132812 23.775391 C 17.710477 22.732062 17.365542 21.710062 17.083984 20.724609 C 14.143268 21.342472 12.408258 22.438324 12.361328 23.470703 C 12.330043 24.205882 13.142957 25.04996 14.582031 25.800781 C 14.910511 25.957202 15.035327 26.362922 14.878906 26.691406 C 14.706843 27.019894 14.30114 27.144719 13.972656 26.972656 C 11.454276 25.674361 10.98432 24.31351 11.03125 23.390625 C 11.078177 22.436457 11.750775 21.061676 14.613281 20.029297 C 15.27025 19.794665 15.989362 19.590033 16.787109 19.417969 C 16.661972 18.886138 16.584054 18.354063 16.521484 17.853516 C 16.36506 16.586505 16.396244 15.508771 16.615234 14.632812 C 16.865508 13.616076 17.350776 12.910567 18.070312 12.535156 C 18.35187 12.394377 18.663704 12.316436 18.992188 12.285156 z M 20.351562 20.222656 C 19.694594 20.269583 19.075248 20.335069 18.490234 20.417969 C 18.65604 20.998291 18.849369 21.593481 19.068359 22.197266 C 19.268577 21.86409 19.47711 21.530832 19.691406 21.199219 C 19.907267 20.866042 20.12788 20.541755 20.351562 20.222656 z "
     id="circle4" />
  <path
     style="fill:#f1f8f3;stroke-width:0.15642108"
     inkscape:connector-curvature="0"
     id="path8"
     d="m 22.623495,24.176755 c 0,0.807133 0.652276,1.459409 1.457845,1.459409 0.805568,0 1.457844,-0.652276 1.457844,-1.459409 0,-0.805568 -0.652276,-1.459409 -1.457844,-1.459409 -0.805569,0 -1.459409,0.653841 -1.459409,1.459409" />
</svg>
