<?xml version="1.0" encoding="UTF-8" standalone="no"?>
<svg
   xmlns:dc="http://purl.org/dc/elements/1.1/"
   xmlns:cc="http://creativecommons.org/ns#"
   xmlns:rdf="http://www.w3.org/1999/02/22-rdf-syntax-ns#"
   xmlns:svg="http://www.w3.org/2000/svg"
   xmlns="http://www.w3.org/2000/svg"
   xmlns:sodipodi="http://sodipodi.sourceforge.net/DTD/sodipodi-0.dtd"
   xmlns:inkscape="http://www.inkscape.org/namespaces/inkscape"
   height="24"
   version="1.1"
   viewBox="0 0 24 24"
   width="24"
   xml:space="preserve"
   id="svg18"
   sodipodi:docname="autokey-status-error.svg"
   inkscape:version="0.92.3 (2405546, 2018-03-11)"><metadata
     id="metadata24"><rdf:RDF><cc:Work
         rdf:about=""><dc:format>image/svg+xml</dc:format><dc:type
           rdf:resource="http://purl.org/dc/dcmitype/StillImage" /></cc:Work></rdf:RDF></metadata><defs
     id="defs22" /><sodipodi:namedview
     pagecolor="#ffffff"
     bordercolor="#666666"
     borderopacity="1"
     objecttolerance="10"
     gridtolerance="10"
     guidetolerance="10"
     inkscape:pageopacity="0"
     inkscape:pageshadow="2"
     inkscape:window-width="732"
     inkscape:window-height="480"
     id="namedview20"
     showgrid="false"
     inkscape:zoom="9.8333333"
     inkscape:cx="-0.81355932"
     inkscape:cy="12"
     inkscape:window-x="38"
     inkscape:window-y="0"
     inkscape:window-maximized="0"
     inkscape:current-layer="svg18" /><filter
     id="a"
     color-interpolation-filters="sRGB"><feGaussianBlur
       stdDeviation="1.71"
       id="feGaussianBlur2" /></filter><g
     display="none"
     transform="translate(-2 -70)"
     id="g14"><g
       display="inline"
       filter="url(#a)"
       opacity=".9"
       id="g12"><linearGradient
         id="b"
         gradientTransform="matrix(1.0059 0 0 -.9942 9.9104 69.4184)"
         gradientUnits="userSpaceOnUse"
         x1="37.867699"
         x2="37.867699"
         y1="-22.7129"
         y2="62.785599"><stop
           offset="0"
           id="stop5" /><stop
           offset="1"
           stop-opacity=".5882"
           id="stop7" /></linearGradient><path
         d="m12 7l72 0c3.866 0 7 3.134 7 7l0 71c0 3.866-3.134 7-7 7L12 92C8.134 92 5 88.866 5 85L5 14C5 10.134 8.134 7 12 7Z"
         fill="url(#b)"
         id="path10" /></g></g><path
     d="M12.583593 7.689031L10.284375 13.110937l3.171093 0zM5 3C3.892 3 3 3.892 3 5l0 14c0 1.108.892 2 2 2l14 0c1.108 0 2-.892 2-2L21 5C21 3.892 20.108 3 19 3L5 3Zm6.753906 1.974609c.0093-.00103.018014-.00103.027344 0l2.763672 0c .05987-.000184.116756.046899.126953.105469l2.277344 12.847656c.01196.07254-.050958.146603-.125.146484l-2.490234 0c-.05987.000184-.116757-.046901-.126953-.105469l-.492188-2.882813-4.316406 0-1.349609 2.917969c-.020817.04138-.066697.069563-.113281.070313l-2.109375 0c-.085527-.0017-.148822-.105303-.111328-.181641l5.955078-12.847656c.01575-.034289.047234-.060854.083984-.070313z"
     fill="#f44336"
     id="path16"
     style="fill:#419236;fill-opacity:1" /></svg>