<?xml version="1.0" encoding="UTF-8" standalone="no"?>
<svg
   xmlns:dc="http://purl.org/dc/elements/1.1/"
   xmlns:cc="http://creativecommons.org/ns#"
   xmlns:rdf="http://www.w3.org/1999/02/22-rdf-syntax-ns#"
   xmlns:svg="http://www.w3.org/2000/svg"
   xmlns="http://www.w3.org/2000/svg"
   xmlns:sodipodi="http://sodipodi.sourceforge.net/DTD/sodipodi-0.dtd"
   xmlns:inkscape="http://www.inkscape.org/namespaces/inkscape"
   height="48"
   version="1.0"
   width="48"
   id="svg4"
   sodipodi:docname="banshee-panel.svg"
   inkscape:version="0.92.3 (2405546, 2018-03-11)">
  <metadata
     id="metadata10">
    <rdf:RDF>
      <cc:Work
         rdf:about="">
        <dc:format>image/svg+xml</dc:format>
        <dc:type
           rdf:resource="http://purl.org/dc/dcmitype/StillImage" />
      </cc:Work>
    </rdf:RDF>
  </metadata>
  <defs
     id="defs8" />
  <sodipodi:namedview
     pagecolor="#ffffff"
     bordercolor="#666666"
     borderopacity="1"
     objecttolerance="10"
     gridtolerance="10"
     guidetolerance="10"
     inkscape:pageopacity="0"
     inkscape:pageshadow="2"
     inkscape:window-width="732"
     inkscape:window-height="480"
     id="namedview6"
     showgrid="false"
     inkscape:zoom="4.9166667"
     inkscape:cx="-1.6271186"
     inkscape:cy="24"
     inkscape:window-x="38"
     inkscape:window-y="0"
     inkscape:window-maximized="0"
     inkscape:current-layer="svg4" />
  <path
     d="m16 12.828125l0-5.65625-7.314453 7.3125L11.515625 17.314453 16 12.828125ZM17.171875 6L16 7.171875 16 28 20 28 20 6 17.171875 6ZM24 20a8 8 0 0 0 -8 8 8 8 0 0 0  8 8 8 8 0 0 0  8-8 8 8 0 0 0 -8-8zm0 4a4 4 0 0 1 4 4 4 4 0 0 1 -4 4 4 4 0 0 1 -4-4 4 4 0 0 1  4-4zm0-10l0 4A10 10 0 0 1 34 28 10 10 0 0 1  24 38 10 10 0 0 1  14 28l-4 0a14 14 0 0 0 8.642578 12.933594 14 14 0 0 0  15.257813-3.033203 14 14 0 0 0  3.033203-15.257813A14 14 0 0 0 24 14Z"
     fill="#3465a4"
     stroke-width="3"
     id="path2"
     style="fill:#419236;fill-opacity:1" />
</svg>
