<?xml version="1.0" encoding="UTF-8" standalone="no"?>
<svg
   xmlns:dc="http://purl.org/dc/elements/1.1/"
   xmlns:cc="http://creativecommons.org/ns#"
   xmlns:rdf="http://www.w3.org/1999/02/22-rdf-syntax-ns#"
   xmlns:svg="http://www.w3.org/2000/svg"
   xmlns="http://www.w3.org/2000/svg"
   xmlns:sodipodi="http://sodipodi.sourceforge.net/DTD/sodipodi-0.dtd"
   xmlns:inkscape="http://www.inkscape.org/namespaces/inkscape"
   height="48"
   version="1.1"
   width="48"
   id="svg18"
   sodipodi:docname="chromium.svg"
   inkscape:version="0.92.3 (2405546, 2018-03-11)">
  <metadata
     id="metadata24">
    <rdf:RDF>
      <cc:Work
         rdf:about="">
        <dc:format>image/svg+xml</dc:format>
        <dc:type
           rdf:resource="http://purl.org/dc/dcmitype/StillImage" />
      </cc:Work>
    </rdf:RDF>
  </metadata>
  <defs
     id="defs22" />
  <sodipodi:namedview
     pagecolor="#ffffff"
     bordercolor="#666666"
     borderopacity="1"
     objecttolerance="10"
     gridtolerance="10"
     guidetolerance="10"
     inkscape:pageopacity="0"
     inkscape:pageshadow="2"
     inkscape:window-width="1328"
     inkscape:window-height="737"
     id="namedview20"
     showgrid="false"
     inkscape:zoom="4.9166667"
     inkscape:cx="-1.6271186"
     inkscape:cy="24"
     inkscape:window-x="38"
     inkscape:window-y="0"
     inkscape:window-maximized="1"
     inkscape:current-layer="svg18" />
  <path
     style="fill:#419236;stroke-width:0.16035736;fill-opacity:1"
     inkscape:connector-curvature="0"
     id="path6"
     d="m 40.202633,16.132228 c -1.122404,-0.0052 -9.780899,0.04649 -17.243538,0.0105 -2.782107,0.820139 -5.077754,2.128794 -6.27528,4.681024 C 15.829148,20.094444 10.158048,14.045751 9.5717059,13.367386 14.599044,6.6803881 21.507976,6.0525282 22.851261,6.0525282 c 1.343285,0 11.314225,-1.3859028 17.351372,10.0796998 z" />
  <path
     style="fill:#419236;stroke-width:0.16035736;fill-opacity:1"
     inkscape:connector-curvature="0"
     id="path10"
     d="m 22.626833,41.972119 c 0.573933,-0.966982 4.621939,-8.493309 8.438943,-14.92197 0.706464,-2.81953 0.856307,-5.401428 -0.730065,-7.730799 1.060525,-0.368336 9.327375,-2.243998 10.207976,-2.406374 3.197654,7.735638 0.232217,14.022753 -0.449279,15.183207 -0.681497,1.160453 -4.548779,10.477399 -17.467575,9.875936 z" />
  <path
     style="fill:#ffff00;stroke-width:0.16035736;fill-opacity:0"
     inkscape:connector-curvature="0"
     id="path2"
     d="m 40.543628,16.912319 c 0,2.516553 -3.169747,5.608492 -7.342283,5.608492 -4.172537,0 -9.597064,-2.581951 -9.597064,-5.098505 0,-2.516555 3.38251,-4.556626 7.555047,-4.556626 3.187554,0 7.425128,2.937101 9.042484,3.267668 0.126811,0.274644 0.219195,0.469642 0.341816,0.778971 z" />
  <path
     style="fill:#ffffff;stroke-width:0.16035736;fill-opacity:0"
     inkscape:connector-curvature="0"
     id="path4"
     d="m 9.5769559,13.356163 c 1.9829951,-1.54311 5.6559091,-0.199945 8.2144421,3.104314 2.55853,3.304258 2.833988,8.198843 0.850999,9.741953 -1.982994,1.543109 -5.473519,-0.849595 -8.032051,-4.153855 -1.9545574,-2.524244 -0.6487398,-6.613477 -1.3799964,-8.096968 0.09864,-0.180153 0.221289,-0.394424 0.3466063,-0.595444 z" />
  <path
     style="fill:#419236;stroke-width:0.16035736;fill-opacity:1"
     inkscape:connector-curvature="0"
     id="path12"
     d="m 9.2365942,13.945567 c 0.5555214,0.977728 4.9205588,8.474219 8.6130698,14.975545 2.097168,2.007806 4.433977,3.128468 7.237824,2.895365 -0.204009,1.106418 -2.663267,9.272214 -2.957128,10.120096 C 13.841177,40.905545 9.8510698,35.216508 9.1808111,34.049495 8.510554,32.88248 2.3372925,24.911482 9.2365942,13.945567 Z" />
  <path
     style="fill:#ffff00;stroke-width:0.16035736;fill-opacity:0"
     inkscape:connector-curvature="0"
     id="path8"
     d="m 22.117744,41.934729 c -2.001713,-1.518628 -2.334337,-5.930851 0.183598,-9.266304 2.517934,-3.335451 6.572221,-5.611063 8.573934,-4.092438 2.001712,1.518626 1.192845,6.256418 -1.325091,9.591869 -1.923543,2.548075 -5.684189,2.710998 -6.923127,3.804401 -0.198426,-0.0073 -0.313146,-0.0097 -0.509314,-0.03753 z" />
  <path
     style="fill:#419236;stroke:#ffffff;stroke-width:1.25078738;fill-opacity:1"
     inkscape:connector-curvature="0"
     id="path14"
     d="m 31.276405,23.957465 c 0,4.068972 -3.276615,7.367526 -7.318523,7.367526 -4.041909,0 -7.318524,-3.298554 -7.318524,-7.367526 0,-4.068973 3.276615,-7.367527 7.318524,-7.367527 4.041908,0 7.318523,3.298554 7.318523,7.367527 z" />
</svg>
