<?xml version="1.0" encoding="UTF-8" standalone="no"?>
<svg
   xmlns:dc="http://purl.org/dc/elements/1.1/"
   xmlns:cc="http://creativecommons.org/ns#"
   xmlns:rdf="http://www.w3.org/1999/02/22-rdf-syntax-ns#"
   xmlns:svg="http://www.w3.org/2000/svg"
   xmlns="http://www.w3.org/2000/svg"
   xmlns:sodipodi="http://sodipodi.sourceforge.net/DTD/sodipodi-0.dtd"
   xmlns:inkscape="http://www.inkscape.org/namespaces/inkscape"
   height="48"
   version="1.1"
   width="48"
   xml:space="preserve"
   id="svg6"
   sodipodi:docname="dropboxstatus-idle.svg"
   inkscape:version="0.92.3 (2405546, 2018-03-11)"><metadata
     id="metadata12"><rdf:RDF><cc:Work
         rdf:about=""><dc:format>image/svg+xml</dc:format><dc:type
           rdf:resource="http://purl.org/dc/dcmitype/StillImage" /></cc:Work></rdf:RDF></metadata><defs
     id="defs10" /><sodipodi:namedview
     pagecolor="#ffffff"
     bordercolor="#666666"
     borderopacity="1"
     objecttolerance="10"
     gridtolerance="10"
     guidetolerance="10"
     inkscape:pageopacity="0"
     inkscape:pageshadow="2"
     inkscape:window-width="732"
     inkscape:window-height="480"
     id="namedview8"
     showgrid="false"
     inkscape:zoom="4.9166667"
     inkscape:cx="-1.6271186"
     inkscape:cy="24"
     inkscape:window-x="38"
     inkscape:window-y="0"
     inkscape:window-maximized="0"
     inkscape:current-layer="svg6" /><g
     transform="matrix(1.25 0 0 -1.25 0 48)"
     id="g4"
     style="fill:#419236;fill-opacity:1"><path
       d="m19.217342 16.032033l-5.945298-4.9334-2.5439 1.660955 0-1.862248 8.489199-5.090946 8.489485 5.090946 0 1.862248-2.543614-1.660955-5.94587 4.9334zm14.382658 11.030011l-8.471757 5.531561-5.928143-4.947982 8.542095-5.274512 5.857804 4.690933zm-14.399986-9.965444l5.928143-4.948268 8.471757 5.531561-5.857804 4.691219-8.542095-5.274512zm-14.399986.583293l8.472043-5.531561 5.927857 4.948268-8.542095 5.274512-5.857804-4.691219zm8.472015 14.913627l-8.472043-5.531561 5.857804-4.690933 8.542095 5.274512-5.927857 4.947982z"
       fill="#007ee5"
       id="path2"
       style="fill:#419236;fill-opacity:1" /></g></svg>