<?xml version="1.0" encoding="UTF-8" standalone="no"?>
<svg
   xmlns:dc="http://purl.org/dc/elements/1.1/"
   xmlns:cc="http://creativecommons.org/ns#"
   xmlns:rdf="http://www.w3.org/1999/02/22-rdf-syntax-ns#"
   xmlns:svg="http://www.w3.org/2000/svg"
   xmlns="http://www.w3.org/2000/svg"
   xmlns:sodipodi="http://sodipodi.sourceforge.net/DTD/sodipodi-0.dtd"
   xmlns:inkscape="http://www.inkscape.org/namespaces/inkscape"
   enable-background="new 0 0 266.893 266.895"
   height="48"
   version="1.1"
   viewBox="0 0 47.999999 48"
   width="48"
   x="0"
   xml:space="preserve"
   y="0"
   id="svg6"
   sodipodi:docname="facebookresource.svg"
   inkscape:version="0.92.3 (2405546, 2018-03-11)"><metadata
     id="metadata12"><rdf:RDF><cc:Work
         rdf:about=""><dc:format>image/svg+xml</dc:format><dc:type
           rdf:resource="http://purl.org/dc/dcmitype/StillImage" /></cc:Work></rdf:RDF></metadata><defs
     id="defs10" /><sodipodi:namedview
     pagecolor="#ffffff"
     bordercolor="#666666"
     borderopacity="1"
     objecttolerance="10"
     gridtolerance="10"
     guidetolerance="10"
     inkscape:pageopacity="0"
     inkscape:pageshadow="2"
     inkscape:window-width="1328"
     inkscape:window-height="737"
     id="namedview8"
     showgrid="false"
     inkscape:zoom="4.9166667"
     inkscape:cx="-32.338983"
     inkscape:cy="24"
     inkscape:window-x="38"
     inkscape:window-y="0"
     inkscape:window-maximized="1"
     inkscape:current-layer="svg6" /><path
     style="fill:#419236;fill-opacity:1"
     d="M 10 6 C 7.784 6 6 7.784 6 10 L 6 38 C 6 40.216 7.784 42 10 42 L 24.820312 42 L 24.820312 28.058594 L 20.128906 28.058594 L 20.128906 22.625 L 24.820312 22.625 L 24.820312 18.619141 C 24.820313 13.969343 27.660555 11.4375 31.808594 11.4375 C 33.795518 11.4375 35.502431 11.584179 36 11.650391 L 36 16.509766 L 33.123047 16.511719 C 30.867364 16.511719 30.429688 17.583222 30.429688 19.15625 L 30.429688 22.625 L 35.810547 22.625 L 35.109375 28.058594 L 30.429688 28.058594 L 30.429688 42 L 38 42 C 40.216 42 42 40.216 42 38 L 42 10 C 42 7.784 40.216 6 38 6 L 10 6 z "
     id="rect2" /></svg>