<?xml version="1.0" encoding="UTF-8" standalone="no"?>
<svg
   xmlns:dc="http://purl.org/dc/elements/1.1/"
   xmlns:cc="http://creativecommons.org/ns#"
   xmlns:rdf="http://www.w3.org/1999/02/22-rdf-syntax-ns#"
   xmlns:svg="http://www.w3.org/2000/svg"
   xmlns="http://www.w3.org/2000/svg"
   id="svg877"
   xml:space="preserve"
   enable-background="new 0 0 1000 1000"
   viewBox="0 0 1000 1000"
   y="0px"
   x="0px"
   version="1.1"><defs
   id="defs881" />
<metadata
   id="metadata871"> Svg Vector Icons : http://www.onlinewebfonts.com/icon <rdf:RDF><cc:Work
     rdf:about=""><dc:format>image/svg+xml</dc:format><dc:type
       rdf:resource="http://purl.org/dc/dcmitype/StillImage" /><dc:title></dc:title></cc:Work></rdf:RDF></metadata>
<g
   style="fill:#419236;fill-opacity:0.9948718"
   id="g875"><path
     style="fill:#419236;fill-opacity:0.9948718"
     id="path873"
     d="M503.8,975c-103.2,0-195.1-27.4-275.9-82.3C147.1,837.8,87,765.2,47.7,674.7C26.5,627,14.3,572.1,11,510.1c-3.3-62,1.5-122.6,14.2-181.8s33-116.1,60.7-170.6S146.3,58.9,183.8,25l-6,153.7c4-5.1,16.4-7.9,37.2-8.5c20.8-0.5,33.5,2.3,38.3,8.5c15.3-29.5,44.6-54.7,87.8-75.5c43.2-20.8,86-31.5,128.2-32.3c-19.7,16.4-41.5,43.5-65.4,81.2c-23.9,37.7-34.6,67.5-32,89.4c9.1,2.9,20.5,5.4,34.2,7.4c13.7,2,25.2,3.4,34.5,4.1c9.3,0.7,21.7,1.4,37.2,2.2c15.5,0.7,24.7,1.3,27.6,1.6c5.5,1.8,7.2,10.1,5.2,24.9c-2,14.8-7.6,28.5-16.7,41.3c-1.8,2.6-4.8,5.9-9,10.1c-4.2,4.2-14.5,10.7-30.9,19.4s-34.8,15-55.2,18.6l8.2,103.4l-76-36.6c-6.6,15.7-7.9,30.5-4.1,44.6c3.8,14,10.4,26.2,19.7,36.4c9.3,10.2,21.2,17.8,35.8,22.7c14.6,4.9,29.3,6.1,44.3,3.6c18.6-3.3,36.5-9.6,53.6-18.9c17.1-9.3,32.4-17.5,45.7-24.6c13.3-7.1,26.7-10.3,40.2-9.6c22.2,1.5,38.6,7.5,48.9,18.1c10.4,10.6,13.9,22.4,10.7,35.5c-0.4,0.7-0.8,1.7-1.4,3c-0.5,1.3-2.1,3.5-4.7,6.8c-2.6,3.3-5.8,6.1-9.8,8.5c-4,2.4-9.7,4.3-17.2,5.7c-7.5,1.5-16,1.7-25.4,0.6c-21.9,34.6-48.2,59.3-79,74.1c-30.8,14.8-69,20.1-114.6,16.1c27,22.2,56.6,37.3,88.9,45.1c32.3,7.8,63,8.9,92.1,3.3c29.2-5.6,57.3-15.1,84.5-28.4c27.2-13.3,50.5-29.3,70-47.9c19.5-18.6,34.2-37.6,44-56.9c15.7-33.2,22.8-68.3,21.3-105.3c-1.5-37-8.3-71.4-20.5-103.1c-12.2-31.7-26.5-54.5-42.9-68.4c31.7,13.9,56.7,28.3,74.9,43.5c18.2,15.1,32.3,35.6,42.1,61.5c5.5-62-5-124.5-31.4-187.6C770.2,153.3,732,101.6,682,61.1c96.6,28.1,171.7,79,225.3,152.9c53.6,73.8,81.1,168.2,82.6,283c0.7,46.3-6.6,92.8-22.2,139.5c-15.5,46.7-38,90.1-67.5,130.2s-64,75.8-103.4,107.2c-39.4,31.3-84.5,56-135.4,74.1C610.7,966,558.1,975,503.8,975L503.8,975z" /></g>
</svg>