<?xml version="1.0" encoding="UTF-8" standalone="no"?>
<svg
   xmlns:dc="http://purl.org/dc/elements/1.1/"
   xmlns:cc="http://creativecommons.org/ns#"
   xmlns:rdf="http://www.w3.org/1999/02/22-rdf-syntax-ns#"
   xmlns:svg="http://www.w3.org/2000/svg"
   xmlns="http://www.w3.org/2000/svg"
   xmlns:sodipodi="http://sodipodi.sourceforge.net/DTD/sodipodi-0.dtd"
   xmlns:inkscape="http://www.inkscape.org/namespaces/inkscape"
   version="1"
   viewBox="0 0 64 64"
   id="svg22"
   sodipodi:docname="geany.svg"
   inkscape:version="0.92.3 (2405546, 2018-03-11)">
  <defs
     id="defs26" />
  <sodipodi:namedview
     pagecolor="#ffffff"
     bordercolor="#666666"
     borderopacity="1"
     objecttolerance="10"
     gridtolerance="10"
     guidetolerance="10"
     inkscape:pageopacity="0"
     inkscape:pageshadow="2"
     inkscape:window-width="1328"
     inkscape:window-height="737"
     id="namedview24"
     showgrid="false"
     inkscape:zoom="7.375"
     inkscape:cx="18.467816"
     inkscape:cy="43.239807"
     inkscape:window-x="38"
     inkscape:window-y="0"
     inkscape:window-maximized="1"
     inkscape:current-layer="svg22" />
  <metadata
     id="metadata2">
    <rdf:RDF>
      <cc:Work
         rdf:about="">
        <dc:format>image/svg+xml</dc:format>
        <dc:type
           rdf:resource="http://purl.org/dc/dcmitype/StillImage" />
      </cc:Work>
    </rdf:RDF>
  </metadata>
  <path
     d="m 29.105069,10.693951 c -6.0279,0.64872 -9.7035,2.7439 -9.7063,5.1301 0.0051,0.11388 0.01977,0.22767 0.044,0.34119 0.36599,-0.2118 0.77998,-0.34119 1.228,-0.34119 h 25.454 c 0.45383,0 0.87218,0.13262 1.2404,0.34895 0.02133,-0.11616 0.03267,-0.23255 0.034,-0.34899 -0.006,-2.3855 -4.2806,-4.4793 -10.307,-5.1275 0.007,-1.8732002 -1.993,-2.8732002 -3.993,-2.8723002 -2,9e-4 -4,0.99916 -3.9938,2.8698002 z"
     id="path6"
     inkscape:connector-curvature="0"
     style="fill:#419236" />
  <path
     style="fill:#419236"
     d="M 46.416016 16.308594 L 20.416016 16.310547 C 18.976016 16.310547 17.816406 17.499462 17.816406 18.976562 C 21.070906 29.580562 15.366134 36.64975 12.615234 29.34375 C 11.681954 26.90935 10.388116 25.30075 7.4160156 25.34375 L 6.1171875 25.34375 C 5.3969975 25.34375 4.8164063 25.939084 4.8164062 26.677734 L 4.8164062 29.044922 C 4.8164062 29.783572 5.3979475 30.273047 6.1171875 30.310547 L 7.8164062 30.310547 L 7.8164062 33.644531 C 7.8164062 44.310531 7.8154344 44.310547 12.615234 44.310547 C 17.815434 44.309798 17.816406 47.381878 17.816406 53.642578 C 17.816406 55.118578 18.976016 56.308594 20.416016 56.308594 L 46.416016 56.308594 C 47.856016 56.308594 48.817306 55.118478 48.816406 53.642578 L 48.816406 52.308594 L 55.515625 52.308594 C 56.235615 52.308594 56.816406 51.714619 56.816406 50.974609 L 56.816406 27.708984 C 56.816406 26.970994 56.231635 26.380594 55.515625 26.308594 L 48.816406 26.308594 L 48.816406 18.976562 C 48.816406 17.499363 47.855986 16.308594 46.416016 16.308594 z M 34.009766 27.996094 L 38.009766 33.998047 L 34.009766 39.998047 L 30.009766 33.998047 L 34.009766 27.996094 z M 24.996094 30 L 27.996094 34 L 24.996094 38 L 21.996094 34 L 24.996094 30 z M 42.996094 30 L 45.996094 34 L 42.996094 38 L 39.996094 34 L 42.996094 30 z M 48.816406 30.310547 L 52.916016 30.310547 L 52.916016 48.310547 L 48.816406 48.310547 L 48.816406 30.310547 z "
     id="path10" />
</svg>
