<?xml version="1.0" encoding="UTF-8"?>
<svg version="1" viewBox="0 0 64 64" xmlns="http://www.w3.org/2000/svg" xmlns:cc="http://creativecommons.org/ns#" xmlns:dc="http://purl.org/dc/elements/1.1/" xmlns:rdf="http://www.w3.org/1999/02/22-rdf-syntax-ns#">
<metadata>
<rdf:RDF>
<cc:Work rdf:about="">
<dc:format>image/svg+xml</dc:format>
<dc:type rdf:resource="http://purl.org/dc/dcmitype/StillImage"/>
</cc:Work>
</rdf:RDF>
</metadata>
<path d="m21.6 17.001c-1.44 0-2.6 1.1894-2.6 2.6665 3.2545 10.604-2.449 17.673-5.1999 10.367-0.93328-2.4344-2.2278-4.0429-5.1999-3.9999h-1.3c-0.72019 0-1.3 0.59465-1.3 1.3333v2.3666c0 0.73865 0.58076 1.2282 1.3 1.2657h1.7v3.3344c0 10.666 0 10.666 4.7998 10.666 5.2002-7.49e-4 5.1999 3.0725 5.1999 9.3332 0 1.476 1.16 2.6659 2.6 2.6659h26c1.44 0 2.4017-1.19 2.4008-2.6659v-1.334h6.699c0.71999 0 1.3-0.59399 1.3-1.334v-23.266c0-0.73799-0.58399-1.328-1.3-1.4h-6.699v-7.3333c0-1.4772-0.96083-2.6665-2.4008-2.6665zm28.4 14h4.0991v18h-4.0991z" opacity=".2"/>
<path d="m30.006 10.871c-6.0279 0.64872-9.7035 2.7439-9.7063 5.1301 0.0051 0.11388 0.01977 0.22767 0.044 0.34119 0.36599-0.2118 0.77998-0.34119 1.228-0.34119h25.454c0.45383 0 0.87218 0.13262 1.2404 0.34895 0.02133-0.11616 0.03267-0.23255 0.034-0.34899-6e-3 -2.3855-4.2806-4.4793-10.307-5.1275 7e-3 -1.8732-1.993-2.8732-3.993-2.8723s-4 0.99916-3.9938 2.8698z" fill="#419236"/>
<path d="m21.572 15.002c-0.41191 0-0.79122 0.11658-1.1348 0.29883a14 5.3333 0 0 0-0.13672 0.69922 14 5.3333 0 0 0 0.042969 0.3418c0.36599-0.2118 0.78052-0.3418 1.2285-0.3418h25.453c0.45383 0 0.87202 0.13328 1.2402 0.34961a14 5.3333 0 0 0 0.035156-0.34961 14 5.3333 0 0 0-0.13867-0.69531c-0.34375-0.18351-0.72282-0.30274-1.1367-0.30274h-25.453z" opacity=".2"/>
<path d="m21.6 16.001c-1.44 0-2.6 1.1894-2.6 2.6665 3.2545 10.604-2.449 17.673-5.1999 10.367-0.93328-2.4344-2.2278-4.0429-5.1999-3.9999h-1.3c-0.72019 0-1.3 0.59465-1.3 1.3333v2.3666c0 0.73865 0.58076 1.2282 1.3 1.2657h1.7v3.3344c0 10.666 0 10.666 4.7998 10.666 5.2002-7.49e-4 5.1999 3.0725 5.1999 9.3332 0 1.476 1.16 2.6659 2.6 2.6659h26c1.44 0 2.4017-1.19 2.4008-2.6659v-1.334h6.699c0.71999 0 1.3-0.59399 1.3-1.334v-23.266c0-0.73799-0.58399-1.328-1.3-1.4h-6.699v-7.3333c0-1.4772-0.96083-2.6665-2.4008-2.6665zm28.4 14h4.0991v18h-4.0991z" fill="#419236"/>
<rect transform="matrix(.6 -.8 .6 .8 0 0)" x="-2.92" y="39.58" width="5" height="5" fill="#b3b3b3"/>
<rect transform="matrix(.5547 -.83205 .5547 .83205 0 0)" x="6.62" y="47.48" width="7.212" height="7.212" fill="#b3b3b3"/>
<rect transform="matrix(.6 -.8 .6 .8 0 0)" x="12.08" y="54.58" width="5" height="5" fill="#b3b3b3"/>
<path d="m21.6 16c-1.44 0-2.5996 1.1908-2.5996 2.668 0.035597 0.11598 0.056375 0.22472 0.089844 0.33984 0.28629-1.1541 1.2933-2.0078 2.5098-2.0078h26c1.44 0 2.4004 1.1908 2.4004 2.668v-1c0-1.4772-0.96042-2.668-2.4004-2.668h-26zm-14.299 9.0352c-0.72019 0-1.3008 0.59336-1.3008 1.332v1c0-0.73867 0.5806-1.332 1.3008-1.332h1.2988c2.9721-0.042999 4.2679 1.5656 5.2012 4 2.247 5.9674 6.4582 2.3394 6.1543-4.9668-0.10488 6.6146-4.0138 9.6514-6.1543 3.9668-0.93328-2.4344-2.229-4.043-5.2012-4h-1.2988zm42.699 0.96484v1h6.6992c0.71599 0.071999 1.2988 0.6624 1.2988 1.4004v-1c0-0.73799-0.58284-1.3284-1.2988-1.4004h-6.6992zm0 22v1h4.0996v-1h-4.0996z" fill="#fff" opacity=".2"/>
<path d="m34 8c-2 8.425e-4 -4.0003 1.0005-3.9941 2.8711-6.0279 0.64872-9.7023 2.7427-9.7051 5.1289 0.0051 0.11388 0.018739 0.22827 0.042969 0.3418 0.022681-0.013125 0.04922-0.018769 0.072266-0.03125 0.64026-2.091 4.1526-3.8543 9.5898-4.4395-0.0062-1.8706 1.9941-2.8683 3.9941-2.8691s3.9992 0.99791 3.9922 2.8711c5.4308 0.58413 9.4285 2.3439 10.172 4.4316 0.032631 0.017447 0.069675 0.026187 0.10156 0.044921 0.02133-0.11616 0.033826-0.23317 0.035156-0.34961-6e-3 -2.3855-4.2824-4.4788-10.309-5.127 0.006999-1.8732-1.9922-2.8739-3.9922-2.873z" fill="#008000" opacity=".1"/>
</svg>
