<?xml version="1.0" encoding="UTF-8" standalone="no"?>
<!-- Svg Vector Icons : http://www.onlinewebfonts.com/icon -->

<svg
   xmlns:dc="http://purl.org/dc/elements/1.1/"
   xmlns:cc="http://creativecommons.org/ns#"
   xmlns:rdf="http://www.w3.org/1999/02/22-rdf-syntax-ns#"
   xmlns:svg="http://www.w3.org/2000/svg"
   xmlns="http://www.w3.org/2000/svg"
   xmlns:sodipodi="http://sodipodi.sourceforge.net/DTD/sodipodi-0.dtd"
   xmlns:inkscape="http://www.inkscape.org/namespaces/inkscape"
   version="1.1"
   x="0px"
   y="0px"
   viewBox="0 0 1000 1000"
   enable-background="new 0 0 1000 1000"
   xml:space="preserve"
   id="svg10"
   sodipodi:docname="gimp.svg"
   inkscape:version="0.92.3 (2405546, 2018-03-11)"><defs
   id="defs14" /><sodipodi:namedview
   pagecolor="#ffffff"
   bordercolor="#666666"
   borderopacity="1"
   objecttolerance="10"
   gridtolerance="10"
   guidetolerance="10"
   inkscape:pageopacity="0"
   inkscape:pageshadow="2"
   inkscape:window-width="789"
   inkscape:window-height="480"
   id="namedview12"
   showgrid="false"
   inkscape:zoom="0.236"
   inkscape:cx="500"
   inkscape:cy="500"
   inkscape:window-x="38"
   inkscape:window-y="0"
   inkscape:window-maximized="0"
   inkscape:current-layer="svg10" />
<metadata
   id="metadata2"> Svg Vector Icons : http://www.onlinewebfonts.com/icon <rdf:RDF><cc:Work
     rdf:about=""><dc:format>image/svg+xml</dc:format><dc:type
       rdf:resource="http://purl.org/dc/dcmitype/StillImage" /></cc:Work></rdf:RDF></metadata>
<g
   id="g8"
   style="fill:#419236;fill-opacity:1"><g
     transform="translate(0.000000,160.000000) scale(0.100000,-0.100000)"
     id="g6"
     style="fill:#419236;fill-opacity:1"><path
       d="M8596.4-545c-459.6-879.6-1046-1513.5-1703.7-1838.4c-491.3-241.7-851.9-320.9-1505.6-324.9c-610.2-7.9-915.3,55.5-1442.2,293.2c-570.5,257.5-1319.4,859.8-1830.5,1473.9c-106.9,126.8-194.1,210-194.1,190.2c0-23.8,79.2-281.3,174.3-570.5c178.3-538.9,289.3-792.4,523-1180.7c75.3-122.8,134.7-241.7,134.7-261.5c0-23.8-83.2-51.5-182.3-67.3c-103-11.9-245.6-59.4-317-107c-146.6-91.1-332.8-368.5-332.8-499.2c0-51.5-31.7-91.1-87.2-107c-170.4-43.6-253.6-23.8-352.6,79.2c-51.5,55.5-182.2,154.5-293.2,217.9c-404.1,233.8-792.4,99.1-998.5-344.7c-83.2-186.2-99.1-261.5-83.2-523c23.8-558.7,356.6-1065.8,851.9-1307.5c126.8-63.4,372.4-194.2,546.8-289.2c538.8-301.2,1315.4-558.7,2139.6-713.2c435.8-83.2,1442.2-71.3,1802.8,19.8c340.7,83.2,740.9,257.5,962.8,408.1c146.6,103,162.4,103,380.4,59.4c122.9-27.7,479.4-47.5,784.5-47.5c554.7,0,562.6,0,752.8-118.9c273.4-170.4,538.8-210,915.2-138.7c384.3,75.3,697.3,178.3,653.8,217.9c-99.1,87.2-1327.3,633.9-1426.4,633.9c-67.4,0-150.6-31.7-190.2-79.2c-87.2-95.1-146.6-99.1-760.7-15.9c-320.9,43.6-487.3,83.2-487.3,114.9c0,27.7,99.1,257.5,217.9,511.1c202.1,420,297.2,709.2,356.6,1097.5c15.8,118.9,79.2,198.1,340.7,431.9c633.9,574.5,780.6,875.6,812.2,1683.9c11.9,261.5,7.9,665.6-11.9,903.4l-31.7,424L8596.4-545z M3017.7-3425.5c95.1-83.2,110.9-126.8,110.9-293.2c0-257.5-122.8-404.2-336.8-404.2c-214,0-336.8,146.6-336.8,396.2C2455-3370,2760.1-3207.6,3017.7-3425.5z M4697.6-3568.1c221.9-122.8,261.5-606.2,59.4-780.6c-154.5-130.7-412-126.8-550.7,11.9c-194.2,194.2-190.2,495.3,11.9,693.4C4337.1-3520.6,4547-3488.9,4697.6-3568.1z"
       id="path4"
       style="fill:#419236;fill-opacity:1" /></g></g>
</svg>