<?xml version="1.0" encoding="UTF-8" standalone="no"?>
<svg
   xmlns:dc="http://purl.org/dc/elements/1.1/"
   xmlns:cc="http://creativecommons.org/ns#"
   xmlns:rdf="http://www.w3.org/1999/02/22-rdf-syntax-ns#"
   xmlns:svg="http://www.w3.org/2000/svg"
   xmlns="http://www.w3.org/2000/svg"
   xmlns:sodipodi="http://sodipodi.sourceforge.net/DTD/sodipodi-0.dtd"
   xmlns:inkscape="http://www.inkscape.org/namespaces/inkscape"
   height="32.151688mm"
   version="1.1"
   viewBox="0 0 113.927871 113.923303"
   width="32.152977mm"
   id="svg6"
   sodipodi:docname="gitg.svg"
   inkscape:version="0.92.3 (2405546, 2018-03-11)">
  <metadata
     id="metadata12">
    <rdf:RDF>
      <cc:Work
         rdf:about="">
        <dc:format>image/svg+xml</dc:format>
        <dc:type
           rdf:resource="http://purl.org/dc/dcmitype/StillImage" />
      </cc:Work>
    </rdf:RDF>
  </metadata>
  <defs
     id="defs10" />
  <sodipodi:namedview
     pagecolor="#ffffff"
     bordercolor="#666666"
     borderopacity="1"
     objecttolerance="10"
     gridtolerance="10"
     guidetolerance="10"
     inkscape:pageopacity="0"
     inkscape:pageshadow="2"
     inkscape:window-width="732"
     inkscape:window-height="480"
     id="namedview8"
     showgrid="false"
     inkscape:zoom="1.9420961"
     inkscape:cx="-4.1168241"
     inkscape:cy="60.759095"
     inkscape:window-x="38"
     inkscape:window-y="0"
     inkscape:window-maximized="0"
     inkscape:current-layer="svg6" />
  <g
     transform="translate(-249.215464 -448.4647)"
     id="g4"
     style="fill:#419236;fill-opacity:1">
    <path
       d="m360.995339 500.3522l-49.745-49.7389c-2.8622-2.8648-7.5082-2.8648-10.374 0l-10.329 10.33 13.102 13.102c3.0459-1.0284 6.5371-.33888 8.9639 2.0884 2.4394 2.4424 3.124 5.9634 2.0698 9.0195l12.628 12.628c3.0551-1.0528 6.58-.37262 9.0195 2.0712 3.4106 3.4096 3.4106 8.9345 0 12.345-3.4111 3.4116-8.936 3.4116-12.349 0-2.5645-2.5665-3.1988-6.3345-1.8999-9.4942l-11.777-11.777-.001 30.991c.8315.41162 1.6162.961 2.3091 1.6509 3.4096 3.4092 3.4096 8.9331 0 12.348-3.4106 3.4091-8.938 3.4091-12.345 0-3.4101-3.4146-3.4101-8.9385 0-12.348.84275-.84125 1.8179-1.478 2.8584-1.9048l0-31.279c-1.041-.425-2.015-1.057-2.859-1.905-2.583-2.581-3.2051-6.372-1.8804-9.5439l-12.916-12.918-34.106 34.105c-2.8657 2.867-2.8657 7.513 0 10.378l49.742 49.739c2.8638 2.8648 7.5082 2.8648 10.376 0l49.512-49.504c2.8648-2.8662 2.8648-7.5136 0-10.379"
       fill="#f03c2e"
       id="path2"
       style="fill:#419236;fill-opacity:1" />
  </g>
</svg>
