<?xml version="1.0" encoding="UTF-8" standalone="no"?>
<svg
   xmlns:dc="http://purl.org/dc/elements/1.1/"
   xmlns:cc="http://creativecommons.org/ns#"
   xmlns:rdf="http://www.w3.org/1999/02/22-rdf-syntax-ns#"
   xmlns:svg="http://www.w3.org/2000/svg"
   xmlns="http://www.w3.org/2000/svg"
   xmlns:sodipodi="http://sodipodi.sourceforge.net/DTD/sodipodi-0.dtd"
   xmlns:inkscape="http://www.inkscape.org/namespaces/inkscape"
   fill="#bdbdbd"
   height="48"
   version="1.1"
   viewBox="0 0 48 48"
   width="48"
   id="svg4"
   sodipodi:docname="gnome-do-symbolic.svg"
   inkscape:version="0.92.3 (2405546, 2018-03-11)">
  <metadata
     id="metadata10">
    <rdf:RDF>
      <cc:Work
         rdf:about="">
        <dc:format>image/svg+xml</dc:format>
        <dc:type
           rdf:resource="http://purl.org/dc/dcmitype/StillImage" />
      </cc:Work>
    </rdf:RDF>
  </metadata>
  <defs
     id="defs8" />
  <sodipodi:namedview
     pagecolor="#ffffff"
     bordercolor="#666666"
     borderopacity="1"
     objecttolerance="10"
     gridtolerance="10"
     guidetolerance="10"
     inkscape:pageopacity="0"
     inkscape:pageshadow="2"
     inkscape:window-width="831"
     inkscape:window-height="580"
     id="namedview6"
     showgrid="false"
     inkscape:zoom="4.9166667"
     inkscape:cx="-1.6271186"
     inkscape:cy="24"
     inkscape:window-x="38"
     inkscape:window-y="0"
     inkscape:window-maximized="0"
     inkscape:current-layer="svg4" />
  <path
     d="m24 20c-2.21 0-4 1.79-4 4 0 2.21 1.79 4 4 4 2.21 0 4-1.79 4-4 0-2.21-1.79-4-4-4zM38 6L10 6C7.79 6 6 7.79 6 10l0 28c0 2.21 1.79 4 4 4l28 0c2.21 0 4-1.79 4-4L42 10C42 7.79 40.21 6 38 6Zm-3.5 18c0 .46-.04.92-.1 1.37l2.96 2.32c.26.21.34.59.16.89L34.72 33.43c-.17.3-.54.42-.86.3L30.37 32.32C29.65 32.88 28.86 33.34 28 33.7l-.52 3.71C27.44 37.74 27.15 38 26.8 38l-5.6 0c-.35 0-.64-.26-.69-.59L19.99 33.7c-.85-.35-1.64-.82-2.37-1.38l-3.48 1.4c-.32.12-.68 0-.86-.3l-2.8-4.85c-.18-.3-.1-.68.16-.89l2.96-2.31c-.06-.45-.1-.9-.1-1.37 0-.46.04-.92.1-1.37l-2.96-2.31c-.26-.21-.34-.59-.16-.89l2.8-4.85c.18-.3.54-.42.86-.3l3.48 1.4c.72-.55 1.51-1.02 2.37-1.38l.52-3.71c.05-.33.34-.59.69-.59L26.8 10c .35 0 .64.26.69.59l.52 3.71c.85.35 1.64.82 2.37 1.38l3.48-1.4c.32-.12.68 0 .86.3l2.8 4.85c.18.3.1.68-.16.89l-2.96 2.32c.06.44.1.9.1 1.36z"
     id="path2"
     style="fill:#419236;fill-opacity:1;opacity:0.71631206" />
</svg>
