<?xml version="1.0" encoding="UTF-8" standalone="no"?>
<svg
   xmlns:dc="http://purl.org/dc/elements/1.1/"
   xmlns:cc="http://creativecommons.org/ns#"
   xmlns:rdf="http://www.w3.org/1999/02/22-rdf-syntax-ns#"
   xmlns:svg="http://www.w3.org/2000/svg"
   xmlns="http://www.w3.org/2000/svg"
   xmlns:sodipodi="http://sodipodi.sourceforge.net/DTD/sodipodi-0.dtd"
   xmlns:inkscape="http://www.inkscape.org/namespaces/inkscape"
   fill="#2e3436"
   height="48"
   version="1.1"
   viewBox="0 0 48 48"
   width="48"
   id="svg6"
   sodipodi:docname="gnome-documents.svg"
   inkscape:version="0.92.3 (2405546, 2018-03-11)">
  <metadata
     id="metadata12">
    <rdf:RDF>
      <cc:Work
         rdf:about="">
        <dc:format>image/svg+xml</dc:format>
        <dc:type
           rdf:resource="http://purl.org/dc/dcmitype/StillImage" />
      </cc:Work>
    </rdf:RDF>
  </metadata>
  <defs
     id="defs10" />
  <sodipodi:namedview
     pagecolor="#ffffff"
     bordercolor="#666666"
     borderopacity="1"
     objecttolerance="10"
     gridtolerance="10"
     guidetolerance="10"
     inkscape:pageopacity="0"
     inkscape:pageshadow="2"
     inkscape:window-width="732"
     inkscape:window-height="480"
     id="namedview8"
     showgrid="false"
     inkscape:zoom="4.9166667"
     inkscape:cx="-1.6271186"
     inkscape:cy="24"
     inkscape:window-x="38"
     inkscape:window-y="0"
     inkscape:window-maximized="0"
     inkscape:current-layer="svg6" />
  <g
     fill="#2e3436"
     id="g4"
     style="fill:#419236;fill-opacity:1">
    <path
       d="M28 4L12 4C9.79 4 8.02 5.79 8.02 8L8 40c0 2.21 1.77 4 3.98 4L36 44c2.21 0 4-1.79 4-4L40 16 28 4Zm4 32l-16 0 0-4 16 0 0 4zm0-8l-16 0 0-4 16 0 0 4zM26 18L26 7 37 18 26 18Z"
       fill="#2e3436"
       id="path2"
       style="fill:#419236;fill-opacity:1" />
  </g>
</svg>
