<?xml version="1.0" encoding="UTF-8" standalone="no"?>
<svg
   xmlns:dc="http://purl.org/dc/elements/1.1/"
   xmlns:cc="http://creativecommons.org/ns#"
   xmlns:rdf="http://www.w3.org/1999/02/22-rdf-syntax-ns#"
   xmlns:svg="http://www.w3.org/2000/svg"
   xmlns="http://www.w3.org/2000/svg"
   id="svg1482"
   xml:space="preserve"
   enable-background="new 0 0 1000 1000"
   viewBox="0 0 1000 1000"
   y="0px"
   x="0px"
   version="1.1"><defs
   id="defs1486" />
<metadata
   id="metadata1476"> Svg Vector Icons : http://www.onlinewebfonts.com/icon <rdf:RDF><cc:Work
     rdf:about=""><dc:format>image/svg+xml</dc:format><dc:type
       rdf:resource="http://purl.org/dc/dcmitype/StillImage" /><dc:title></dc:title></cc:Work></rdf:RDF></metadata>
<g
   style="fill:#419236;fill-opacity:0.9948718"
   id="g1480"><path
     style="fill:#419236;fill-opacity:0.9948718"
     id="path1478"
     d="M257.2,437.4L117,194.5C206.8,82.1,345,10,500,10c179.4,0,336.2,96.4,421.6,240.2H521.8c-7.2-0.6-14.5-0.9-21.8-0.9C383.4,249.3,285.1,329.4,257.2,437.4L257.2,437.4z M675.4,321.1h280.9c21.8,55.4,33.7,115.8,33.7,179C990,768.8,773.6,987,505.6,990L706,642.9c28.2-40.5,44.8-89.8,44.8-142.8C750.8,430,721.9,366.6,675.4,321.1L675.4,321.1z M322,500c0-98.2,79.8-178,178-178c98.2,0,178,79.8,178,178c0,98.1-79.9,178-178,178C401.9,678,322,598.2,322,500L322,500z M567.2,741.6l-140.3,243C191,949.3,10,745.8,10,500.1c0-87.3,22.8-169.2,62.9-240.2l200,346.5C313,691.6,399.7,750.8,500,750.8C523.2,750.8,545.8,747.6,567.2,741.6L567.2,741.6z" /></g>
</svg>