<?xml version="1.0" encoding="UTF-8" standalone="no"?>
<svg
   xmlns:dc="http://purl.org/dc/elements/1.1/"
   xmlns:cc="http://creativecommons.org/ns#"
   xmlns:rdf="http://www.w3.org/1999/02/22-rdf-syntax-ns#"
   xmlns:svg="http://www.w3.org/2000/svg"
   xmlns="http://www.w3.org/2000/svg"
   xmlns:sodipodi="http://sodipodi.sourceforge.net/DTD/sodipodi-0.dtd"
   xmlns:inkscape="http://www.inkscape.org/namespaces/inkscape"
   fill="#419236"
   height="48"
   version="1.1"
   viewBox="0 0 48 48"
   width="48"
   id="svg8"
   sodipodi:docname="internet-feed-reader.svg"
   inkscape:version="0.92.3 (2405546, 2018-03-11)">
  <metadata
     id="metadata14">
    <rdf:RDF>
      <cc:Work
         rdf:about="">
        <dc:format>image/svg+xml</dc:format>
        <dc:type
           rdf:resource="http://purl.org/dc/dcmitype/StillImage" />
      </cc:Work>
    </rdf:RDF>
  </metadata>
  <defs
     id="defs12" />
  <sodipodi:namedview
     pagecolor="#ffffff"
     bordercolor="#666666"
     borderopacity="1"
     objecttolerance="10"
     gridtolerance="10"
     guidetolerance="10"
     inkscape:pageopacity="0"
     inkscape:pageshadow="2"
     inkscape:window-width="732"
     inkscape:window-height="480"
     id="namedview10"
     showgrid="false"
     inkscape:zoom="4.9166667"
     inkscape:cx="-1.6271186"
     inkscape:cy="24"
     inkscape:window-x="38"
     inkscape:window-y="0"
     inkscape:window-maximized="0"
     inkscape:current-layer="svg8" />
  <g
     fill="#f36f24"
     transform="matrix(2.99999869 0 0 2.99999869 -1682.999844 -902.999594)"
     id="g6"
     style="fill:#419236;fill-opacity:1">
    <ellipse
       color="#000"
       cx="323.0625"
       cy="97.1875"
       enable-background="new"
       fill="#f36f24"
       overflow="visible"
       rx="2"
       ry="3.236068"
       stroke-width="1.696027"
       transform="matrix(1.0000007 0 0 .61803426 241.93747 252.93479)"
       id="ellipse2"
       style="fill:#419236;fill-opacity:1" />
    <path
       color="#000"
       d="m563.0002 303l0 1c0 .55016.45347 1 1 1 4.97056 0 9 4.02944 9 9 0 .55016.45347 1 1 1l1 0 0-1c0-6.07513-4.92487-11-11-11l-1 0zm0 4l0 1c0 .55016.45347 1 1 1 2.76143 0 5 2.23857 5 5 0 .55016.45347 1 1 1l1 0 0-1c0-3.866-3.134-7-7-7l-1 0z"
       enable-background="new"
       fill="#f36f24"
       overflow="visible"
       stroke-width="1.333335"
       id="path4"
       style="fill:#419236;fill-opacity:1" />
  </g>
</svg>
