<?xml version="1.0" encoding="UTF-8" standalone="no"?>
<!-- Creator: CorelDRAW X8 -->

<svg
   xmlns:dc="http://purl.org/dc/elements/1.1/"
   xmlns:cc="http://creativecommons.org/ns#"
   xmlns:rdf="http://www.w3.org/1999/02/22-rdf-syntax-ns#"
   xmlns:svg="http://www.w3.org/2000/svg"
   xmlns="http://www.w3.org/2000/svg"
   xmlns:sodipodi="http://sodipodi.sourceforge.net/DTD/sodipodi-0.dtd"
   xmlns:inkscape="http://www.inkscape.org/namespaces/inkscape"
   xml:space="preserve"
   width="11.567mm"
   height="12.5766mm"
   version="1.1"
   style="shape-rendering:geometricPrecision; text-rendering:geometricPrecision; image-rendering:optimizeQuality; fill-rule:evenodd; clip-rule:evenodd"
   viewBox="0 0 173 188"
   id="svg12"
   sodipodi:docname="mintupdate-updates-available.svg"
   inkscape:version="0.92.3 (2405546, 2018-03-11)"><metadata
   id="metadata16"><rdf:RDF><cc:Work
       rdf:about=""><dc:format>image/svg+xml</dc:format><dc:type
         rdf:resource="http://purl.org/dc/dcmitype/StillImage" /></cc:Work></rdf:RDF></metadata><sodipodi:namedview
   pagecolor="#ffffff"
   bordercolor="#666666"
   borderopacity="1"
   objecttolerance="10"
   gridtolerance="10"
   guidetolerance="10"
   inkscape:pageopacity="0"
   inkscape:pageshadow="2"
   inkscape:window-width="1324"
   inkscape:window-height="745"
   id="namedview14"
   showgrid="false"
   inkscape:zoom="9.9298167"
   inkscape:cx="17.394019"
   inkscape:cy="24.626971"
   inkscape:window-x="38"
   inkscape:window-y="0"
   inkscape:window-maximized="1"
   inkscape:current-layer="svg12" />
 <defs
   id="defs4">
  <style
   type="text/css"
   id="style2">
   <![CDATA[
    .str0 {stroke:#419236;stroke-width:7.45713}
    .fil0 {fill:none}
    .fil1 {fill:#419236}
   ]]>
  </style>
 
  
  
  
 </defs>
 <g
   id="g816"
   transform="matrix(0.8264968,0,0,0.85994874,23.913959,11.241179)"><path
     class="fil0 str0"
     d="M 86,183 C 131,160 159,114 168,41 138,33 111,23 86,5 62,23 35,33 4,41 14,114 42,160 86,183 Z"
     id="path7"
     inkscape:connector-curvature="0"
     style="fill:#419236;fill-opacity:0.00529103;stroke:#419236;stroke-width:7.45712996" /><path
     class="fil1"
     d="M 86,183 C 131,160 159,114 168,41 138,33 111,23 86,5 62,23 35,33 4,41 14,114 42,160 86,183 Z M 86,155 69,68 39,71 86,33 134,71 104,68 Z"
     id="path9"
     inkscape:connector-curvature="0"
     style="fill:#419236;fill-opacity:1" /></g>
</svg>