<?xml version="1.0" encoding="UTF-8" standalone="no"?>
<!-- Creator: CorelDRAW X8 -->

<svg
   xmlns:dc="http://purl.org/dc/elements/1.1/"
   xmlns:cc="http://creativecommons.org/ns#"
   xmlns:rdf="http://www.w3.org/1999/02/22-rdf-syntax-ns#"
   xmlns:svg="http://www.w3.org/2000/svg"
   xmlns="http://www.w3.org/2000/svg"
   xmlns:sodipodi="http://sodipodi.sourceforge.net/DTD/sodipodi-0.dtd"
   xmlns:inkscape="http://www.inkscape.org/namespaces/inkscape"
   xml:space="preserve"
   width="11.567mm"
   height="12.5766mm"
   version="1.1"
   style="shape-rendering:geometricPrecision; text-rendering:geometricPrecision; image-rendering:optimizeQuality; fill-rule:evenodd; clip-rule:evenodd"
   viewBox="0 0 298 324"
   id="svg12"
   sodipodi:docname="mintupdate-error.svg"
   inkscape:version="0.92.3 (2405546, 2018-03-11)"><metadata
   id="metadata16"><rdf:RDF><cc:Work
       rdf:about=""><dc:format>image/svg+xml</dc:format><dc:type
         rdf:resource="http://purl.org/dc/dcmitype/StillImage" /></cc:Work></rdf:RDF></metadata><sodipodi:namedview
   pagecolor="#ffffff"
   bordercolor="#666666"
   borderopacity="1"
   objecttolerance="10"
   gridtolerance="10"
   guidetolerance="10"
   inkscape:pageopacity="0"
   inkscape:pageshadow="2"
   inkscape:window-width="1362"
   inkscape:window-height="707"
   id="namedview14"
   showgrid="false"
   inkscape:zoom="4.9649083"
   inkscape:cx="-56.474415"
   inkscape:cy="23.766803"
   inkscape:window-x="0"
   inkscape:window-y="0"
   inkscape:window-maximized="1"
   inkscape:current-layer="svg12" />
 <defs
   id="defs4">
  <style
   type="text/css"
   id="style2">
   <![CDATA[
    .str0 {stroke:#D1D1D1;stroke-width:12.8852}
    .fil0 {fill:none}
    .fil1 {fill:#D1D1D1}
   ]]>
  </style>
 
  
  
  
 </defs>
 <g
   id="g820"
   transform="matrix(0.81989578,0,0,0.84392584,41.017839,23.079364)"><path
     class="fil0 str0"
     d="M 149,317 C 226,277 274,197 291,71 238,57 192,40 149,8 106,40 60,57 7,71 24,197 73,277 149,317 Z"
     id="path7"
     style="fill:#000000;fill-opacity:0;stroke:#419236;stroke-width:12.88519955"
     inkscape:connector-curvature="0" /><g
     id="g815"><path
       inkscape:connector-curvature="0"
       style="fill:#419236;fill-opacity:1"
       id="path9"
       d="M 149,317 C 226,277 274,197 291,71 238,57 192,40 149,8 106,40 60,57 7,71 24,197 73,277 149,317 Z m 0,-138 -64,70 -16,-46 61,-41 -55,-44 11,-42 63,65 63,-65 11,42 -55,44 61,41 -16,46 z"
       class="fil1" /></g></g>
</svg>
