<?xml version="1.0" encoding="UTF-8" standalone="no"?>
<!-- Creator: CorelDRAW X8 -->

<svg
   xmlns:dc="http://purl.org/dc/elements/1.1/"
   xmlns:cc="http://creativecommons.org/ns#"
   xmlns:rdf="http://www.w3.org/1999/02/22-rdf-syntax-ns#"
   xmlns:svg="http://www.w3.org/2000/svg"
   xmlns="http://www.w3.org/2000/svg"
   xmlns:sodipodi="http://sodipodi.sourceforge.net/DTD/sodipodi-0.dtd"
   xmlns:inkscape="http://www.inkscape.org/namespaces/inkscape"
   xml:space="preserve"
   width="11.567mm"
   height="12.5766mm"
   version="1.1"
   style="shape-rendering:geometricPrecision; text-rendering:geometricPrecision; image-rendering:optimizeQuality; fill-rule:evenodd; clip-rule:evenodd"
   viewBox="0 0 121 132"
   id="svg12"
   sodipodi:docname="mintupdate-installing.svg"
   inkscape:version="0.92.3 (2405546, 2018-03-11)"><metadata
   id="metadata16"><rdf:RDF><cc:Work
       rdf:about=""><dc:format>image/svg+xml</dc:format><dc:type
         rdf:resource="http://purl.org/dc/dcmitype/StillImage" /></cc:Work></rdf:RDF></metadata><sodipodi:namedview
   pagecolor="#ffffff"
   bordercolor="#666666"
   borderopacity="1"
   objecttolerance="10"
   gridtolerance="10"
   guidetolerance="10"
   inkscape:pageopacity="0"
   inkscape:pageshadow="2"
   inkscape:window-width="1362"
   inkscape:window-height="707"
   id="namedview14"
   showgrid="false"
   inkscape:zoom="9.9298167"
   inkscape:cx="-25.016042"
   inkscape:cy="25.933721"
   inkscape:window-x="0"
   inkscape:window-y="0"
   inkscape:window-maximized="1"
   inkscape:current-layer="svg12" />
 <defs
   id="defs4">
  <style
   type="text/css"
   id="style2">
   <![CDATA[
    .str0 {stroke:#419236;stroke-width:5.24683}
    .fil0 {fill:none}
    .fil1 {fill:#419236}
   ]]>
  </style>
 
  
  
  
 </defs>
 <g
   id="g816"
   transform="matrix(0.82771205,0,0,0.83942937,16.386742,10.127488)"><path
     class="fil0 str0"
     d="M 61,129 C 92,113 112,80 118,29 97,23 78,16 61,3 43,16 24,23 3,29 c 7,51 27,84 58,100 z"
     id="path7"
     inkscape:connector-curvature="0"
     style="fill:#000000;fill-opacity:0;stroke:#419236;stroke-width:5.24682999" /><path
     class="fil1"
     d="m 61,129 c 16,-9 30,-22 40,-40 -1,-1 -1,-1 -1,-1 l -6,5 c -3,-1 -7,-4 -9,-6 l 3,-8 c -1,-1 -3,-3 -4,-4 l -7,1 C 75,72 74,68 73,65 l 7,-4 c 0,-1 0,-2 0,-3 0,-1 0,-2 0,-3 l -7,-4 c 1,-4 2,-8 4,-11 l 7,1 c 1,-2 3,-3 4,-5 l -3,-7 c 2,-3 6,-5 9,-7 l 6,5 c 2,0 3,-1 5,-1 V 25 C 89,20 74,14 61,3 43,16 24,23 3,29 4,35 5,40 6,46 6,45 7,45 8,45 l 2,-8 c 1,0 3,0 5,0 2,0 4,0 6,0 l 2,8 c 2,1 3,1 5,2 l 6,-5 c 4,2 7,4 9,6 l -3,8 c 2,1 3,3 4,4 h 7 c 2,3 3,7 4,10 l -7,5 c 0,0 0,1 0,2 0,1 0,2 0,3 l 7,4 c -1,4 -2,8 -4,11 l -7,-1 c -1,2 -2,3 -4,5 l 3,7 c -2,2 -4,4 -6,5 7,7 15,13 24,18 z m 44,-48 c 6,-14 10,-29 13,-47 -2,0 -4,0 -5,0 -14,0 -24,10 -24,24 0,10 6,19 16,23 z M 8,54 C 12,72 19,87 27,99 34,94 39,86 39,77 39,64 29,53 15,53 c -2,0 -5,1 -7,1 z"
     id="path9"
     inkscape:connector-curvature="0"
     style="fill:#419236;fill-opacity:1" /></g>
</svg>
