<?xml version="1.0" encoding="UTF-8" standalone="no"?>
<!-- Creator: CorelDRAW X8 -->

<svg
   xmlns:dc="http://purl.org/dc/elements/1.1/"
   xmlns:cc="http://creativecommons.org/ns#"
   xmlns:rdf="http://www.w3.org/1999/02/22-rdf-syntax-ns#"
   xmlns:svg="http://www.w3.org/2000/svg"
   xmlns="http://www.w3.org/2000/svg"
   xmlns:sodipodi="http://sodipodi.sourceforge.net/DTD/sodipodi-0.dtd"
   xmlns:inkscape="http://www.inkscape.org/namespaces/inkscape"
   xml:space="preserve"
   width="11.567mm"
   height="12.5766mm"
   version="1.1"
   style="shape-rendering:geometricPrecision; text-rendering:geometricPrecision; image-rendering:optimizeQuality; fill-rule:evenodd; clip-rule:evenodd"
   viewBox="0 0 1096 1191"
   id="svg12"
   sodipodi:docname="mintupdate-up-to-date.svg"
   inkscape:version="0.92.3 (2405546, 2018-03-11)"><metadata
   id="metadata16"><rdf:RDF><cc:Work
       rdf:about=""><dc:format>image/svg+xml</dc:format><dc:type
         rdf:resource="http://purl.org/dc/dcmitype/StillImage" /></cc:Work></rdf:RDF></metadata><sodipodi:namedview
   pagecolor="#ffffff"
   bordercolor="#666666"
   borderopacity="1"
   objecttolerance="10"
   gridtolerance="10"
   guidetolerance="10"
   inkscape:pageopacity="0"
   inkscape:pageshadow="2"
   inkscape:window-width="1362"
   inkscape:window-height="707"
   id="namedview14"
   showgrid="false"
   inkscape:zoom="9.9298167"
   inkscape:cx="-28.81408"
   inkscape:cy="24.773065"
   inkscape:window-x="0"
   inkscape:window-y="0"
   inkscape:window-maximized="1"
   inkscape:current-layer="svg12" />
 <defs
   id="defs4">
  <style
   type="text/css"
   id="style2">
   <![CDATA[
    .str0 {stroke:#419236;stroke-width:47.3553}
    .fil0 {fill:none}
    .fil1 {fill:#419236}
   ]]>
  </style>
 
  
  
  
 </defs>
 <g
   id="g816"
   transform="matrix(0.82305197,0,0,0.85877311,151.05622,68.524964)"><path
     class="fil0 str0"
     d="M 548,1164 C 829,1018 1007,724 1069,260 875,208 704,149 548,30 391,149 220,208 26,260 c 62,464 241,758 522,904 z"
     id="path7"
     inkscape:connector-curvature="0"
     style="fill:#419236;fill-opacity:0;stroke:#419236;stroke-width:47.3553009" /><path
     class="fil1"
     d="M 548,1164 C 829,1018 1007,724 1069,260 875,208 704,149 548,30 391,149 220,208 26,260 88,724 267,1018 548,1164 Z M 252,761 301,605 436,794 C 517,606 620,429 755,268 l 88,172 C 708,539 573,718 438,926 Z"
     id="path9"
     inkscape:connector-curvature="0"
     style="fill:#419236;fill-opacity:1" /></g>
</svg>
