<?xml version="1.0" encoding="UTF-8" standalone="no"?>
<svg
   xmlns:dc="http://purl.org/dc/elements/1.1/"
   xmlns:cc="http://creativecommons.org/ns#"
   xmlns:rdf="http://www.w3.org/1999/02/22-rdf-syntax-ns#"
   xmlns:svg="http://www.w3.org/2000/svg"
   xmlns="http://www.w3.org/2000/svg"
   xmlns:sodipodi="http://sodipodi.sourceforge.net/DTD/sodipodi-0.dtd"
   xmlns:inkscape="http://www.inkscape.org/namespaces/inkscape"
   width="64pt"
   height="65pt"
   version="1.0"
   viewBox="0 0 64 65"
   id="svg10"
   sodipodi:docname="org.gnome.Epiphany.svg"
   inkscape:version="0.92.3 (2405546, 2018-03-11)">
  <defs
     id="defs14" />
  <sodipodi:namedview
     pagecolor="#ffffff"
     bordercolor="#666666"
     borderopacity="1"
     objecttolerance="10"
     gridtolerance="10"
     guidetolerance="10"
     inkscape:pageopacity="0"
     inkscape:pageshadow="2"
     inkscape:window-width="1324"
     inkscape:window-height="745"
     id="namedview12"
     showgrid="false"
     inkscape:zoom="2.7230769"
     inkscape:cx="4.1073446"
     inkscape:cy="43.333333"
     inkscape:window-x="38"
     inkscape:window-y="0"
     inkscape:window-maximized="1"
     inkscape:current-layer="svg10" />
  <metadata
     id="metadata2">
    <rdf:RDF>
      <cc:Work
         rdf:about="">
        <dc:format>image/svg+xml</dc:format>
        <dc:type
           rdf:resource="http://purl.org/dc/dcmitype/StillImage" />
      </cc:Work>
    </rdf:RDF>
  </metadata>
  <g
     transform="translate(0 65) scale(.1 -.1)"
     fill="#008000"
     fill-opacity=".90196"
     id="g8"
     style="fill:#419236;fill-opacity:1">
    <path
       d="m255 607c-129-39-204-137-205-267 0-90 9-100 48-55 21 23 32 46 32 66 0 59 53 138 114 169 38 19 132 18 173-3 43-23 91-84 104-132 24-86-24-187-107-228-41-19-44-24-44-59 0-24 5-38 13-38 30 0 115 51 150 90 55 61 71 102 70 190 0 61-5 85-26 126-28 55-82 105-140 129-50 21-135 26-182 12z"
       id="path4"
       style="fill:#419236;fill-opacity:1" />
    <path
       d="m187 315-128-135h56c42 0 56-3 52-12-3-7-16-36-28-64-25-59-21-84 16-84 22 0 30 9 50 55 14 30 28 55 33 55 4 0 23-16 42-35s38-35 42-35 8 88 8 195-3 195-8 195c-4 0-65-61-135-135z"
       id="path6"
       style="fill:#419236;fill-opacity:1" />
  </g>
</svg>
