<?xml version="1.0" encoding="UTF-8"?>
<svg enable-background="new 0 0 1000 1000" version="1.1" viewBox="0 0 1e3 1e3" xml:space="preserve" xmlns="http://www.w3.org/2000/svg" xmlns:cc="http://creativecommons.org/ns#" xmlns:dc="http://purl.org/dc/elements/1.1/" xmlns:rdf="http://www.w3.org/1999/02/22-rdf-syntax-ns#">
<metadata> Svg Vector Icons : http://www.onlinewebfonts.com/icon <rdf:RDF><cc:Work rdf:about=""><dc:format>image/svg+xml</dc:format><dc:type rdf:resource="http://purl.org/dc/dcmitype/StillImage"/></cc:Work></rdf:RDF></metadata>
<path d="m861.2 831.1c80-87.2 128.8-203.5 128.8-331.1 0-270.6-219.4-490-490-490s-490 219.4-490 490c0 132 52.2 251.8 137.1 339.9 33.5-94.6 103.6-173.4 196.5-217.3l75.1-35.5-59.5-58c-38.8-37.8-61-89.3-61-144.5 0-111.4 90.3-201.8 201.8-201.8 111.4 0 201.8 90.3 201.8 201.8 0 53.8-21.1 104.2-58.1 141.7l-58.4 59.1 75.8 34c93.3 41.9 164.6 118.7 200.1 211.7z" fill="#419236"/><path d="m500 932.4c238.8 0 432.4-193.6 432.4-432.4s-193.6-432.4-432.4-432.4-432.4 193.6-432.4 432.4 193.6 432.4 432.4 432.4zm0 57.6c-270.6 0-490-219.4-490-490s219.4-490 490-490 490 219.4 490 490-219.4 490-490 490z" fill="#419236"/>
</svg>
