<?xml version="1.0" encoding="UTF-8" standalone="no"?>
<svg
   xmlns:dc="http://purl.org/dc/elements/1.1/"
   xmlns:cc="http://creativecommons.org/ns#"
   xmlns:rdf="http://www.w3.org/1999/02/22-rdf-syntax-ns#"
   xmlns:svg="http://www.w3.org/2000/svg"
   xmlns="http://www.w3.org/2000/svg"
   xmlns:sodipodi="http://sodipodi.sourceforge.net/DTD/sodipodi-0.dtd"
   xmlns:inkscape="http://www.inkscape.org/namespaces/inkscape"
   viewBox="0 0 48 48"
   width="48px"
   height="48px"
   version="1.1"
   id="svg8"
   sodipodi:docname="icons8-restart.svg"
   inkscape:version="0.92.3 (2405546, 2018-03-11)">
  <metadata
     id="metadata14">
    <rdf:RDF>
      <cc:Work
         rdf:about="">
        <dc:format>image/svg+xml</dc:format>
        <dc:type
           rdf:resource="http://purl.org/dc/dcmitype/StillImage" />
      </cc:Work>
    </rdf:RDF>
  </metadata>
  <defs
     id="defs12" />
  <sodipodi:namedview
     pagecolor="#ffffff"
     bordercolor="#666666"
     borderopacity="1"
     objecttolerance="10"
     gridtolerance="10"
     guidetolerance="10"
     inkscape:pageopacity="0"
     inkscape:pageshadow="2"
     inkscape:window-width="1324"
     inkscape:window-height="745"
     id="namedview10"
     showgrid="false"
     inkscape:zoom="4.9166667"
     inkscape:cx="2.6440678"
     inkscape:cy="24"
     inkscape:window-x="38"
     inkscape:window-y="0"
     inkscape:window-maximized="1"
     inkscape:current-layer="svg8" />
  <g
     id="g822">
    <path
       style="fill:#419236;fill-opacity:1"
       id="path2"
       d="M24 3A21 21 0 1 0 24 45A21 21 0 1 0 24 3Z"
       fill="#7cb342" />
  </g>
  <path
     fill="#dcedc8"
     d="M24,36.1c-6.6,0-12-5.4-12-12c0-3.6,1.6-7,4.4-9.3l2.5,3.1c-1.8,1.5-2.9,3.8-2.9,6.2c0,4.4,3.6,8,8,8 s8-3.6,8-8c0-2.1-0.8-4-2.2-5.5l2.9-2.7C34.8,18,36,21,36,24.1C36,30.7,30.6,36.1,24,36.1z"
     id="path4"
     style="fill:#383c4a;fill-opacity:0.87843138" />
  <path
     fill="#dcedc8"
     d="M12 13L21 13 21 22z"
     id="path6"
     style="fill:#383c4a;fill-opacity:1" />
</svg>
