<?xml version="1.0" encoding="UTF-8" standalone="no"?>
<!-- Generator: Adobe Illustrator 19.0.0, SVG Export Plug-In . SVG Version: 6.00 Build 0)  -->

<svg
   xmlns:dc="http://purl.org/dc/elements/1.1/"
   xmlns:cc="http://creativecommons.org/ns#"
   xmlns:rdf="http://www.w3.org/1999/02/22-rdf-syntax-ns#"
   xmlns:svg="http://www.w3.org/2000/svg"
   xmlns="http://www.w3.org/2000/svg"
   xmlns:sodipodi="http://sodipodi.sourceforge.net/DTD/sodipodi-0.dtd"
   xmlns:inkscape="http://www.inkscape.org/namespaces/inkscape"
   version="1.1"
   id="Capa_1"
   x="0px"
   y="0px"
   viewBox="0 0 507.496 507.496"
   style="enable-background:new 0 0 507.496 507.496;"
   xml:space="preserve"
   sodipodi:docname="preferences-desktop-default-applications.svg"
   inkscape:version="0.92.3 (2405546, 2018-03-11)"><metadata
   id="metadata77"><rdf:RDF><cc:Work
       rdf:about=""><dc:format>image/svg+xml</dc:format><dc:type
         rdf:resource="http://purl.org/dc/dcmitype/StillImage" /></cc:Work></rdf:RDF></metadata><defs
   id="defs75" /><sodipodi:namedview
   pagecolor="#ffffff"
   bordercolor="#666666"
   borderopacity="1"
   objecttolerance="10"
   gridtolerance="10"
   guidetolerance="10"
   inkscape:pageopacity="0"
   inkscape:pageshadow="2"
   inkscape:window-width="1324"
   inkscape:window-height="745"
   id="namedview73"
   showgrid="false"
   inkscape:zoom="0.46502829"
   inkscape:cx="27.955288"
   inkscape:cy="253.748"
   inkscape:window-x="38"
   inkscape:window-y="0"
   inkscape:window-maximized="1"
   inkscape:current-layer="Capa_1" />
<g
   id="g40"
   style="fill:#419236;fill-opacity:1">
	<g
   id="g8"
   style="fill:#419236;fill-opacity:1">
		<g
   id="g6"
   style="fill:#419236;fill-opacity:1">
			<path
   d="M254.88,262.344c8.671-12.813,14.798-27.503,17.753-43.228h43.551v-0.022V174.81h-43.551     c-3.02-15.833-9.103-30.458-17.774-43.249l30.695-30.717l-31.342-31.364l-30.738,30.717c-12.77-8.715-27.46-14.798-43.249-17.839     V38.849h-44.285v43.508c-15.79,3.085-30.458,9.124-43.206,17.839L61.994,69.479L30.609,100.8l30.738,30.76     c-8.671,12.791-14.776,27.395-17.796,43.249H0v44.306h43.551c3.063,15.725,9.146,30.415,17.796,43.228l-30.738,30.738     l31.385,31.321l30.695-30.76c12.791,8.671,27.46,14.841,43.249,17.861v43.551h44.328v-43.551     c15.747-3.041,30.458-9.189,43.249-17.817l30.738,30.717l31.342-31.321L254.88,262.344z M158.071,245.26     c-26.661,0-48.319-21.679-48.319-48.362c0-26.705,21.657-48.319,48.319-48.319c26.683,0,48.362,21.614,48.362,48.319     C206.432,223.581,184.754,245.26,158.071,245.26z"
   id="path2"
   style="fill:#419236;fill-opacity:1" />
			<path
   d="M507.496,365.28v-33.694h-33.09c-2.243-12.015-6.881-23.124-13.525-32.852l23.34-23.34l-23.836-23.836l-23.318,23.34     c-9.728-6.622-20.924-11.238-32.852-13.568v-33.111h-33.694v33.09c-12.015,2.351-23.145,6.946-32.831,13.568l-23.426-23.34     l-23.836,23.814l23.34,23.383c-6.622,9.728-11.238,20.924-13.568,32.874h-33.068v33.694h33.068     c2.308,11.95,6.946,23.167,13.568,32.852l-23.34,23.34l23.836,23.814l23.34-23.383c9.685,6.665,20.88,11.282,32.831,13.611     v33.111h33.694v-33.111c11.993-2.287,23.124-6.946,32.831-13.525l23.34,23.296l23.814-23.814l-23.34-23.34     c6.665-9.685,11.238-20.967,13.525-32.852L507.496,365.28L507.496,365.28z M387.303,385.189     c-20.255,0-36.757-16.48-36.757-36.778c0-20.277,16.502-36.735,36.757-36.735c20.298,0,36.757,16.458,36.757,36.735     C424.06,368.731,407.602,385.189,387.303,385.189z"
   id="path4"
   style="fill:#419236;fill-opacity:1" />
		</g>
	</g>
	<g
   id="g10"
   style="fill:#419236;fill-opacity:1">
	</g>
	<g
   id="g12"
   style="fill:#419236;fill-opacity:1">
	</g>
	<g
   id="g14"
   style="fill:#419236;fill-opacity:1">
	</g>
	<g
   id="g16"
   style="fill:#419236;fill-opacity:1">
	</g>
	<g
   id="g18"
   style="fill:#419236;fill-opacity:1">
	</g>
	<g
   id="g20"
   style="fill:#419236;fill-opacity:1">
	</g>
	<g
   id="g22"
   style="fill:#419236;fill-opacity:1">
	</g>
	<g
   id="g24"
   style="fill:#419236;fill-opacity:1">
	</g>
	<g
   id="g26"
   style="fill:#419236;fill-opacity:1">
	</g>
	<g
   id="g28"
   style="fill:#419236;fill-opacity:1">
	</g>
	<g
   id="g30"
   style="fill:#419236;fill-opacity:1">
	</g>
	<g
   id="g32"
   style="fill:#419236;fill-opacity:1">
	</g>
	<g
   id="g34"
   style="fill:#419236;fill-opacity:1">
	</g>
	<g
   id="g36"
   style="fill:#419236;fill-opacity:1">
	</g>
	<g
   id="g38"
   style="fill:#419236;fill-opacity:1">
	</g>
</g>
<g
   id="g42">
</g>
<g
   id="g44">
</g>
<g
   id="g46">
</g>
<g
   id="g48">
</g>
<g
   id="g50">
</g>
<g
   id="g52">
</g>
<g
   id="g54">
</g>
<g
   id="g56">
</g>
<g
   id="g58">
</g>
<g
   id="g60">
</g>
<g
   id="g62">
</g>
<g
   id="g64">
</g>
<g
   id="g66">
</g>
<g
   id="g68">
</g>
<g
   id="g70">
</g>
</svg>