<?xml version="1.0" encoding="UTF-8" standalone="no"?>
<svg
   xmlns:dc="http://purl.org/dc/elements/1.1/"
   xmlns:cc="http://creativecommons.org/ns#"
   xmlns:rdf="http://www.w3.org/1999/02/22-rdf-syntax-ns#"
   xmlns:svg="http://www.w3.org/2000/svg"
   xmlns="http://www.w3.org/2000/svg"
   xmlns:sodipodi="http://sodipodi.sourceforge.net/DTD/sodipodi-0.dtd"
   xmlns:inkscape="http://www.inkscape.org/namespaces/inkscape"
   fill="#000000"
   viewBox="0 0 26 26"
   width="52px"
   height="52px"
   version="1.1"
   id="svg4"
   sodipodi:docname="icons8-padlock_unlock.svg"
   inkscape:version="0.92.3 (2405546, 2018-03-11)">
  <metadata
     id="metadata10">
    <rdf:RDF>
      <cc:Work
         rdf:about="">
        <dc:format>image/svg+xml</dc:format>
        <dc:type
           rdf:resource="http://purl.org/dc/dcmitype/StillImage" />
      </cc:Work>
    </rdf:RDF>
  </metadata>
  <defs
     id="defs8" />
  <sodipodi:namedview
     pagecolor="#ffffff"
     bordercolor="#666666"
     borderopacity="1"
     objecttolerance="10"
     gridtolerance="10"
     guidetolerance="10"
     inkscape:pageopacity="0"
     inkscape:pageshadow="2"
     inkscape:window-width="1324"
     inkscape:window-height="745"
     id="namedview6"
     showgrid="false"
     inkscape:zoom="4.5384615"
     inkscape:cx="2.8644068"
     inkscape:cy="26"
     inkscape:window-x="38"
     inkscape:window-y="0"
     inkscape:window-maximized="1"
     inkscape:current-layer="svg4" />
  <path
     d="M 7 0 C 4.789063 0 2.878906 0.917969 1.6875 2.40625 C 0.496094 3.894531 0 5.824219 0 7.90625 L 0 11 L 3 11 L 3 7.90625 C 3 6.328125 3.390625 5.085938 4.03125 4.28125 C 4.671875 3.476563 5.542969 3 7 3 C 8.460938 3 9.328125 3.449219 9.96875 4.25 C 10.609375 5.050781 11 6.308594 11 7.90625 L 11 9 L 14 9 L 14 7.90625 C 14 5.8125 13.472656 3.863281 12.28125 2.375 C 11.089844 0.886719 9.207031 0 7 0 Z M 9 10 C 7.34375 10 6 11.34375 6 13 L 6 23 C 6 24.65625 7.34375 26 9 26 L 23 26 C 24.65625 26 26 24.65625 26 23 L 26 13 C 26 11.34375 24.65625 10 23 10 Z M 16 15 C 17.105469 15 18 15.894531 18 17 C 18 17.738281 17.597656 18.371094 17 18.71875 L 17 21 C 17 21.550781 16.550781 22 16 22 C 15.449219 22 15 21.550781 15 21 L 15 18.71875 C 14.402344 18.371094 14 17.738281 14 17 C 14 15.894531 14.894531 15 16 15 Z"
     id="path2"
     style="fill:#419236;fill-opacity:1" />
</svg>
