<?xml version="1.0" encoding="UTF-8" standalone="no"?>
<svg
   xmlns:dc="http://purl.org/dc/elements/1.1/"
   xmlns:cc="http://creativecommons.org/ns#"
   xmlns:rdf="http://www.w3.org/1999/02/22-rdf-syntax-ns#"
   xmlns:svg="http://www.w3.org/2000/svg"
   xmlns="http://www.w3.org/2000/svg"
   xmlns:sodipodi="http://sodipodi.sourceforge.net/DTD/sodipodi-0.dtd"
   xmlns:inkscape="http://www.inkscape.org/namespaces/inkscape"
   fill="#419236"
   height="48"
   viewBox="0 0 48 48"
   width="48"
   version="1.1"
   id="svg4"
   sodipodi:docname="preferences-behavior.svg"
   inkscape:version="0.92.3 (2405546, 2018-03-11)">
  <metadata
     id="metadata10">
    <rdf:RDF>
      <cc:Work
         rdf:about="">
        <dc:format>image/svg+xml</dc:format>
        <dc:type
           rdf:resource="http://purl.org/dc/dcmitype/StillImage" />
        <dc:title></dc:title>
      </cc:Work>
    </rdf:RDF>
  </metadata>
  <defs
     id="defs8" />
  <sodipodi:namedview
     pagecolor="#ffffff"
     bordercolor="#666666"
     borderopacity="1"
     objecttolerance="10"
     gridtolerance="10"
     guidetolerance="10"
     inkscape:pageopacity="0"
     inkscape:pageshadow="2"
     inkscape:window-width="1324"
     inkscape:window-height="745"
     id="namedview6"
     showgrid="false"
     inkscape:zoom="4.9166667"
     inkscape:cx="2.6440678"
     inkscape:cy="24"
     inkscape:window-x="38"
     inkscape:window-y="0"
     inkscape:window-maximized="1"
     inkscape:current-layer="svg4" />
  <path
     d="M 36.59322,1.8305084 H 4.5932202 c -2.21,0 -3.98,1.79 -3.98,4.0000003 l -0.02,20.0000003 c 0,2.21 1.79,4 4,4 H 36.59322 c 2.21,0 4,-1.79 4,-4 V 5.8305087 c 0,-2.2100003 -1.79,-4.0000003 -4,-4.0000003 z m -18,6.0000003 h 4 v 4.0000003 h -4 z m 0,6.0000003 h 4 v 4 h -4 z m -6,-6.0000003 h 4 v 4.0000003 h -4 z m 0,6.0000003 h 4 v 4 h -4 z m -2,4 H 6.5932202 v -4 H 10.59322 Z m 0,-6 H 6.5932202 V 7.8305087 H 10.59322 Z m 18,14 h -16 v -4 h 16 z m 0,-8 h -4 v -4 h 4 z m 0,-6 h -4 V 7.8305087 h 4 z m 6,6 h -4 v -4 h 4 z m 0,-6 h -4 V 7.8305087 h 4 z"
     id="path2"
     inkscape:connector-curvature="0" />
  <path
     inkscape:connector-curvature="0"
     d="m 39.559322,22.305085 v 9.020147 h 8.127119 c 0,-4.640882 -3.546907,-8.462786 -8.127119,-9.020147 z M 29.110169,38.15006 c 0,5.027623 4.156441,9.099771 9.288136,9.099771 5.131696,0 9.288136,-4.072148 9.288136,-9.099771 V 33.600175 H 29.110169 Z m 8.127119,-15.844975 c -4.580212,0.557361 -8.127119,4.379265 -8.127119,9.020147 h 8.127119 z"
     id="path2-3"
     style="stroke-width:0.57459193" />
</svg>
