<?xml version="1.0" encoding="UTF-8"?>
<svg enable-background="new 0 0 425.977 425.977" version="1.1" viewBox="0 0 425.98 425.98" xml:space="preserve" xmlns="http://www.w3.org/2000/svg" xmlns:cc="http://creativecommons.org/ns#" xmlns:dc="http://purl.org/dc/elements/1.1/" xmlns:rdf="http://www.w3.org/1999/02/22-rdf-syntax-ns#"><metadata><rdf:RDF><cc:Work rdf:about=""><dc:format>image/svg+xml</dc:format><dc:type rdf:resource="http://purl.org/dc/dcmitype/StillImage"/></cc:Work></rdf:RDF></metadata>
<g fill="#419236">
	<path d="m217.04 202.32c-21.736 21.738-21.736 57.11 0 78.848 21.74 21.738 57.111 21.738 78.85 0 21.738-21.738 21.738-57.11 0-78.848s-57.11-21.738-78.85 0z"/>
	<path d="m412.33 331.26-44.018-44.018 21.42-144.57c1.072-7.238-1.061-14.585-5.84-20.126-4.478-5.191-10.869-8.314-17.674-8.686v-52.471c0-25.563-20.799-46.36-46.361-46.36h-75.279c-25.051 0-38.35 10.578-48.063 18.303-7.807 6.208-12.518 9.956-22.625 9.956h-108.79c-22.781 0-41.314 18.062-41.314 40.263v30.311c-6.807 0.372-13.195 3.495-17.674 8.686-4.779 5.541-6.912 12.888-5.84 20.125l30.195 203.8c1.826 12.338 12.416 21.475 24.889 21.475h261.63l29.326 29.326c8.816 8.818 20.539 13.674 33.01 13.674 12.469 0 24.191-4.856 33.008-13.673 18.201-18.203 18.201-47.818-1e-3 -66.02zm-358.25-217.43v-30.273c0-6.239 5.602-9.967 11.02-9.967h108.79c20.688 0 32.219-9.172 41.484-16.542 8.551-6.802 14.732-11.716 29.203-11.716h75.279c8.857 0 16.066 7.206 16.066 16.065v52.434h-281.84zm340.24 265.78c-8.467 8.468-22.195 8.468-30.662 0l-55.984-55.985c-4.145-4.145-6.256-9.549-6.344-14.98-31.293 21.003-74.172 17.693-101.8-9.94-31.402-31.4-31.402-82.491 0-113.89 31.398-31.4 82.49-31.4 113.89 0 27.633 27.633 30.943 70.514 9.939 101.81 5.432 0.088 10.836 2.198 14.98 6.342l55.984 55.985c8.467 8.467 8.467 22.196 1e-3 30.663z"/>
</g>















</svg>
