<?xml version="1.0" encoding="UTF-8" standalone="no"?>
<!-- Generator: Adobe Illustrator 19.0.0, SVG Export Plug-In . SVG Version: 6.00 Build 0)  -->

<svg
   xmlns:dc="http://purl.org/dc/elements/1.1/"
   xmlns:cc="http://creativecommons.org/ns#"
   xmlns:rdf="http://www.w3.org/1999/02/22-rdf-syntax-ns#"
   xmlns:svg="http://www.w3.org/2000/svg"
   xmlns="http://www.w3.org/2000/svg"
   xmlns:sodipodi="http://sodipodi.sourceforge.net/DTD/sodipodi-0.dtd"
   xmlns:inkscape="http://www.inkscape.org/namespaces/inkscape"
   version="1.1"
   id="Capa_1"
   x="0px"
   y="0px"
   viewBox="0 0 495.61 495.61"
   style="enable-background:new 0 0 495.61 495.61;"
   xml:space="preserve"
   sodipodi:docname="preferences-applications.svg"
   inkscape:version="0.92.3 (2405546, 2018-03-11)"><metadata
   id="metadata83"><rdf:RDF><cc:Work
       rdf:about=""><dc:format>image/svg+xml</dc:format><dc:type
         rdf:resource="http://purl.org/dc/dcmitype/StillImage" /></cc:Work></rdf:RDF></metadata><defs
   id="defs81" /><sodipodi:namedview
   pagecolor="#ffffff"
   bordercolor="#666666"
   borderopacity="1"
   objecttolerance="10"
   gridtolerance="10"
   guidetolerance="10"
   inkscape:pageopacity="0"
   inkscape:pageshadow="2"
   inkscape:window-width="1324"
   inkscape:window-height="745"
   id="namedview79"
   showgrid="false"
   inkscape:zoom="0.47618088"
   inkscape:cx="-9.4501906"
   inkscape:cy="281.30067"
   inkscape:window-x="38"
   inkscape:window-y="0"
   inkscape:window-maximized="1"
   inkscape:current-layer="Capa_1" />
<g
   id="g46"
   style="fill:#419236;fill-opacity:1"
   transform="matrix(0.89828747,0,0,0.9279661,25.204881,21.000424)">
	<g
   id="g14"
   style="fill:#419236;fill-opacity:1">
		<g
   id="g12"
   style="fill:#419236;fill-opacity:1">
			<path
   d="M 441.899,0 H 53.754 C 24.224,0 0.043,24.202 0.043,53.754 v 388.102 c 0,29.574 24.181,53.754 53.711,53.754 h 388.102 c 29.574,0 53.711,-24.224 53.711,-53.754 V 53.754 C 495.632,24.202 471.429,0 441.899,0 Z m -13.978,44.414 c 13.978,0 25.367,11.346 25.367,25.367 0,14.021 -11.325,25.367 -25.367,25.367 -14.043,0 -25.367,-11.346 -25.367,-25.367 0,-14.021 11.368,-25.367 25.367,-25.367 z m -79.143,-0.021 c 13.999,0 25.389,11.346 25.389,25.389 0,14.043 -11.368,25.388 -25.389,25.388 -14.021,0 -25.389,-11.346 -25.389,-25.389 0,-14.043 11.389,-25.388 25.389,-25.388 z M 454.971,449.514 H 40.747 V 131.56 h 414.224 z"
   id="path2"
   style="fill:#419236;fill-opacity:1"
   inkscape:connector-curvature="0" />
			<rect
   x="128.13"
   y="317.047"
   width="79.228996"
   height="79.208"
   id="rect4"
   style="fill:#419236;fill-opacity:1" />
			<rect
   x="291.55099"
   y="317.047"
   width="79.250999"
   height="79.208"
   id="rect6"
   style="fill:#419236;fill-opacity:1" />
			<rect
   x="128.13"
   y="188.291"
   width="79.228996"
   height="79.185997"
   id="rect8"
   style="fill:#419236;fill-opacity:1" />
			<rect
   x="291.55099"
   y="188.291"
   width="79.250999"
   height="79.185997"
   id="rect10"
   style="fill:#419236;fill-opacity:1" />
		</g>
	</g>
	<g
   id="g16"
   style="fill:#419236;fill-opacity:1">
	</g>
	<g
   id="g18"
   style="fill:#419236;fill-opacity:1">
	</g>
	<g
   id="g20"
   style="fill:#419236;fill-opacity:1">
	</g>
	<g
   id="g22"
   style="fill:#419236;fill-opacity:1">
	</g>
	<g
   id="g24"
   style="fill:#419236;fill-opacity:1">
	</g>
	<g
   id="g26"
   style="fill:#419236;fill-opacity:1">
	</g>
	<g
   id="g28"
   style="fill:#419236;fill-opacity:1">
	</g>
	<g
   id="g30"
   style="fill:#419236;fill-opacity:1">
	</g>
	<g
   id="g32"
   style="fill:#419236;fill-opacity:1">
	</g>
	<g
   id="g34"
   style="fill:#419236;fill-opacity:1">
	</g>
	<g
   id="g36"
   style="fill:#419236;fill-opacity:1">
	</g>
	<g
   id="g38"
   style="fill:#419236;fill-opacity:1">
	</g>
	<g
   id="g40"
   style="fill:#419236;fill-opacity:1">
	</g>
	<g
   id="g42"
   style="fill:#419236;fill-opacity:1">
	</g>
	<g
   id="g44"
   style="fill:#419236;fill-opacity:1">
	</g>
</g>
<g
   id="g48">
</g>
<g
   id="g50">
</g>
<g
   id="g52">
</g>
<g
   id="g54">
</g>
<g
   id="g56">
</g>
<g
   id="g58">
</g>
<g
   id="g60">
</g>
<g
   id="g62">
</g>
<g
   id="g64">
</g>
<g
   id="g66">
</g>
<g
   id="g68">
</g>
<g
   id="g70">
</g>
<g
   id="g72">
</g>
<g
   id="g74">
</g>
<g
   id="g76">
</g>
</svg>