<?xml version="1.0" encoding="UTF-8" standalone="no"?>
<svg
   xmlns:dc="http://purl.org/dc/elements/1.1/"
   xmlns:cc="http://creativecommons.org/ns#"
   xmlns:rdf="http://www.w3.org/1999/02/22-rdf-syntax-ns#"
   xmlns:svg="http://www.w3.org/2000/svg"
   xmlns="http://www.w3.org/2000/svg"
   xmlns:sodipodi="http://sodipodi.sourceforge.net/DTD/sodipodi-0.dtd"
   xmlns:inkscape="http://www.inkscape.org/namespaces/inkscape"
   fill="#419236"
   height="48"
   version="1.1"
   viewBox="0 0 48 48"
   width="48"
   id="svg4"
   sodipodi:docname="preferences-desktop-mouse-wheel.svg"
   inkscape:export-filename="/home/stefan/Documents/mouse.png"
   inkscape:export-xdpi="128"
   inkscape:export-ydpi="128"
   inkscape:version="0.92.3 (2405546, 2018-03-11)">
  <metadata
     id="metadata10">
    <rdf:RDF>
      <cc:Work
         rdf:about="">
        <dc:format>image/svg+xml</dc:format>
        <dc:type
           rdf:resource="http://purl.org/dc/dcmitype/StillImage" />
        <dc:title />
      </cc:Work>
    </rdf:RDF>
  </metadata>
  <defs
     id="defs8" />
  <sodipodi:namedview
     pagecolor="#ffffff"
     bordercolor="#666666"
     borderopacity="1"
     objecttolerance="10"
     gridtolerance="10"
     guidetolerance="10"
     inkscape:pageopacity="0"
     inkscape:pageshadow="2"
     inkscape:window-width="1328"
     inkscape:window-height="737"
     id="namedview6"
     showgrid="false"
     inkscape:zoom="4.9166667"
     inkscape:cx="-17.084746"
     inkscape:cy="24"
     inkscape:window-x="38"
     inkscape:window-y="0"
     inkscape:window-maximized="1"
     inkscape:current-layer="svg4" />
  <path
     d="M 22 2.0703125 C 14.11 3.0503125 8 9.7696875 8 17.929688 L 22 17.929688 L 22 14.830078 A 4.8813558 4.9830508 0 0 1 19.083984 10.271484 A 4.8813558 4.9830508 0 0 1 22 5.7167969 L 22 2.0703125 z M 22 5.7167969 L 22 14.830078 A 4.8813558 4.9830508 0 0 0 23.966797 15.253906 A 4.8813558 4.9830508 0 0 0 26 14.794922 L 26 5.7480469 A 4.8813558 4.9830508 0 0 0 23.966797 5.2890625 A 4.8813558 4.9830508 0 0 0 22 5.7167969 z M 26 5.7480469 A 4.8813558 4.9830508 0 0 1 28.847656 10.271484 A 4.8813558 4.9830508 0 0 1 26 14.794922 L 26 17.929688 L 40 17.929688 C 40 9.7696875 33.89 3.0503125 26 2.0703125 L 26 5.7480469 z M 8 21.929688 L 8 29.929688 C 8 38.769688 15.16 45.929688 24 45.929688 C 32.84 45.929688 40 38.769688 40 29.929688 L 40 21.929688 L 8 21.929688 z "
     id="path2" />
</svg>
