<?xml version="1.0" encoding="UTF-8" standalone="no"?>
<svg
   xmlns:dc="http://purl.org/dc/elements/1.1/"
   xmlns:cc="http://creativecommons.org/ns#"
   xmlns:rdf="http://www.w3.org/1999/02/22-rdf-syntax-ns#"
   xmlns:svg="http://www.w3.org/2000/svg"
   xmlns="http://www.w3.org/2000/svg"
   xmlns:sodipodi="http://sodipodi.sourceforge.net/DTD/sodipodi-0.dtd"
   xmlns:inkscape="http://www.inkscape.org/namespaces/inkscape"
   viewBox="0 0 380.999993 500"
   version="1.1"
   id="svg12"
   sodipodi:docname="qt4-logo.svg"
   inkscape:version="0.92.3 (2405546, 2018-03-11)">
  <metadata
     id="metadata18">
    <rdf:RDF>
      <cc:Work
         rdf:about="">
        <dc:format>image/svg+xml</dc:format>
        <dc:type
           rdf:resource="http://purl.org/dc/dcmitype/StillImage" />
      </cc:Work>
    </rdf:RDF>
  </metadata>
  <defs
     id="defs16" />
  <sodipodi:namedview
     pagecolor="#ffffff"
     bordercolor="#666666"
     borderopacity="1"
     objecttolerance="10"
     gridtolerance="10"
     guidetolerance="10"
     inkscape:pageopacity="0"
     inkscape:pageshadow="2"
     inkscape:window-width="1328"
     inkscape:window-height="737"
     id="namedview14"
     showgrid="false"
     inkscape:zoom="0.472"
     inkscape:cx="-467.33898"
     inkscape:cy="250"
     inkscape:window-x="38"
     inkscape:window-y="0"
     inkscape:window-maximized="1"
     inkscape:current-layer="svg12" />
  <path
     style="fill:#419236;fill-opacity:1"
     d="M 57.414062 -0.01171875 L 57.419922 0 C 55.380922 0 53.358375 0.112125 51.359375 0.328125 C 49.383375 0.513125 47.538844 0.81646875 45.714844 1.2304688 C 41.801844 2.0624687 38.01225 3.3078281 34.40625 4.9238281 C 33.73325 5.2258281 33.068203 5.5401875 32.408203 5.8671875 C 32.366203 5.8881875 32.32325 5.9067344 32.28125 5.9277344 C 31.73225 6.1837344 31.200078 6.4420781 30.705078 6.7050781 C 30.067078 7.0440781 29.408281 7.4422344 28.738281 7.8652344 C 28.640281 7.9232344 28.541359 7.9839688 28.443359 8.0429688 C 28.321359 8.1169687 28.197172 8.1867187 28.076172 8.2617188 C 20.121172 13.123719 13.396781 19.951719 8.6757812 28.261719 C 8.4407813 28.665719 8.2162812 29.078234 7.9882812 29.490234 C 7.7272812 29.963234 7.46775 30.435969 7.21875 30.917969 C 6.72075 31.832969 6.2515938 32.765797 5.8085938 33.716797 C 4.4115937 36.296797 3.3509219 38.132156 2.5449219 41.910156 L 0.53320312 47.498047 L 0.51367188 64.347656 C 0.33167187 73.340656 0.21648438 86.912187 0.14648438 108.36719 L 0.14648438 108.49609 C -0.024515625 142.87709 0.032203125 194.81656 0.033203125 274.72656 L 0.033203125 275.71094 L 0.033203125 278.06836 L 0.033203125 473.38867 L 0.00390625 500.16406 L 0.0078125 500.16406 L 0.0078125 500.22852 L 1.2304688 499.99805 L 1.2324219 500.00195 C 1.2334219 500.00195 1.2822031 499.99219 1.2832031 499.99219 C 1.2842031 499.99219 1.2841562 499.99609 1.2851562 499.99609 C 1.2971563 499.99609 1.5424062 499.95708 1.5664062 499.95508 C 1.6044063 499.98008 1.6426406 500.00195 1.6816406 500.00195 C 3.0386406 500.00195 226.31109 462.60039 320.12109 446.65039 C 330.07209 444.95939 336.96016 443.70648 342.16016 442.39648 C 344.05716 441.98948 345.4112 441.66689 346.0332 441.46289 C 346.3482 441.35989 346.70389 441.22159 347.08789 441.05859 C 347.10989 441.05059 347.17241 441.0363 347.19141 441.0293 C 347.83141 440.7863 348.46666 440.51547 349.09766 440.23047 C 353.32766 438.53847 356.2512 436.43242 359.6582 433.23242 C 360.7102 432.29142 361.73052 431.27966 362.72852 430.22266 C 369.43552 423.40266 375.32753 413.03144 378.39453 402.77344 C 378.48553 402.51244 378.58973 402.25709 378.67773 401.99609 C 378.79873 401.63909 378.90767 401.25612 379.01367 400.82812 L 380.5332 396.49609 L 380.55469 383.52539 C 380.71569 377.14039 380.81962 367.38552 380.89062 353.72852 C 380.89862 352.22352 380.91097 351.32698 380.91797 349.70898 C 380.91797 349.63298 380.91992 349.59553 380.91992 349.51953 L 380.91992 349.50586 C 380.93892 345.07186 380.94794 338.89973 380.96094 333.55273 C 380.97694 329.52273 380.98414 324.54248 380.99414 320.02148 C 380.99514 319.65148 380.99509 319.43355 380.99609 319.06055 C 380.99709 318.64655 380.99509 317.794 380.99609 317.375 L 380.99609 316.5625 C 381.04209 292.5125 381.0342 262.62356 381.0332 222.35156 L 381.0332 221.91016 L 381.0332 221.85156 L 381.0332 220.5332 L 381.0332 219.10938 L 381.0332 73.960938 L 381.07031 52.439453 L 381.06641 52.439453 L 381.06641 52.179688 L 381.06641 52.160156 L 381.0332 52.152344 L 381.0332 52.03125 L 378.7832 51.511719 C 376.7942 51.051719 272.74344 33.951172 116.77344 8.4511719 C 106.42644 6.7591719 97.300594 5.3186094 89.308594 4.0996094 C 87.781594 3.8516094 83.493047 3.1482656 82.248047 2.9472656 C 73.846047 1.5872656 67.472859 0.73760938 62.255859 0.34960938 C 62.220859 0.34560937 62.017234 0.3145 61.990234 0.3125 C 61.712234 0.2885 61.43425 0.27390625 61.15625 0.25390625 C 60.47925 0.18890625 59.772188 0.11517187 59.242188 0.076171875 C 59.125188 0.065171875 59.078609 0.066640625 58.974609 0.056640625 C 58.785609 0.043640625 58.582062 0.02853125 58.414062 0.01953125 C 58.267063 0.01153125 58.026688 -0.01171875 57.929688 -0.01171875 C 57.833688 -0.01171875 57.738578 -0.006859375 57.642578 -0.005859375 C 57.630578 -0.005859375 57.584219 -0.01171875 57.574219 -0.01171875 C 57.544219 -0.01171875 57.512422 -0.009765625 57.482422 -0.009765625 C 57.463422 -0.009765625 57.432063 -0.01171875 57.414062 -0.01171875 z M 147.53711 93.558594 L 147.5293 93.560547 C 150.8113 93.554547 153.49073 93.570047 155.80273 93.623047 C 157.83473 93.783047 159.8495 93.969938 161.8125 94.210938 C 182.5555 97.326937 198.89258 105.69195 211.14258 119.50195 C 227.12658 137.52195 236.93016 166.89055 239.91016 204.81055 C 240.06016 207.84455 240.18611 211.0778 240.28711 214.4668 C 240.57711 226.4448 240.57453 240.5968 240.26953 252.4668 C 238.61453 283.3578 233.85862 307.59617 225.76562 326.07617 C 224.72362 328.39317 223.63852 330.6607 222.47852 332.8457 C 220.40452 336.7517 218.21095 340.32261 215.87695 343.59961 C 209.26295 352.48461 198.44072 361.73805 189.38672 366.12305 C 188.48272 366.56005 187.74367 366.91453 187.01367 367.26953 L 183.74219 368.79492 L 181.85352 369.49219 L 181.88086 369.66016 L 181.21484 369.97266 L 181.24414 370.08594 L 181.23633 370.08984 L 181.66211 371.70703 C 181.45111 373.44103 182.49402 375.99691 184.29102 380.87891 C 185.13302 383.16691 186.10294 385.14891 187.21094 386.87891 C 187.24094 386.92591 187.27273 386.97058 187.30273 387.01758 C 187.60173 387.47658 187.91142 387.91689 188.23242 388.33789 C 188.35142 388.49589 188.47175 388.65364 188.59375 388.80664 C 188.82175 389.08864 189.05787 389.35709 189.29688 389.62109 C 189.43287 389.77309 189.56022 389.94189 189.69922 390.08789 C 189.70422 390.09389 189.70789 390.09752 189.71289 390.10352 C 189.89189 390.33152 190.06738 390.53684 190.23438 390.71484 C 191.13837 391.67684 192.19233 392.44931 193.48633 393.07031 C 195.07433 393.99231 196.85803 394.66367 198.83203 395.13867 C 198.84603 395.14167 198.861 395.14444 198.875 395.14844 C 199.436 395.28244 200.01437 395.40291 200.60938 395.50391 C 200.70237 395.51991 200.79858 395.53383 200.89258 395.54883 C 201.41758 395.63183 201.95095 395.70763 202.50195 395.76562 C 202.76295 395.79363 203.03378 395.81294 203.30078 395.83594 C 203.71978 395.87094 204.13531 395.90964 204.57031 395.93164 C 205.34731 395.97264 206.14466 395.99609 206.97266 395.99609 L 208.21484 395.99609 L 212.02539 396.2832 L 212.02539 399.25781 L 211.80664 411.39453 L 211.57617 424.08203 C 211.56017 424.13003 211.54825 424.18447 211.53125 424.23047 C 211.20725 425.12447 210.70302 425.73302 209.91602 426.16602 C 209.89502 426.17702 209.87256 426.18822 209.85156 426.19922 C 209.78656 426.23422 209.71353 426.26388 209.64453 426.29688 L 208.78125 426.43945 C 206.99325 426.73245 202.01289 427.42738 197.71289 427.98438 C 196.33089 428.16337 194.99464 428.30478 193.68164 428.42578 C 191.97464 428.56178 190.31266 428.66961 188.72266 428.72461 C 188.55666 428.72861 188.39061 428.73333 188.22461 428.73633 C 187.61361 428.75433 187.01492 428.76258 186.41992 428.76758 C 185.57592 428.77258 184.76131 428.76295 183.94531 428.75195 C 183.54831 428.74395 183.139 428.74447 182.75 428.73047 C 182.344 428.71547 181.95659 428.68506 181.55859 428.66406 C 173.90259 428.15306 167.30348 426.2607 160.89648 422.8457 C 150.22048 417.1557 141.66725 403.32895 136.40625 383.25195 L 134.49414 375.95117 L 133.98047 373.49805 L 133.83984 373.45508 L 133.82227 373.39258 L 126.55664 371.13672 C 122.43764 369.85772 118.53508 368.20712 114.83008 366.20312 C 105.48508 361.01812 97.2685 353.36648 90.4375 343.52148 C 90.4235 343.50148 90.410484 343.48289 90.396484 343.46289 C 90.234484 343.22889 90.077969 342.987 89.917969 342.75 C 80.022969 327.804 73.113766 307.54033 69.134766 281.86133 C 67.911766 273.61833 66.987094 264.94531 66.371094 256.07031 C 65.455094 238.24031 65.718625 210.85023 67.015625 195.49023 C 67.197625 193.59023 67.395375 191.71066 67.609375 189.84766 C 73.056375 145.93566 87.281687 116.7468 109.92969 102.7168 C 110.76869 102.1968 111.62237 101.70652 112.48438 101.22852 C 112.88338 101.00852 113.28155 100.78522 113.68555 100.57422 C 114.04955 100.38322 114.41716 100.19867 114.78516 100.01367 C 115.53116 99.641672 116.28192 99.275641 117.04492 98.931641 L 117.05664 98.925781 C 117.30464 98.813781 117.55859 98.710562 117.80859 98.601562 C 118.39859 98.344562 118.9957 98.097422 119.5957 97.857422 C 120.1297 97.644422 120.66698 97.437281 121.20898 97.238281 C 126.08298 95.541281 131.38945 94.36975 136.93945 93.71875 C 139.61445 93.60575 142.90011 93.567594 147.53711 93.558594 z M 280.04883 110.33984 L 280.05078 110.33984 C 282.23278 110.50684 286.54884 110.93595 291.58984 111.50195 C 297.34084 112.14795 301.63914 112.61064 303.61914 112.80664 L 305.3125 113.02539 C 305.3985 113.13639 305.48259 113.73212 305.55859 114.70312 L 305.80078 136.61719 L 305.80078 136.62695 L 306.03125 157.72656 L 306.03125 157.72852 L 306.03125 160.73828 L 306.03125 160.74023 L 306.03125 160.76172 L 306.03125 160.77539 L 309.28125 161.32812 C 311.06925 161.63213 317.37125 162.18659 323.28125 162.55859 L 332.08008 163.11328 L 334.03125 163.25586 L 334.03125 178.02344 L 334.03125 178.11328 C 334.03025 191.55428 333.88025 192.7828 332.28125 192.4668 C 331.31925 192.2768 325.01925 191.89037 318.28125 191.60938 L 306.85156 191.13281 L 306.03125 191.07227 L 306.03125 191.0957 L 306.03125 191.12305 L 306.03125 191.68555 L 306.03125 191.6875 L 306.03125 191.69336 L 306.03125 191.70703 L 306.03125 191.72852 L 306.03125 191.87695 L 306.03125 191.92969 L 306.03125 191.99023 L 306.03125 192.05664 L 305.92188 192.05078 L 306.03125 214.68164 L 306.03125 250.30078 L 306.03125 252.82227 L 306.03125 253.07812 C 306.03125 276.71112 306.02658 291.91614 306.26758 301.99414 C 306.39458 308.28814 306.58309 312.18044 306.87109 314.52344 C 306.89309 314.78544 306.91745 314.94861 306.93945 315.09961 C 307.05845 316.48761 307.18694 317.55809 307.33594 317.99609 C 307.49094 318.45009 307.67409 318.86381 307.87109 319.25781 C 308.76909 321.89681 310.1038 322.49934 312.0918 323.52734 C 312.2668 323.61734 312.45744 323.69539 312.64844 323.77539 C 314.52444 324.80039 315.70295 325.07323 318.50195 324.74023 C 318.85795 324.71023 319.2413 324.66928 319.6543 324.61328 C 323.2073 324.39728 327.35725 323.47953 331.53125 321.89453 C 334.28125 320.85053 336.88059 319.99609 337.30859 319.99609 C 337.71959 319.99609 337.93441 325.51786 337.81641 332.38086 L 337.80859 332.76758 L 337.58789 343.73438 L 337.54688 345.64844 C 337.48588 345.91644 337.4217 346.16828 337.3457 346.36328 L 335.13086 347.31641 L 330.20312 349.19531 C 326.17313 350.73231 318.45097 352.89214 313.04297 353.99414 C 310.74697 354.46214 308.57489 354.81823 306.46289 355.11523 C 305.92189 355.17923 305.38075 355.24287 304.84375 355.29688 C 304.04575 355.36187 303.24794 355.41875 302.46094 355.46875 C 301.63394 355.52075 300.8203 355.5637 300.0293 355.5957 C 298.4753 355.6587 297.0193 355.69327 295.6543 355.69727 C 290.9773 355.61627 286.86578 355.11534 284.17578 354.15234 C 283.25778 353.82334 282.38416 353.46103 281.53516 353.08203 C 279.08316 351.98403 276.90184 350.66889 274.96484 349.08789 C 272.01084 346.54289 269.56183 343.27505 267.54883 339.24805 C 264.91083 333.97005 263.53717 330.65327 262.82617 319.94727 C 262.50917 312.58627 262.35292 297.49453 262.16992 274.26953 L 262.05078 258.49805 L 262.04883 258.16211 C 262.04883 256.92111 262.04492 256.03405 262.04492 254.74805 L 262.04492 253.44141 C 262.04592 239.85041 262.05616 229.43189 262.03516 220.96289 L 262.02734 188.99805 L 258.75391 188.99805 C 257.59791 188.62105 256.04331 188.99805 253.94531 188.99805 L 251.31836 188.99805 L 249.31836 188.77148 C 249.24836 188.68848 249.17919 188.60281 249.11719 188.50781 L 249.0293 183.78906 L 249.0293 173.12109 L 249.0293 172.91211 L 249.0293 172.89062 L 249.0293 172.87305 L 249.0293 172.86719 L 249.0293 172.85156 L 249.0293 172.39844 C 249.0293 163.31844 249.18005 158.9373 249.62305 157.2793 L 257.94531 157.75391 L 266.50195 158.24219 L 266.87891 158.27148 L 267.35156 156.49219 L 267.79688 154.87891 C 268.31088 153.01791 270.89211 142.27109 273.53711 130.99609 C 275.92211 120.83109 277.75631 113.16928 278.19531 111.48828 C 278.25331 111.27428 278.27436 111.21455 278.31836 111.06055 C 278.56136 110.76755 278.88308 110.54844 279.33008 110.39844 C 279.53608 110.37244 279.78683 110.35584 280.04883 110.33984 z "
     id="path2" />
  <path
     d="m156.1 129.02c-10.203.049-18.08 6.231-23.459 18.283-1.398 3-2.603 6.428-3.639 10.395-.003.013-.006.025-.01.037-.95 3.504-1.762 7.321-2.434 11.451-1.557 9.576-2.596 25.688-3.055 43.19-.031 1.041-.068 2.023-.096 3.092-.256 9.83-.275 19.249-.09 28.21.195 13.294.749 25.669 1.709 34.813 1.777 16.932 4.532 29.948 8.428 39.5.323.828.648 1.635.984 2.396.4.905.875 1.824 1.398 2.742 2.418 4.58 5.201 8.111 8.379 10.666.121.101.245.196.367.295.049.038.096.078.145.115 1.491 1.185 3.062 2.173 4.719 2.951.89.418 1.732.735 2.582.98 1.702.597 3.184.765 5.279.674 2.26.028 4.566-.307 6.838-.998.005-.001.009-.003.014-.004.324-.091.639-.2.957-.303 8.901-2.887 15.39-10.721 19.842-24.2.559-1.628 1.065-3.31 1.51-5.04.041-.161.08-.346.121-.51 1.931-7.349 3.386-16.07 4.404-26.26 2.769-27.733 2.239-84.51-.984-105.5-.755-4.915-1.665-9.442-2.732-13.582-.001-.005-.003-.009-.004-.014-1.902-8.284-4.399-14.387-7.758-19.344-5.846-9.413-13.639-14.09-23.416-14.04"
     fill="#80c342"
     id="path10"
     style="fill:#419236;fill-opacity:1" />
</svg>
