<?xml version="1.0" encoding="UTF-8" standalone="no"?>
<svg
   xmlns:dc="http://purl.org/dc/elements/1.1/"
   xmlns:cc="http://creativecommons.org/ns#"
   xmlns:rdf="http://www.w3.org/1999/02/22-rdf-syntax-ns#"
   xmlns:svg="http://www.w3.org/2000/svg"
   xmlns="http://www.w3.org/2000/svg"
   xmlns:sodipodi="http://sodipodi.sourceforge.net/DTD/sodipodi-0.dtd"
   xmlns:inkscape="http://www.inkscape.org/namespaces/inkscape"
   height="48"
   version="1.1"
   viewBox="0 0 47.999999 48"
   width="48"
   id="svg32"
   sodipodi:docname="qtcreator.svg"
   inkscape:version="0.92.3 (2405546, 2018-03-11)">
  <metadata
     id="metadata38">
    <rdf:RDF>
      <cc:Work
         rdf:about="">
        <dc:format>image/svg+xml</dc:format>
        <dc:type
           rdf:resource="http://purl.org/dc/dcmitype/StillImage" />
      </cc:Work>
    </rdf:RDF>
  </metadata>
  <defs
     id="defs36" />
  <sodipodi:namedview
     pagecolor="#ffffff"
     bordercolor="#666666"
     borderopacity="1"
     objecttolerance="10"
     gridtolerance="10"
     guidetolerance="10"
     inkscape:pageopacity="0"
     inkscape:pageshadow="2"
     inkscape:window-width="1328"
     inkscape:window-height="737"
     id="namedview34"
     showgrid="false"
     inkscape:zoom="4.9166667"
     inkscape:cx="-39.152542"
     inkscape:cy="24"
     inkscape:window-x="38"
     inkscape:window-y="0"
     inkscape:window-maximized="1"
     inkscape:current-layer="svg32" />
  <path
     style="fill:#419236;fill-opacity:1;stroke-width:0.07997375"
     d="M 8.5917969 4 C 8.4287061 4 8.2673133 4.0100767 8.1074219 4.0273438 C 7.9493701 4.0421367 7.802144 4.0665044 7.65625 4.0996094 C 7.3432659 4.1661374 7.0403816 4.265313 6.7519531 4.3945312 C 6.6981231 4.4186793 6.6445875 4.4445551 6.5917969 4.4707031 C 6.5884369 4.4723831 6.5853893 4.4729294 6.5820312 4.4746094 C 6.5381193 4.4950794 6.4946706 4.5160794 6.4550781 4.5371094 C 6.4040471 4.5642164 6.3524185 4.5950823 6.2988281 4.6289062 C 6.2909881 4.6335463 6.2832296 4.6398183 6.2753906 4.6445312 C 6.2656306 4.6504512 6.2557718 4.6561114 6.2460938 4.6621094 C 5.6098073 5.0508835 5.070972 5.5952832 4.6933594 6.2597656 C 4.6745624 6.2920696 4.6569089 6.326431 4.6386719 6.359375 C 4.6177959 6.397197 4.5960879 6.4341149 4.5761719 6.4726562 C 4.5363391 6.5458187 4.5002774 6.621222 4.4648438 6.6972656 C 4.3531037 6.903567 4.2675935 7.0494669 4.203125 7.3515625 L 4.0429688 7.7988281 L 4.0410156 9.1464844 C 4.0264586 9.8655807 4.0173177 10.950436 4.0117188 12.666016 L 4.0117188 12.675781 C 3.9980407 15.424947 4.0018731 19.579004 4.0019531 25.96875 L 4.0019531 26.046875 L 4.0019531 26.236328 L 4.0019531 41.853516 L 4 43.994141 L 4 44 L 4.0976562 43.982422 C 4.0977362 43.982422 4.1014825 43.980469 4.1015625 43.980469 C 4.1015625 43.980469 4.1035156 43.982422 4.1035156 43.982422 C 4.1044754 43.982422 4.12308 43.978716 4.125 43.978516 C 4.12804 43.980516 4.1316456 43.982422 4.1347656 43.982422 C 4.2433062 43.982422 22.102008 40.992187 29.605469 39.716797 C 30.401407 39.581582 30.951262 39.47975 31.367188 39.375 C 31.518921 39.34246 31.627983 39.317101 31.677734 39.300781 C 31.702934 39.292581 31.730999 39.282561 31.761719 39.269531 C 31.763519 39.268891 31.768031 39.266125 31.769531 39.265625 C 31.820721 39.246195 31.871404 39.225915 31.921875 39.203125 C 32.260214 39.06783 32.495067 38.898456 32.767578 38.642578 C 32.851718 38.567338 32.933846 38.486863 33.013672 38.402344 C 33.550136 37.857005 34.020308 37.027279 34.265625 36.207031 C 34.272925 36.186161 34.282033 36.165401 34.289062 36.144531 C 34.298763 36.115981 34.305973 36.086964 34.314453 36.052734 L 34.4375 35.705078 L 34.439453 34.667969 C 34.452333 34.157413 34.459164 33.377195 34.464844 32.285156 C 34.465484 32.164814 34.466197 32.094222 34.466797 31.964844 C 34.466797 31.958744 34.46875 31.955329 34.46875 31.949219 L 34.46875 31.947266 C 34.47025 31.592715 34.469603 31.09943 34.470703 30.671875 C 34.472003 30.349629 34.473809 29.951351 34.474609 29.589844 C 34.474689 29.560254 34.474529 29.543492 34.474609 29.513672 C 34.474689 29.480572 34.474529 29.41241 34.474609 29.378906 L 34.474609 29.314453 C 34.478309 27.391372 34.476563 25.001471 34.476562 21.78125 L 34.476562 21.746094 L 34.476562 21.740234 L 34.476562 21.634766 L 34.476562 21.521484 L 34.476562 9.9140625 L 34.480469 8.1933594 L 34.480469 8.1738281 L 34.480469 8.171875 L 34.476562 8.171875 L 34.476562 8.1621094 L 34.296875 8.1191406 C 34.137608 8.0823633 25.815217 6.7148066 13.339844 4.6757812 C 12.512232 4.5404859 11.781824 4.4255984 11.142578 4.328125 C 11.020439 4.3082945 10.677708 4.2524004 10.578125 4.2363281 C 9.9060855 4.12758 9.3958011 4.060322 8.9785156 4.0292969 C 8.9757156 4.028977 8.9611434 4.0255506 8.9589844 4.0253906 C 8.9367484 4.0234706 8.912861 4.0230844 8.890625 4.0214844 C 8.836475 4.0162844 8.7806737 4.0109305 8.7382812 4.0078125 C 8.7289213 4.0069329 8.7251149 4.0066597 8.7167969 4.0058594 C 8.7016799 4.0048194 8.685313 4.0026731 8.671875 4.0019531 C 8.660117 4.0013134 8.6405715 4 8.6328125 4 C 8.6251325 4 8.6190071 3.99992 8.6113281 4 C 8.6103682 4 8.6062687 4 8.6054688 4 C 8.6030688 4 8.6000562 4 8.5976562 4 C 8.5961363 4 8.5932369 4 8.5917969 4 z M 15.800781 11.482422 C 16.063294 11.481942 16.276011 11.482108 16.460938 11.486328 C 16.623469 11.499118 16.786347 11.513933 16.943359 11.533203 C 18.602503 11.782364 19.908847 12.452368 20.888672 13.556641 C 22.167164 14.997552 22.951096 17.344802 23.189453 20.376953 C 23.201453 20.619557 23.21067 20.879401 23.21875 21.150391 C 23.24195 22.108173 23.24311 23.240306 23.21875 24.189453 C 23.086374 26.659552 22.705918 28.596526 22.058594 30.074219 C 21.975254 30.259491 21.887705 30.440517 21.794922 30.615234 C 21.629032 30.927564 21.454265 31.214527 21.267578 31.476562 C 20.738553 32.187022 19.872628 32.926711 19.148438 33.277344 C 19.076127 33.312284 19.017374 33.340751 18.958984 33.369141 L 18.697266 33.490234 L 18.544922 33.546875 L 18.546875 33.560547 L 18.494141 33.583984 L 18.496094 33.59375 L 18.529297 33.722656 C 18.512417 33.86131 18.596502 34.066657 18.740234 34.457031 C 18.807584 34.639983 18.885984 34.797213 18.974609 34.935547 C 18.977009 34.939347 18.978069 34.943556 18.980469 34.947266 C 19.004389 34.983966 19.030961 35.019074 19.056641 35.052734 C 19.066141 35.065364 19.074234 35.077614 19.083984 35.089844 C 19.102224 35.112394 19.121505 35.13514 19.140625 35.15625 C 19.151505 35.1684 19.162718 35.181689 19.173828 35.193359 C 19.188148 35.211589 19.203437 35.227948 19.216797 35.242188 C 19.289107 35.319108 19.37306 35.381985 19.476562 35.431641 C 19.603579 35.505371 19.746405 35.559674 19.904297 35.597656 C 19.904297 35.597656 19.90625 35.597656 19.90625 35.597656 C 19.95112 35.608376 19.997327 35.61692 20.044922 35.625 C 20.052322 35.6263 20.060839 35.627706 20.068359 35.628906 C 20.110349 35.635506 20.153189 35.641844 20.197266 35.646484 C 20.218146 35.648684 20.240359 35.650544 20.261719 35.652344 C 20.295229 35.655144 20.328489 35.658356 20.363281 35.660156 C 20.425431 35.663456 20.488459 35.666016 20.554688 35.666016 L 20.654297 35.666016 L 20.958984 35.6875 L 20.958984 35.925781 L 20.941406 36.896484 L 20.921875 37.912109 C 20.920575 37.915909 20.921322 37.920198 20.919922 37.923828 C 20.894012 37.995318 20.853963 38.043501 20.791016 38.078125 C 20.789316 38.079005 20.786856 38.079278 20.785156 38.080078 C 20.779956 38.082878 20.773098 38.085291 20.767578 38.087891 L 20.699219 38.099609 C 20.556204 38.123039 20.158391 38.178115 19.814453 38.222656 C 19.703912 38.236966 19.597209 38.248143 19.492188 38.257812 C 19.355653 38.268682 19.22288 38.278803 19.095703 38.283203 C 19.082423 38.283523 19.067957 38.282963 19.054688 38.283203 C 19.005817 38.284603 18.95775 38.284756 18.910156 38.285156 C 18.842646 38.285556 18.77816 38.286057 18.712891 38.285156 C 18.681141 38.284516 18.648297 38.284343 18.617188 38.283203 C 18.584718 38.282003 18.553314 38.279044 18.521484 38.277344 C 17.909114 38.236484 17.38161 38.085569 16.869141 37.8125 C 16.015214 37.357517 15.330961 36.251877 14.910156 34.646484 L 14.757812 34.0625 L 14.716797 33.867188 L 14.705078 33.863281 L 14.703125 33.857422 L 14.123047 33.677734 C 13.793586 33.575463 13.481894 33.443446 13.185547 33.283203 C 12.438081 32.868601 11.780757 32.255973 11.234375 31.46875 C 11.233275 31.46715 11.231569 31.466444 11.230469 31.464844 C 11.217509 31.446134 11.204206 31.427153 11.191406 31.408203 C 10.399947 30.213094 9.84756 28.592402 9.5292969 26.539062 C 9.4314739 25.879938 9.3578649 25.186223 9.3085938 24.476562 C 9.2353268 23.050843 9.255633 20.861025 9.359375 19.632812 C 9.373932 19.480885 9.3910871 19.33061 9.4082031 19.181641 C 9.8438854 15.670359 10.981453 13.336708 12.792969 12.214844 C 12.860079 12.173264 12.927146 12.133926 12.996094 12.095703 C 13.028004 12.078113 13.06144 12.059839 13.09375 12.042969 C 13.12286 12.027699 13.152211 12.012837 13.181641 11.998047 C 13.241311 11.968297 13.300298 11.939619 13.361328 11.912109 L 13.363281 11.912109 C 13.383121 11.903109 13.403828 11.893486 13.423828 11.884766 C 13.471018 11.864216 13.518412 11.845362 13.566406 11.826172 C 13.609116 11.809142 13.651956 11.791311 13.695312 11.775391 C 14.085164 11.639695 14.509204 11.546196 14.953125 11.494141 C 15.167086 11.485141 15.429887 11.483142 15.800781 11.482422 z M 26.400391 12.824219 C 26.57492 12.837569 26.919058 12.870756 27.322266 12.916016 C 27.782264 12.967676 28.126785 13.005813 28.285156 13.021484 L 28.419922 13.039062 C 28.426822 13.047963 28.433373 13.094229 28.439453 13.171875 L 28.458984 14.925781 L 28.478516 16.613281 L 28.478516 16.853516 L 28.478516 16.855469 L 28.478516 16.857422 L 28.738281 16.900391 C 28.881296 16.924701 29.384706 16.97026 29.857422 17 L 30.560547 17.042969 L 30.716797 17.054688 L 30.716797 18.236328 L 30.716797 18.244141 C 30.716717 19.318908 30.70602 19.415893 30.578125 19.390625 C 30.501175 19.375435 29.995975 19.344736 29.457031 19.322266 L 28.542969 19.283203 L 28.478516 19.279297 L 28.478516 19.28125 L 28.478516 19.283203 L 28.478516 19.328125 L 28.478516 19.330078 L 28.478516 19.332031 L 28.478516 19.34375 L 28.478516 19.347656 L 28.478516 19.353516 L 28.478516 19.357422 L 28.46875 19.357422 L 28.478516 21.167969 L 28.478516 24.015625 L 28.478516 24.216797 L 28.478516 24.238281 C 28.478516 26.128018 28.476814 27.342582 28.496094 28.148438 C 28.506254 28.651716 28.521892 28.96304 28.544922 29.150391 C 28.546722 29.171341 28.549081 29.185186 28.550781 29.197266 C 28.560281 29.308253 28.570121 29.392711 28.582031 29.427734 C 28.594431 29.464034 28.60925 29.497795 28.625 29.529297 C 28.69683 29.740316 28.80388 29.788893 28.962891 29.871094 C 28.976891 29.878294 28.992542 29.884225 29.007812 29.890625 C 29.157867 29.972585 29.250729 29.995381 29.474609 29.96875 C 29.503089 29.96635 29.535329 29.961491 29.568359 29.957031 C 29.852549 29.939761 30.183717 29.86697 30.517578 29.740234 C 30.737538 29.656754 30.946235 29.587891 30.980469 29.587891 C 31.013339 29.587891 31.028971 30.029348 31.019531 30.578125 L 31.019531 30.609375 L 31.001953 31.486328 L 30.998047 31.638672 C 30.993147 31.660102 30.988502 31.681676 30.982422 31.697266 L 30.804688 31.773438 L 30.412109 31.923828 C 30.089766 32.046729 29.471625 32.218523 29.039062 32.306641 C 28.855415 32.344061 28.680649 32.372734 28.511719 32.396484 C 28.468449 32.401584 28.425759 32.405846 28.382812 32.410156 C 28.318983 32.415356 28.254355 32.421831 28.191406 32.425781 C 28.125256 32.429981 28.061315 32.432987 27.998047 32.435547 C 27.873749 32.440547 27.757619 32.442959 27.648438 32.443359 C 27.274345 32.436859 26.945631 32.397313 26.730469 32.320312 C 26.657039 32.294002 26.585486 32.264685 26.517578 32.234375 C 26.321453 32.146575 26.147119 32.040481 25.992188 31.914062 C 25.75591 31.710559 25.561403 31.448959 25.400391 31.126953 C 25.189389 30.704915 25.078354 30.440054 25.021484 29.583984 C 24.996124 28.995385 24.98339 27.788754 24.96875 25.931641 L 24.960938 24.671875 L 24.958984 24.644531 C 24.958984 24.545301 24.958984 24.473925 24.958984 24.371094 L 24.958984 24.267578 C 24.959064 23.180818 24.960624 22.347118 24.958984 21.669922 L 24.958984 19.113281 L 24.695312 19.113281 C 24.602853 19.083131 24.48031 19.113281 24.3125 19.113281 L 24.101562 19.113281 L 23.941406 19.095703 C 23.935806 19.089103 23.930741 19.081819 23.925781 19.074219 L 23.917969 18.697266 L 23.917969 17.84375 L 23.917969 17.828125 L 23.917969 17.826172 L 23.917969 17.824219 L 23.917969 17.822266 L 23.917969 17.787109 C 23.917969 17.061056 23.931367 16.710701 23.966797 16.578125 L 24.630859 16.615234 L 25.316406 16.654297 L 25.345703 16.65625 L 25.384766 16.513672 L 25.419922 16.384766 C 25.461032 16.235957 25.667344 15.378132 25.878906 14.476562 C 26.069672 13.663752 26.21684 13.050432 26.251953 12.916016 C 26.256553 12.898906 26.258219 12.893169 26.261719 12.880859 C 26.281159 12.857429 26.306047 12.840115 26.341797 12.828125 C 26.358277 12.826025 26.379431 12.825519 26.400391 12.824219 z "
     id="path2" />
  <path
     inkscape:connector-curvature="0"
     style="fill:#419236;fill-opacity:1;stroke-width:0.07997375"
     id="path10"
     d="m 16.485531,14.317549 c -0.816094,0.0039 -1.446142,0.498242 -1.876385,1.461941 -0.11182,0.239885 -0.208203,0.513994 -0.291068,0.831203 -2.4e-4,10e-4 -4.8e-4,0.002 -8e-4,0.003 -0.07599,0.280186 -0.140935,0.585401 -0.194685,0.915643 -0.124538,0.765714 -0.207643,2.054058 -0.244357,3.453549 -0.0025,0.08324 -0.0054,0.161763 -0.0077,0.247242 -0.02048,0.786024 -0.022,1.539184 -0.0072,2.255722 0.0156,1.063012 0.05991,2.052539 0.136696,2.783709 0.142134,1.353913 0.362495,2.394695 0.674119,3.15849 0.02584,0.06621 0.05183,0.130738 0.07871,0.191589 0.032,0.07237 0.06999,0.14585 0.11182,0.219255 0.193406,0.366225 0.416006,0.64857 0.670201,0.852872 0.0097,0.0081 0.0196,0.01567 0.02935,0.02359 0.0039,0.003 0.0077,0.0062 0.0116,0.0092 0.119259,0.09475 0.244917,0.173757 0.377453,0.235967 0.07119,0.03342 0.138535,0.05877 0.206523,0.07836 0.136136,0.04774 0.254675,0.06117 0.422245,0.0539 0.180767,0.0022 0.365214,-0.02455 0.546942,-0.0798 4e-4,-8e-5 7.2e-4,-2.4e-4 0.0011,-3.2e-4 0.02592,-0.0073 0.05111,-0.01599 0.07655,-0.02423 0.711953,-0.23085 1.23098,-0.857271 1.587077,-1.935076 0.04471,-0.130177 0.08518,-0.264673 0.120778,-0.403007 0.0033,-0.01287 0.0064,-0.02767 0.0097,-0.04078 0.154452,-0.58764 0.270831,-1.284986 0.352257,-2.099797 0.22148,-2.21758 0.179088,-6.75757 -0.07871,-8.435968 -0.06039,-0.393012 -0.133177,-0.754999 -0.218521,-1.08604 -8e-5,-4e-4 -2.4e-4,-7.2e-4 -3.2e-4,-0.0011 -0.152133,-0.662403 -0.351857,-1.15041 -0.620529,-1.546781 -0.467597,-0.75268 -1.090926,-1.126661 -1.872946,-1.122663" />
  <g
     transform="matrix(1.14867622 0 0 1.14867622 -7.226889 -7.136459)"
     id="g30">
    <path
       d="m47.207031 24.728516c-.015849-.015849-.470565.537949-1.026367 1.163086-.540687.608137-.961574 1.078311-1.601829 1.66929-.64868.598756-1.063481 1.0113-1.795193 1.559708-1.75234 1.313355-1.977832 1.446558-2.63623 1.891048-.010049.006784 0 0 0 0l0 0c0 0-.17106.106933-.246608.154312-.029674.01861-.381906.229301-.381906.229301 0 0 .000884-.00051 0 0C39.200583 31.59148 38.994406 31.703077 38.671875 31.884766 38.208689 32.145689 36.606617 33.022995 35.043365 33.807538 32.002376 35.333709 30.998013 35.93172 30.113281 36.777344c-.000933.000946-.002964.00101-.003906.001953-.107853.108015-.274295.202344-.373047.3125L29.734375 37.09375c-.550206.579143-1.064279 1.523698-1.214844 1.84375l0 .001953c-.01357.15454-.027317.30972-.068359.439453-.111095.35117-.130537.78799-.185547 1.189453-.100621 1.01001-.063237 2.38221.115234 3.583984.082504.511596.182561 1.042902.300781 1.59375.000446.002078.001516.00379.001953.005859.031382.148452.040348.274354.080078.431641.095334.377419.078653.633709.195313 1.035156l.226563.779297 1.638672-.0625c.901008-.033839 2.088639-.138691 2.638672-.234375.434768-.075632 1.077773-.338323 1.71875-.523438.033504-.009676.059092-.018263.089844-.027344.174591-.051555.318988-.096312.509766-.15625.357699-.122338.617894-.338093.949219-.482422l.001953 0c .677102-.294884 1.381716-.559278 1.939453-.986328.141849-.108611.237757-.295983.373047-.414063L39.046875 45.109375c.333605-.288625.61901-.670788.919922-1.015625L39.96875 44.091797c.346654-.396685.74661-.691297 1.058594-1.169922.201692-.309422.370976-.791379.558594-1.144531.000643-.001211.001309-.002698.001953-.003906.217743-.408551.441044-.833209.650391-1.326172l0-.001953c.119823-.282289.251189-.442322.371094-.759766.510831-1.35241 1.031175-3.048106 1.640625-5.296875.073812-.272352.112033-.368543.181641-.619141.000464-.00167.001487-.002223.001953-.003906.188259-.679367.323939-1.097268.490234-1.664063.002546-.008679.005263-.016698.007813-.025391.363852-1.240716.75564-2.618469 1.072266-3.636719l.005859-.019531.238281-.769531c.134434-.434237.412726-1.263371.617188-1.841797.204462-.578425.357646-1.064229.341797-1.080078z"
       fill="#eaeaeb"
       id="path14" />
    <path
       d="M47.103516 24.966797L45.257813 26.816406c-.434576.435407-.732997.789405-1.138139 1.164211-.439753.400861-.973786.850867-1.336031 1.139982C42.507843 29.340721 42.156198 29.618431 41.880859 29.824219c-.64975.485623-1.194779.852194-1.927706 1.309241-.731137.455931-1.540227.874971-2.473853 1.374012-.855883.457485-1.907444 1.046841-3.0298 1.598109C33.929777 34.360853 33.854268 34.416452 33.419922 34.646484c-1.025787.543263-1.951951 1.068249-2.587891 1.544922-.402608.306815-.749856.636407-1.0625.980469-.391168.419059-.687572.89369-.929688 1.382813-.130819.264281-.317268.44649-.421875.746094-.046128.132113-.098321.316952-.130859.423828C28.261776 39.807818 28.268323 39.97607 28.25 40.054688c-.094457.405293-.160309.655111-.15625 1.705078.00274.70873.2045 1.412612.275391 2.003906.079852.666037.132843 1.397356.353516 2.261719.073362.287354.024022.415585.117188.751953l.330078 1.189453 1.066406 0c .425233-.000344.830654-.07676 1.25-.105469.051781-.003545.102633-.009704.154297-.013672 1.53533-.137654 2.709352-.354179 3.923828-.742188 1.195551-.381962 2.213834-.895872 3.107422-1.580078.893588-.684206 1.661227-1.538456 2.355469-2.603516.570488-.875205 1.0712-1.883918 1.582031-3.236328.510831-1.35241 1.031175-3.048106 1.640625-5.296875.993015-3.664059 1.991318-7.049935 2.455078-8.326172zm-.746094 1.224609l-.378906 1.177734-.378906 1.175781-.533203.03125-.53125.033203-2.716797 3.283203C40.323544 33.699067 38.561212 35.828899 37.902344 36.625l-1.197266 1.447266-3.623047 0c-1.979846 0-3.580445-.040273-3.599609-.089844-.000114-.000296-.021484.000296-.021484 0 0-.003949.043262-.035791.044922-.041016.052856-.166351.887439-.937128 1.429688-1.306641.260542-.177545 1.231831-.705304 2.158203-1.173828 5.092171-2.575428 11.703116-6.677335 11.052734-6.857422-.176959-.048999-.01781-.245474 1-1.234375zm-2.523438 4.345703c.062002-.006977.047905.187641 0 .798828-.144746 1.846694-.543349 4.169402-1.015625 5.919922l-.220703.816406-2.416016 0c-1.905214 0-2.399062-.027087-2.335938-.130859.127312-.209292 5.62359-7.057718 5.851563-7.291016.063876-.065368.108536-.11011.136719-.113281z"
       fill="#e3e3e3"
       id="path16" />
    <path
       d="m47.013672 25.060547c-.015114-.015114-.406977.397918-.869141.917969-1.049041 1.180435-2.762064 2.72606-4.263672 3.845703-.335985.25052-1.366114.940751-1.733447 1.187429 0 0 .001942-.001327 0 0-.199885.136552.205515-.130655 0 0-.201202.127913-.836132.508249-1.040123.631675-.47372.286627-1.371346.783343-2.45056 1.344345-.544521.286716-.772534.399466-1.408683.717411-1.474356.736877-2.998302 1.523962-3.386719 1.75-.631875.367718-1.155183.807891-1.646484 1.253906L30.212891 36.710938c-.15909.146565-.338945.286599-.478516.441406-.330395.352308-.55395.715177-.767578 1.078125-.000713.001255-.001241.002651-.001953.003906-.159584.281422-.290997.581046-.404297.890625-.175134.497888-.227557 1.110667-.285156 1.716797-.012485.211708.021692.453527.021484.697266l0 .003906c-.00001.201565.011928.363166.019531.578125.019186.542452-.013992.929857.046875 1.458984l0 .001953c.037638.326074-.021022.618518.029297.898438.070108.384227.137669.768448.234375 1.183594.091456.392609.107762.697235.222656 1.119141l.322266 1.183594.863281 0c .40123 0 .791873-.084187 1.191406-.109375.233129-.014697.463407-.039347.695313-.0625.398052-.040288.692286-.142472 1.052734-.199219l.001953 0C33.656757 47.488641 34.349689 47.391159 34.962891 47.21875l.001953 0c .460655-.129579.89464-.302635 1.322266-.480469.627643-.244428 1.199804-.544508 1.734375-.882813.297564-.193012.613855-.365277.886719-.589844.001041-.000861.000912-.003045.001953-.003906.660257-.546634 1.247072-1.212728 1.791016-1.978516L40.703125 43.28125c.098635-.138922.228511-.212547.324219-.359375.570488-.875205 1.0712-1.883918 1.582031-3.236328.099478-.263366.219525-.740298.320313-1.03125.000576-.001664.001376-.004193.001953-.005859.213802-.617902.447907-1.424451.675781-2.1875.004059-.013591.007679-.025646.011719-.039063.306255-1.036699.57807-1.908769.896484-3.076172 1.002564-3.675698 1.678182-5.940098 2.208984-7.394531.17318-.474524.304176-.875511.289063-.890625zm-.601563 1.070313c-.000573.003614-.14302.426507-.316406.939453-.341475 1.010216-1.074752 3.411188-1.261719 4.132813-.111526.430452-.132659.447266-.529297.447266-.469763 0-.389062-.22387-.689453 1.947266-.342088 2.472504-1.509463 6.465288-2.416016 8.263672-.421235.83563-1.094942 1.721419-1.808594 2.447266-.036002.036617-.055523.087348-.091797.123047L38.703125 45.019531l-.134766 0-3.171875 0-3.304688 0 5.291016-6.619141c2.909988-3.641218 5.421437-6.827641 5.582031-7.080078.160594-.252437.394511-.587821.519531-.746094.12502-.158273.20097-.314655.169922-.345703-.031048-.031048-.329458.27409-.664063.675781-.334604.401691-.692692.75061-.794922.777344-.194869.050959-1.48208 1.584436-7.470703 8.892578L31.09375 45.005859l-1.125.007813c-.618989.004005-1.148994-.028842-1.175781-.072266-.127764-.207112-.314354-2.329583-.3125-3.552734.00134-.884084.077169-1.507412.246094-2.058594.095675-.312176.324153-.607477.498047-.886719.163416-.262416.252356-.529517.5-.808594.613336-.691184 1.224537-1.085222 3.632813-2.34375 2.691297-1.406431 6.049717-3.30727 6.351563-3.59375.125191-.118817.652744-.496692 1.173828-.839844 1.363138-.897673 2.869493-2.134167 4.291016-3.523438.681287-.66583 1.238854-1.206739 1.238281-1.203125z"
       fill="#dbdbdb"
       id="path18" />
    <path
       d="m47.123047 24.857422c-.016147-.015467-.455478.450087-.976563 1.035156-.482437.541676-1.093882 1.047854-1.650391 1.572266.553611-.519777 1.242916-1.030014 1.648438-1.486328.462164-.520051.854027-.933083.869141-.917969.015114.015114-.115883.416101-.289063.890625-.530802 1.454433-1.20642 3.718834-2.208984 7.394531-.322468 1.182262-.599698 2.072147-.908203 3.115234C43.823363 35.737848 44.011545 35.268532 44.25 34.388672 45.243015 30.724613 46.241318 27.338737 46.705078 26.0625l.277344-.765625c.018661-.064607.095616-.286033.099609-.308594.001689-.009541.042224-.129702.041016-.130859zM46.515625 25.972656c0-.036552-.579809.503678-1.289063 1.201172-1.430662 1.406942-2.745762 2.506182-4.392578 3.595703-1.646816 1.089521-3.626857 2.169098-6.390625 3.537109-2.594131 1.284045-3.775464 2.037246-4.603516 2.931641-.574563.620597-.968228 1.239356-1.21875 1.958984-.250522.719628-.356881 1.538515-.353516 2.558594.004464 1.353037.06625 1.825856.519531 3.880859.291382 1.321015.293241 1.854895.001953.695313-.011361-.045226-.018216-.085982-.029297-.130859.029639.170298.016126.266112.080078.507813l.341797 1.289063 1.535156-.0625c.223051-.009339.39062-.061777.605469-.076172.277965-.018624.517444-.072169.783203-.099609.31956-.03494.564198-.120448.863281-.164063.692172-.100937 1.376384-.207443 1.998047-.378906.457743-.128862.88935-.300043 1.314453-.476563.632238-.243429 1.202131-.548278 1.742188-.884766.297071-.192764.612319-.365619.884766-.589844.662215-.54768 1.249646-1.216383 1.794922-1.984375.38343-.542228.661317-1.401739.996094-2.072266.024755-.050831.055215-.06322.080078-.115234.017172-.035924.037728-.128081.054688-.164063.634295-1.345722 1.229336-3.296007 2.037109-6.138672-.011051.065926-.087938.123047-.195313.123047-.140921 0-.231656.093432-.277344.289063-.55999 2.397816-1.305691 4.77056-1.96875 6.259766-.469988 1.055575-1.23465 2.039328-2.111328 2.908203-.173481.171937-.348346.300593-.533203.460938-.772314.669902-1.630247 1.217472-2.533203 1.621094-.522279.203242-.974765.364307-1.482422.507813-.465892.134084-.966809.22376-1.449219.337891-.345873.081828-.663347.201446-1.039063.242188-.286604.031078-.326304-.002619-.605469.015625-.77803.050846-1.6875.108108-1.6875.041016 0-.030132 1.008462-1.297761 2.242188-2.816406 4.462032-5.492507 9.415734-11.772351 11.314453-14.341797.316758-.428653-.890906.888211-2.125 2.316406-.700413.810575-1.484764 1.686724-1.744141 1.947266-.478657.480807-2.835379 3.312272-7.6875 9.236328-2.366474 2.889278-2.694423 3.24967-2.771484 3.046875-.188298-.495527-.501056-2.137436-.650391-3.414063-.100751-.861292-.106343-1.535632-.099609-2.201172.002758-.272623-.002021-.576871.021484-.822266.049886-.520807.177612-.963652.332031-1.384766.136202-.371435.353475-.720387.582031-1.037109.616585-.854433 1.49209-1.589602 2.919922-2.333984 1.238449-.64565 1.529297-.837058 1.34375-.880859-.181347-.04281.143348-.23644 1.384766-.826172 4.425501-2.10232 7.439907-4.120759 10.144531-6.792969.638582-.630929 1.145792-1.095616 1.181641-1.085938.00239.000645.001906.002845 0 .007813-.404568 1.054288-2.296115 7.579243-2.416016 8.306641.118685-.421684.155549-.385119.289063-.871094.909346-3.309912 1.644849-5.81458 2.050781-6.990234.118079-.341979.214844-.650948.214844-.6875zM28.759766 46.201172c-.005479-.031483-.005885-.054892-.015625-.09375-.244443-.975173-.291244-1.676523-.375-2.355469-.044165-.358012-.153645-.793522-.230469-1.226563.074738 1.076521.279174 2.290957.621094 3.675781zm-.621094-3.675781C28.123754 42.310513 28.105828 42.092374 28.101563 41.888672 28.092947 41.477252 28.125765 41.105627 28.173828 40.75 28.113587 41.064817 28.091592 41.338293 28.09375 41.759766c.001168.228105.001533.521051.044922.765625zM28.173828 40.75c.029432-.153811.060068-.306315.083984-.466797.005038-.033803.009696-.069868.013672-.105469C28.231563 40.361375 28.200376 40.553568 28.173828 40.75Zm.097656-.572266c.077362-.355876.171004-.695082.283203-1.019531-.060221.150716-.165026.284406-.208984.441406-.04279.168289-.052428.383011-.074219.578125z"
       fill="#cbcbcb"
       id="path20" />
    <path
       d="m47.147036 24.849344c0-.021514-.371568.374899-.825708.881015-2.139338 2.384186-3.345611 3.467759-6.13675 5.257816-1.553734.996465-3.640074 2.056889-5.198637 2.820797-1.624461.796207-3.276721 1.687451-3.807795 2.042681-1.61862 1.082677-2.780579 3.058895-2.910579 4.014087-.015625.114803-.254595 2.700324-.014081 4.052209.177696.998794.686135 3.244054.894521 3.79215L29.258211 48 30.754806 47.931328c5.861369-.269582 9.083396-2.179928 11.248622-6.668782.852357-1.76707 1.448508-3.70038 3.937943-12.772357.135451-.49361.462178-1.506056.725989-2.249724.263812-.743669.479675-1.369606.479675-1.39112zM46.376636 26.208184c.002029.001134.001989.004275 0 .009458-.253047.65943-1.271643 4.092885-2.022737 6.818256-1.167204 4.235244-2.115322 7.178474-2.368358 7.352417-.042112.028949-.218694.384234-.392499.789521-.435148 1.014697-.733046 1.50958-1.479119 2.456768-1.654828 2.100913-4.049545 3.377877-7.234811 3.857963-.576844.086942-1.494448.158385-2.03898.158727-.934057.000585-.980806-.009803-.828997-.183605 1.655589-1.895432 12.918293-16.103145 13.334891-16.821738.323478-.55797-7.308908 8.412695-11.405293 13.405208-1.439227 1.754074-2.652656 3.151526-2.696503 3.10545-.114099-.119898-.491602-1.936053-.677056-3.257187-.201438-1.434999-.203889-3.48749-.00514-4.234219.263804-.991149.689122-1.713927 1.470689-2.499328.997089-1.00198 1.621963-1.388863 4.928546-3.05076 1.548303-.778181 3.277354-1.68166 3.842337-2.007728 2.449293-1.413559 4.569377-3.017634 6.47428-4.898527.596427-.58891 1.068314-1.01769 1.09875-1.000677z"
       fill="#bec0c0"
       id="path22" />
    <path
       d="m47.146484 24.835938c.000012-.013981-.370079.388415-.824219.894531-.609969.67978-1.330501 1.270017-2.007813 1.898438-.627881.582558-1.222982 1.182374-1.896484 1.710938-.194141.152975-.347961.34334-.537109.484375-.312533.233034-1.394254.957991-1.733447 1.187429C39.497597 31.450165 39.342315 31.507091 38.671875 31.884766 38.339398 32.072058 37.631285 32.491256 36.544505 33.045064 36.212981 33.215391 35.610385 33.523983 35.248047 33.705078c-.355413.177634-.471813.246905-.816406.421875-2.286963 1.170382-3.484135 1.880006-4.261719 2.615234-.093729.086146-.229018.154276-.316406.242188-.286847.288564-.424286.593097-.634766.892578-.207334.29831-.466037.584906-.603516.916016-.087011.209561-.162354.430355-.228516.658203-.001574.005477-.004298.010137-.005859.015625-.015221.053486-.023076.11341-.037109.167969-.004753.018478-.009056.038037-.013672.056641-.039379.157682-.079934.316773-.109375.486328-.00153.008816-.004357.016548-.005859.025391-.008569.050446-.009936.106878-.017578.158203-.002651.017807-.005274.036774-.007813.054688-.026118.184489-.051821.3732-.066406.574219-.000383.005438-.00158.010177-.001953.015625C28.119172 41.033882 28.120812 41.06548 28.119141 41.09375 28.105863 41.308285 28.09375 41.523737 28.09375 41.759766c0 .039807.007397.081687.007813.123047.000073.007235.001868.014206.001953.021484.008422.720205.171239 1.913295.254256 2.394806.078758.456809.166688.815994.368791 1.628632.026476.106459.036396.145459.0625.248047.118918.467344.194744.780948.28125 1.132813.001225.012612-.002411.014667 0 .029297.009341.056684.033212.135282.0625.21875.001036.002953.00089.00483.001953.007813.004572.012826.004684.019836.009766.033203.016667.058711.063079.280057.072266.294922.001117.001808.039088-.001724.041016 0 .065941.058971.567151.074751 1.402344.03125.442834-.023065.68731-.145553 1.09375-.183594 1.225085-.114663 2.347543-.282983 3.296875-.552734.487863-.141239.956274-.315398 1.408203-.511719 1.001199-.429291 1.92291-.931656 2.720703-1.646484.067477-.060459.163906-.075982.230469-.138672.133081-.125337.197396-.332004.320313-.458984.514047-.531045.929885-1.249899 1.341797-1.917969.282135-.457589.635491-.723499.917969-1.314453.186475-.390111.44681-1.451027.617188-1.875.40686-1.012444.89488-2.47961 1.470703-4.478516.2145-.744612.275878-.679971.548828-1.667969.35144-1.27211.508525-1.843389.751953-2.724609.166505-.602756.47283-1.708346.515625-1.863281.070837-.256459.293851-.910514.486328-1.486328.093807-.280632.140755-.451197.236328-.724609.291675-.834415.529285-1.528988.529297-1.542969zm-.632813 1.099609l-.019531.056641-.246094.722656c-.469256 1.373854-1.171887 3.750544-2.044922 6.923828-.83896 3.049427-1.488537 5.042943-2.148438 6.626953-.040736.097781-.092026.306502-.132813.400391-.420942.968979-.804732 1.784193-1.299912 2.427144-.193436.241983-.093585.166611-.290922.400607C40.186852 43.663391 39.729941 44.150518 39.574219 44.314453c-.018514.01949-.045792.02951-.064453.048828-.381238.39466-.842285.837973-1.287745 1.162204-.60732.442041-1.239486.777019-1.977866 1.094274-.536481.230506-1.123344.422782-1.735157.590634C34.226937 47.287777 33.97075 47.331997 33.671875 47.396484 33.237638 47.490179 32.197072 47.593294 31.359375 47.625 31.279327 47.62803 31.358938 47.614504 31.287109 47.617188 29.999068 47.665309 29.846501 47.669916 29.992188 47.46875 30.077208 47.351353 31.261062 45.888182 32.625 44.216797 36.397105 39.594414 43.612544 30.410766 42.910156 31.125 42.521074 31.520644 37.865027 36.971941 35.716797 39.546875 33.38851 42.337631 31.902565 44.176311 30.75 45.697266 29.875347 46.85148 29.314679 47.418603 29.212891 47.253906 29.183938 47.207059 28.983306 46.319068 28.765625 45.279297 28.412903 43.594493 28.368248 43.215834 28.363281 41.808594 28.357579 40.192967 28.424398 39.583931 28.894668 38.617338 28.920319 38.564614 28.983837 38.50424 29.011719 38.449219c.031907-.062965.063931-.176443.105722-.244794.589469-.964099.352754-.719308 1.728674-1.854031C31.087027 36.151712 31.09058 36.218835 31.330078 36.056641c.25741-.174325 1.424382-.774532 2.355469-1.267578.588278-.311516.832682-.470565 1.488281-.800781 5.014696-2.525829 7.15019-3.955762 9.839844-6.585938l.654297-.640625z"
       fill="#868482"
       id="path24" />
    <path
       d="m47.104065 24.966333l-1.846945 1.850646c-2.990751 2.996466-4.96954 4.343433-10.271178 6.991992-1.622534.810575-3.304196 1.710081-3.737067 1.998887-1.624658 1.08395-2.675818 2.423082-3.00676 4.0134-.334369 1.606781-.180955 3.092709.160166 4.988376.152661.848366.636945 2.557887.797334 3.026498.055141.161108.716464.167964 2.367536.024673 1.578991-.137036 2.758907-.36005 3.996335-.755391 2.391103-.763924 4.075663-2.053726 5.464145-4.183846 1.140975-1.750411 2.004362-4.036077 3.223262-8.533615.993015-3.664059 1.991157-7.049306 2.454918-8.325543zm-.588646 1.012808c0 .026744-.21208.680924-.471246 1.453624-.463229 1.381114-.820377 2.612083-2.216622 7.639441-1.219315 4.390299-2.164816 6.667476-3.49651 8.42156-1.598227 2.105158-4.002805 3.458882-7.089449 3.9914-1.057439.182433-3.274926.329109-3.37582.223286-.038265-.040134.674432-.981153 1.583771-2.091203.909339-1.11005 2.327795-2.859054 3.151917-3.886747 1.404549-1.751496 1.48008-1.868518 1.20587-1.8673-.250268.001111-.511731.267065-1.80932 1.840571-1.891604 2.293832-3.682252 4.617945-4.136968 5.369362-.347521.574276-.504553.708081-.504553.429713 0-.082022-.041029-.164922-.091083-.184222-.102977-.039705-.698365-2.704182-.854698-3.824861-.174538-1.251177-.13103-2.872009.101363-3.780656.272696-1.06623.649971-1.739164 1.422989-2.537982.888761-.918424 1.905564-1.545775 5.131477-3.166104 5.317846-2.671075 7.211743-3.939176 10.106695-6.767267.738202-.721153 1.342186-1.289361 1.342186-1.262617z"
       fill="#868482"
       id="path26" />
    <path
       d="m47.012777 25.060295c-.015114-.015114-.405487.397973-.867651.918024-1.049041 1.180435-2.763246 2.726189-4.264854 3.845832-1.635085 1.219168-3.550264 2.339529-6.63239 3.879963-1.474356.736877-2.998506 1.524685-3.386923 1.750722-1.541166.896876-2.736937 2.09984-3.232514 3.251841-.75495 1.754928-.704064 4.187312.159755 7.626077.291288 1.159582.290971.624016-.000411-.696999-.453281-2.055004-.516332-2.525897-.520796-3.878935-.006731-2.040157.42416-3.277994 1.573286-4.519187.828052-.894395 2.009765-1.646642 4.603896-2.930687 5.527535-2.736023 7.920371-4.319153 10.781694-7.133037.709253-.697494 1.289551-1.238311 1.289551-1.201758 0 .036552-.096572.346385-.214651.688364-.405932 1.175654-1.140531 3.680641-2.049877 6.990553-1.140887 4.152694-1.692627 5.814352-2.471366 7.4435-.785238 1.642744-1.51101 2.687709-2.528319 3.640228-2.073818 1.941741-5.229422 3.018474-8.855591 3.021564l-1.01363.000822-.138372-.333902c-.166861-.402839-.256965-.242613-.098279.174764l.111849.293603 1.707545-.05798c2.576534-.087573 4.476899-.521788 6.227555-1.423194 2.712487-1.39665 4.440281-3.754694 5.839579-7.969642.28832-.868473.955792-3.161134 1.483231-5.09488 1.002564-3.675698 1.679652-5.940955 2.210454-7.395388.17318-.474524.302343-.875154.287229-.890267z"
       fill="#868482"
       id="path28" />
  </g>
</svg>
