<?xml version="1.0" encoding="UTF-8" standalone="no"?>
<svg
   xmlns:dc="http://purl.org/dc/elements/1.1/"
   xmlns:cc="http://creativecommons.org/ns#"
   xmlns:rdf="http://www.w3.org/1999/02/22-rdf-syntax-ns#"
   xmlns:svg="http://www.w3.org/2000/svg"
   xmlns="http://www.w3.org/2000/svg"
   xmlns:sodipodi="http://sodipodi.sourceforge.net/DTD/sodipodi-0.dtd"
   xmlns:inkscape="http://www.inkscape.org/namespaces/inkscape"
   height="48"
   version="1.1"
   viewBox="0 0 47.999999 48"
   width="48"
   id="svg18"
   sodipodi:docname="qtdesigner.svg"
   inkscape:version="0.92.3 (2405546, 2018-03-11)">
  <metadata
     id="metadata24">
    <rdf:RDF>
      <cc:Work
         rdf:about="">
        <dc:format>image/svg+xml</dc:format>
        <dc:type
           rdf:resource="http://purl.org/dc/dcmitype/StillImage" />
      </cc:Work>
    </rdf:RDF>
  </metadata>
  <defs
     id="defs22" />
  <sodipodi:namedview
     pagecolor="#ffffff"
     bordercolor="#666666"
     borderopacity="1"
     objecttolerance="10"
     gridtolerance="10"
     guidetolerance="10"
     inkscape:pageopacity="0"
     inkscape:pageshadow="2"
     inkscape:window-width="1328"
     inkscape:window-height="737"
     id="namedview20"
     showgrid="false"
     inkscape:zoom="4.9166667"
     inkscape:cx="-1.6271186"
     inkscape:cy="24"
     inkscape:window-x="38"
     inkscape:window-y="0"
     inkscape:window-maximized="1"
     inkscape:current-layer="svg18" />
  <path
     style="fill:#419236;stroke-width:0.07997375;fill-opacity:1"
     inkscape:connector-curvature="0"
     id="path2"
     d="m 8.59254,4.00088 c -0.1630908,0 -0.324822,0.00896 -0.4847134,0.026227 C 7.9497748,4.0419 7.8021212,4.066128 7.6562272,4.099233 7.3432431,4.165761 7.0402572,4.2653136 6.7518287,4.3945318 c -0.05383,0.024148 -0.1070209,0.049416 -0.1598115,0.075564 -0.00336,0.00168 -0.0068,0.00304 -0.010158,0.00472 -0.043912,0.02047 -0.086465,0.04126 -0.1260575,0.06229 -0.051031,0.027107 -0.1037415,0.058932 -0.1573319,0.092756 -0.00784,0.00464 -0.015757,0.00936 -0.023596,0.014073 -0.00976,0.00592 -0.019677,0.011514 -0.029355,0.017512 C 5.6092324,5.0502209 5.0712484,5.5962 4.6936358,6.2606824 c -0.018797,0.032304 -0.036633,0.065329 -0.05487,0.098273 -0.020876,0.037822 -0.041753,0.075644 -0.061669,0.1141854 C 4.537264,6.5463033 4.4997507,6.6209077 4.4643171,6.6969513 4.352577,6.9032527 4.2677122,7.0499826 4.2032437,7.3520782 l -0.1607713,0.4468264 -0.0016,1.347356 c -0.014557,0.7190963 -0.023756,1.8043374 -0.029355,3.5199174 0,0.0029 0,0.0074 0,0.01032 -0.013678,2.749166 -0.00912,6.902301 -0.00904,13.292047 0,0.03007 0,0.04862 0,0.07868 0,0.07149 0,0.116505 0,0.18847 V 41.853827 L 4,43.994964 h 3.199e-4 v 0.005 l 0.097823,-0.01831 c 0,0 1.6e-4,1.6e-4 1.6e-4,1.6e-4 8e-5,0 0.004,-6.4e-4 0.00408,-6.4e-4 8e-5,0 8e-5,3.2e-4 1.6e-4,3.2e-4 9.598e-4,0 0.020556,-0.0031 0.022476,-0.0033 0.00304,0.002 0.00608,0.0036 0.0092,0.0036 0.1085406,0 17.9671921,-2.990571 25.4706531,-4.265961 0.795938,-0.135215 1.346959,-0.235407 1.762885,-0.340157 0.151733,-0.03254 0.260034,-0.05837 0.309785,-0.07469 0.0252,-0.0082 0.05351,-0.01927 0.08423,-0.0323 0.0018,-6.4e-4 0.0068,-0.0018 0.0083,-0.0023 0.05119,-0.01943 0.101982,-0.0411 0.152453,-0.06389 0.338339,-0.135295 0.572218,-0.303694 0.844729,-0.559572 0.08414,-0.07524 0.16573,-0.156166 0.245556,-0.240685 0.536464,-0.545339 1.00774,-1.374623 1.253057,-2.194871 0.0073,-0.02087 0.0156,-0.04126 0.02263,-0.06213 0.0097,-0.02855 0.0184,-0.05917 0.02688,-0.0934 l 0.121658,-0.346394 0.0016,-1.037184 c 0.01288,-0.510556 0.0212,-1.290583 0.02688,-2.382622 6.4e-4,-0.120342 0.0016,-0.192068 0.0022,-0.321446 0,-0.0061 1.59e-4,-0.009 1.59e-4,-0.01511 0,-3.2e-4 0,-7.99e-4 0,-0.0011 0.0015,-0.354551 0.0022,-0.848075 0.0033,-1.27563 0.0013,-0.322246 0.002,-0.720456 0.0028,-1.081963 8e-5,-0.02959 8e-5,-0.04702 1.6e-4,-0.07684 8e-5,-0.0331 -8e-5,-0.101311 0,-0.134815 0,-0.01975 0,-0.0451 0,-0.06501 0.0037,-1.923081 0.003,-4.312978 0.003,-7.533199 v -0.03526 -0.0047 -0.10539 c 0,-0.0403 0,-0.07364 0,-0.113865 V 9.9148532 l 0.003,-1.7207775 h -3.2e-4 v -0.02079 -0.0016 l -0.0026,-6.396e-4 v -0.00968 l -0.179968,-0.04158 C 34.137979,8.0830088 25.815385,6.7156624 13.340012,4.676637 12.5124,4.5413417 11.782451,4.4261167 11.143205,4.3286433 11.021066,4.3088128 10.678088,4.2525997 10.578505,4.2365274 9.9064655,4.1277793 9.3965565,4.0598118 8.979271,4.0287867 c -0.0028,-3.199e-4 -0.018957,-0.0028 -0.021116,-0.00296 -0.022236,-0.00192 -0.044472,-0.00312 -0.066708,-0.00472 -0.05415,-0.0052 -0.1107003,-0.010955 -0.1530927,-0.014073 -0.00936,-8.796e-4 -0.013118,-7.997e-4 -0.021436,-0.0016 -0.015117,-0.00104 -0.031434,-0.00224 -0.044872,-0.00296 -0.011758,-6.397e-4 -0.030954,-0.00248 -0.038713,-0.00248 -0.00768,0 -0.015277,3.998e-4 -0.022956,4.798e-4 -9.599e-4,0 -0.00464,-4.798e-4 -0.00544,-4.798e-4 -0.0024,0 -0.00496,1.599e-4 -0.00736,1.599e-4 -0.00152,0 -0.004,-1.599e-4 -0.00544,-1.599e-4" />
  <g
     style="fill:#ffffff"
     id="g8"
     transform="matrix(0.07998572,0,0,0.07996178,3.99976,4.00088)">
    <path
       inkscape:connector-curvature="0"
       id="path4"
       d="m 147.53,93.56 c 3.282,-0.006 5.961,0.011 8.273,0.064 2.032,0.16 4.047,0.345 6.01,0.586 20.743,3.116 37.08,11.481 49.33,25.291 15.984,18.02 25.788,47.39 28.768,85.31 0.15,3.034 0.276,6.267 0.377,9.656 0.29,11.978 0.287,26.13 -0.018,38 -1.655,30.891 -6.411,55.13 -14.504,73.61 -1.042,2.317 -2.127,4.583 -3.287,6.768 -2.074,3.906 -4.268,7.477 -6.602,10.754 -6.614,8.885 -17.436,18.14 -26.49,22.525 -0.904,0.437 -1.643,0.79 -2.373,1.145 l -3.271,1.525 -1.889,0.699 0.027,0.168 -0.666,0.311 0.029,0.113 -0.008,0.004 0.426,1.619 c -0.211,1.734 0.832,4.288 2.629,9.17 0.842,2.288 1.812,4.27 2.92,6 0.03,0.047 0.062,0.092 0.092,0.139 0.299,0.459 0.609,0.899 0.93,1.32 0.119,0.158 0.239,0.316 0.361,0.469 0.228,0.282 0.464,0.552 0.703,0.816 0.136,0.152 0.263,0.319 0.402,0.465 0.005,0.006 0.009,0.01 0.014,0.016 0.179,0.228 0.354,0.433 0.521,0.611 0.904,0.962 1.958,1.736 3.252,2.357 1.588,0.922 3.372,1.593 5.346,2.068 0.014,0.003 0.029,0.006 0.043,0.01 0.561,0.134 1.139,0.253 1.734,0.354 0.093,0.016 0.189,0.03 0.283,0.045 0.525,0.083 1.058,0.159 1.609,0.217 0.261,0.028 0.532,0.047 0.799,0.07 0.419,0.035 0.835,0.074 1.27,0.096 0.777,0.041 1.574,0.066 2.402,0.066 h 1.242 l 3.811,0.287 v 2.973 l -0.219,12.137 -0.23,12.688 c -0.016,0.048 -0.028,0.102 -0.045,0.148 -0.324,0.894 -0.828,1.503 -1.615,1.936 -0.021,0.011 -0.043,0.022 -0.064,0.033 -0.065,0.035 -0.138,0.065 -0.207,0.098 l -0.863,0.143 c -1.788,0.293 -6.77,0.988 -11.07,1.545 -1.382,0.179 -2.717,0.32 -4.03,0.441 -1.707,0.136 -3.369,0.244 -4.959,0.299 -0.166,0.004 -0.332,0.009 -0.498,0.012 -0.611,0.018 -1.21,0.026 -1.805,0.031 -0.844,0.005 -1.659,-0.005 -2.475,-0.016 -0.397,-0.008 -0.806,-0.007 -1.195,-0.021 -0.406,-0.015 -0.793,-0.045 -1.191,-0.066 -7.656,-0.511 -14.255,-2.405 -20.662,-5.82 -10.676,-5.69 -19.229,-19.517 -24.49,-39.594 l -1.912,-7.299 -0.514,-2.453 -0.141,-0.043 -0.018,-0.064 -7.266,-2.256 c -4.119,-1.279 -8.02,-2.928 -11.725,-4.932 -9.345,-5.185 -17.562,-12.837 -24.393,-22.682 -0.014,-0.02 -0.027,-0.039 -0.041,-0.059 -0.162,-0.234 -0.32,-0.476 -0.48,-0.713 -9.895,-14.946 -16.804,-35.21 -20.783,-60.889 -1.223,-8.243 -2.146,-16.916 -2.762,-25.791 -0.916,-17.83 -0.654,-45.22 0.643,-60.58 0.182,-1.9 0.38,-3.78 0.594,-5.643 5.447,-43.912 19.672,-73.1 42.32,-87.13 0.839,-0.52 1.693,-1.01 2.555,-1.488 0.399,-0.22 0.797,-0.443 1.201,-0.654 0.364,-0.191 0.732,-0.376 1.1,-0.561 0.746,-0.372 1.497,-0.738 2.26,-1.082 0.004,-0.002 0.008,-0.004 0.012,-0.006 0.248,-0.112 0.502,-0.215 0.752,-0.324 0.59,-0.257 1.187,-0.504 1.787,-0.744 0.534,-0.213 1.071,-0.42 1.613,-0.619 4.874,-1.697 10.18,-2.87 15.73,-3.521 2.675,-0.113 5.961,-0.151 10.598,-0.16" />
    <path
       inkscape:connector-curvature="0"
       id="path6"
       d="m 280.05,110.34 c 2.182,0.167 6.498,0.596 11.539,1.162 5.751,0.646 10.05,1.109 12.03,1.305 l 1.693,0.219 c 0.086,0.111 0.17,0.707 0.246,1.678 l 0.242,21.914 v 0.008 l 0.232,21.1 v 0.002 3.01 0.002 0.021 0.014 l 3.25,0.553 c 1.788,0.304 8.09,0.858 14,1.23 l 8.799,0.555 1.951,0.143 v 14.768 0.09 c -10e-4,13.441 -0.151,14.668 -1.75,14.352 -0.962,-0.19 -7.262,-0.576 -14,-0.857 l -11.43,-0.477 -0.82,-0.059 v 0.023 0.027 0.563 0.002 0.006 0.014 0.021 0.148 0.053 0.061 0.066 l -0.111,-0.006 0.111,22.631 v 35.619 2.521 0.256 c 0,23.633 -0.005,38.838 0.236,48.916 0.127,6.294 0.316,10.186 0.604,12.529 0.022,0.262 0.046,0.425 0.068,0.576 0.119,1.388 0.247,2.46 0.396,2.898 0.155,0.454 0.338,0.866 0.535,1.26 0.898,2.639 2.233,3.243 4.221,4.271 0.175,0.09 0.366,0.168 0.557,0.248 1.876,1.025 3.053,1.298 5.852,0.965 0.356,-0.03 0.741,-0.071 1.154,-0.127 3.553,-0.216 7.703,-1.134 11.877,-2.719 2.75,-1.044 5.349,-1.898 5.777,-1.898 0.411,0 0.626,5.52 0.508,12.383 l -0.008,0.387 -0.221,10.967 -0.041,1.914 c -0.061,0.268 -0.125,0.52 -0.201,0.715 l -2.215,0.953 -4.928,1.879 c -4.03,1.537 -11.752,3.697 -17.16,4.799 -2.296,0.468 -4.468,0.824 -6.58,1.121 -0.541,0.064 -1.082,0.128 -1.619,0.182 -0.798,0.065 -1.596,0.122 -2.383,0.172 -0.827,0.052 -1.641,0.095 -2.432,0.127 -1.554,0.063 -3.01,0.098 -4.375,0.102 -4.677,-0.081 -8.789,-0.582 -11.479,-1.545 -0.918,-0.329 -1.79,-0.691 -2.639,-1.07 -2.452,-1.098 -4.635,-2.415 -6.572,-3.996 -2.954,-2.545 -5.403,-5.811 -7.416,-9.838 -2.638,-5.278 -4.01,-8.595 -4.721,-19.301 -0.317,-7.361 -0.475,-22.453 -0.658,-45.678 l -0.119,-15.771 -0.002,-0.336 c 0,-1.241 -0.004,-2.128 -0.004,-3.414 v -1.307 c 0.001,-13.591 0.013,-24.01 -0.008,-32.479 l -0.008,-31.965 h -3.275 c -1.156,-0.377 -2.709,0 -4.807,0 h -2.627 l -2,-0.227 c -0.07,-0.083 -0.139,-0.169 -0.201,-0.264 l -0.088,-4.717 v -10.668 -0.209 -0.023 -0.016 -0.006 -0.016 -0.453 c 0,-9.08 0.151,-13.462 0.594,-15.12 l 8.322,0.475 8.555,0.488 0.377,0.029 0.473,-1.779 0.445,-1.613 c 0.514,-1.861 3.097,-12.608 5.742,-23.883 2.385,-10.165 4.219,-17.827 4.658,-19.508 0.058,-0.214 0.079,-0.274 0.123,-0.428 0.243,-0.293 0.565,-0.512 1.012,-0.662 0.206,-0.026 0.455,-0.043 0.717,-0.059" />
  </g>
  <path
     style="fill:#419236;stroke-width:0.07997375;fill-opacity:1"
     inkscape:connector-curvature="0"
     id="path10"
     d="m 16.485531,14.317549 c -0.816094,0.0039 -1.446142,0.498242 -1.876385,1.461941 -0.11182,0.239885 -0.208203,0.513994 -0.291068,0.831203 -2.4e-4,10e-4 -4.8e-4,0.002 -8e-4,0.003 -0.07599,0.280186 -0.140935,0.585401 -0.194685,0.915643 -0.124538,0.765714 -0.207643,2.054058 -0.244357,3.453549 -0.0025,0.08324 -0.0054,0.161763 -0.0077,0.247242 -0.02048,0.786024 -0.022,1.539184 -0.0072,2.255722 0.0156,1.063012 0.05991,2.052539 0.136696,2.783709 0.142134,1.353913 0.362495,2.394695 0.674119,3.15849 0.02584,0.06621 0.05183,0.130738 0.07871,0.191589 0.032,0.07237 0.06999,0.14585 0.11182,0.219255 0.193406,0.366225 0.416006,0.64857 0.670201,0.852872 0.0097,0.0081 0.0196,0.01567 0.02935,0.02359 0.0039,0.003 0.0077,0.0062 0.0116,0.0092 0.119259,0.09475 0.244917,0.173757 0.377453,0.235967 0.07119,0.03342 0.138535,0.05877 0.206523,0.07836 0.136136,0.04774 0.254675,0.06117 0.422245,0.0539 0.180767,0.0022 0.365214,-0.02455 0.546942,-0.0798 4e-4,-8e-5 7.2e-4,-2.4e-4 0.0011,-3.2e-4 0.02592,-0.0073 0.05111,-0.01599 0.07655,-0.02423 0.711953,-0.23085 1.23098,-0.857271 1.587077,-1.935076 0.04471,-0.130177 0.08518,-0.264673 0.120778,-0.403007 0.0033,-0.01287 0.0064,-0.02767 0.0097,-0.04078 0.154452,-0.58764 0.270831,-1.284986 0.352257,-2.099797 0.22148,-2.21758 0.179088,-6.75757 -0.07871,-8.435968 -0.06039,-0.393012 -0.133177,-0.754999 -0.218521,-1.08604 -8e-5,-4e-4 -2.4e-4,-7.2e-4 -3.2e-4,-0.0011 -0.152133,-0.662403 -0.351857,-1.15041 -0.620529,-1.546781 -0.467597,-0.75268 -1.090926,-1.126661 -1.872946,-1.122663" />
  <g
     fill="#e0c31e"
     transform="matrix(.55563273 0 0 .55563273 24.666204 24.663425)"
     id="g16"
     style="fill:#419236;fill-opacity:1">
    <path
       d="M6 34.5L6 42 13.5 42 35.63 19.87 28.13 12.37 6 34.5ZM41.41 14.09c.78-.78.78-2.05 0-2.83L36.74 6.59C35.96 5.81 34.69 5.81 33.91 6.59l-3.66 3.66 7.5 7.5 3.66-3.66z"
       fill="#e0c31e"
       id="path14"
       style="fill:#419236;fill-opacity:1" />
  </g>
</svg>
