<?xml version="1.0" encoding="UTF-8" standalone="no"?>
<svg
   xmlns:dc="http://purl.org/dc/elements/1.1/"
   xmlns:cc="http://creativecommons.org/ns#"
   xmlns:rdf="http://www.w3.org/1999/02/22-rdf-syntax-ns#"
   xmlns:svg="http://www.w3.org/2000/svg"
   xmlns="http://www.w3.org/2000/svg"
   xmlns:sodipodi="http://sodipodi.sourceforge.net/DTD/sodipodi-0.dtd"
   xmlns:inkscape="http://www.inkscape.org/namespaces/inkscape"
   height="48"
   version="1.1"
   viewBox="0 0 47.999999 48"
   width="48"
   id="svg18"
   sodipodi:docname="qtdesigner.svg"
   inkscape:version="0.92.3 (2405546, 2018-03-11)">
  <metadata
     id="metadata24">
    <rdf:RDF>
      <cc:Work
         rdf:about="">
        <dc:format>image/svg+xml</dc:format>
        <dc:type
           rdf:resource="http://purl.org/dc/dcmitype/StillImage" />
      </cc:Work>
    </rdf:RDF>
  </metadata>
  <defs
     id="defs22" />
  <sodipodi:namedview
     pagecolor="#ffffff"
     bordercolor="#666666"
     borderopacity="1"
     objecttolerance="10"
     gridtolerance="10"
     guidetolerance="10"
     inkscape:pageopacity="0"
     inkscape:pageshadow="2"
     inkscape:window-width="1328"
     inkscape:window-height="737"
     id="namedview20"
     showgrid="false"
     inkscape:zoom="4.9166667"
     inkscape:cx="-39.152542"
     inkscape:cy="24"
     inkscape:window-x="38"
     inkscape:window-y="0"
     inkscape:window-maximized="1"
     inkscape:current-layer="svg18" />
  <path
     style="fill:#419236;stroke-width:0.07997375;fill-opacity:1"
     d="M 8.5917969 4 C 8.4287061 4 8.2673133 4.0100767 8.1074219 4.0273438 C 7.9493701 4.0421367 7.802144 4.0665044 7.65625 4.0996094 C 7.3432659 4.1661374 7.0403816 4.265313 6.7519531 4.3945312 C 6.6981231 4.4186793 6.6445875 4.4445551 6.5917969 4.4707031 C 6.5884369 4.4723831 6.5853893 4.4729294 6.5820312 4.4746094 C 6.5381193 4.4950794 6.4946706 4.5160794 6.4550781 4.5371094 C 6.4040471 4.5642164 6.3524185 4.5950823 6.2988281 4.6289062 C 6.2909881 4.6335463 6.2832296 4.6398183 6.2753906 4.6445312 C 6.2656306 4.6504512 6.2557718 4.6561114 6.2460938 4.6621094 C 5.6098073 5.0508835 5.070972 5.5952832 4.6933594 6.2597656 C 4.6745624 6.2920696 4.6569089 6.326431 4.6386719 6.359375 C 4.6177959 6.397197 4.5960879 6.4341149 4.5761719 6.4726562 C 4.5363391 6.5458187 4.5002774 6.621222 4.4648438 6.6972656 C 4.3531037 6.903567 4.2675935 7.0494669 4.203125 7.3515625 L 4.0429688 7.7988281 L 4.0410156 9.1464844 C 4.0264586 9.8655807 4.0173177 10.950436 4.0117188 12.666016 L 4.0117188 12.675781 C 3.9980407 15.424947 4.0018731 19.579004 4.0019531 25.96875 L 4.0019531 26.046875 L 4.0019531 26.236328 L 4.0019531 41.853516 L 4 43.994141 L 4 44 L 4.0976562 43.982422 C 4.0977362 43.982422 4.1014825 43.980469 4.1015625 43.980469 C 4.1015625 43.980469 4.1035156 43.982422 4.1035156 43.982422 C 4.1044754 43.982422 4.12308 43.978716 4.125 43.978516 C 4.12804 43.980516 4.1316456 43.982422 4.1347656 43.982422 C 4.2433062 43.982422 22.102008 40.992187 29.605469 39.716797 C 30.401407 39.581582 30.951262 39.47975 31.367188 39.375 C 31.518921 39.34246 31.627983 39.317101 31.677734 39.300781 C 31.702934 39.292581 31.730999 39.282561 31.761719 39.269531 C 31.763519 39.268891 31.768031 39.266125 31.769531 39.265625 C 31.820721 39.246195 31.871404 39.225915 31.921875 39.203125 C 32.260214 39.06783 32.495067 38.898456 32.767578 38.642578 C 32.851718 38.567338 32.933846 38.486863 33.013672 38.402344 C 33.550136 37.857005 34.020308 37.027279 34.265625 36.207031 C 34.272925 36.186161 34.282033 36.165401 34.289062 36.144531 C 34.298763 36.115981 34.305973 36.086964 34.314453 36.052734 L 34.4375 35.705078 L 34.439453 34.667969 C 34.452333 34.157413 34.459164 33.377195 34.464844 32.285156 C 34.465484 32.164814 34.466197 32.094222 34.466797 31.964844 C 34.466797 31.958744 34.46875 31.955329 34.46875 31.949219 L 34.46875 31.947266 C 34.47025 31.592715 34.469603 31.09943 34.470703 30.671875 C 34.472003 30.349629 34.473809 29.951351 34.474609 29.589844 C 34.474689 29.560254 34.474529 29.543492 34.474609 29.513672 C 34.474689 29.480572 34.474529 29.41241 34.474609 29.378906 L 34.474609 29.314453 C 34.478309 27.391372 34.476563 25.001471 34.476562 21.78125 L 34.476562 21.746094 L 34.476562 21.740234 L 34.476562 21.634766 L 34.476562 21.521484 L 34.476562 9.9140625 L 34.480469 8.1933594 L 34.480469 8.1738281 L 34.480469 8.171875 L 34.476562 8.171875 L 34.476562 8.1621094 L 34.296875 8.1191406 C 34.137608 8.0823633 25.815217 6.7148066 13.339844 4.6757812 C 12.512232 4.5404859 11.781824 4.4255984 11.142578 4.328125 C 11.020439 4.3082945 10.677708 4.2524004 10.578125 4.2363281 C 9.9060855 4.12758 9.3958011 4.060322 8.9785156 4.0292969 C 8.9757156 4.028977 8.9611434 4.0255506 8.9589844 4.0253906 C 8.9367484 4.0234706 8.912861 4.0230844 8.890625 4.0214844 C 8.836475 4.0162844 8.7806737 4.0109305 8.7382812 4.0078125 C 8.7289213 4.0069329 8.7251149 4.0066597 8.7167969 4.0058594 C 8.7016799 4.0048194 8.685313 4.0026731 8.671875 4.0019531 C 8.660117 4.0013134 8.6405715 4 8.6328125 4 C 8.6251325 4 8.6190071 3.99992 8.6113281 4 C 8.6103682 4 8.6062687 4 8.6054688 4 C 8.6030688 4 8.6000562 4 8.5976562 4 C 8.5961363 4 8.5932369 4 8.5917969 4 z M 15.800781 11.482422 C 16.063294 11.481942 16.276011 11.482108 16.460938 11.486328 C 16.623469 11.499118 16.786347 11.513933 16.943359 11.533203 C 18.602503 11.782364 19.908847 12.452368 20.888672 13.556641 C 22.167164 14.997552 22.951096 17.344802 23.189453 20.376953 C 23.201453 20.619557 23.21067 20.879401 23.21875 21.150391 C 23.24195 22.108173 23.24311 23.240306 23.21875 24.189453 C 23.086374 26.659552 22.705918 28.596526 22.058594 30.074219 C 21.975254 30.259491 21.887705 30.440517 21.794922 30.615234 C 21.629032 30.927564 21.454265 31.214527 21.267578 31.476562 C 20.738553 32.187022 19.872628 32.926711 19.148438 33.277344 C 19.076127 33.312284 19.017374 33.340751 18.958984 33.369141 L 18.697266 33.490234 L 18.544922 33.546875 L 18.546875 33.560547 L 18.494141 33.583984 L 18.496094 33.59375 L 18.529297 33.722656 C 18.512417 33.86131 18.596502 34.066657 18.740234 34.457031 C 18.807584 34.639983 18.885984 34.797213 18.974609 34.935547 C 18.977009 34.939347 18.978069 34.943556 18.980469 34.947266 C 19.004389 34.983966 19.030961 35.019074 19.056641 35.052734 C 19.066141 35.065364 19.074234 35.077614 19.083984 35.089844 C 19.102224 35.112394 19.121505 35.13514 19.140625 35.15625 C 19.151505 35.1684 19.162718 35.181689 19.173828 35.193359 C 19.188148 35.211589 19.203437 35.227948 19.216797 35.242188 C 19.289107 35.319108 19.37306 35.381985 19.476562 35.431641 C 19.603579 35.505371 19.746405 35.559674 19.904297 35.597656 C 19.904297 35.597656 19.90625 35.597656 19.90625 35.597656 C 19.95112 35.608376 19.997327 35.61692 20.044922 35.625 C 20.052322 35.6263 20.060839 35.627706 20.068359 35.628906 C 20.110349 35.635506 20.153189 35.641844 20.197266 35.646484 C 20.218146 35.648684 20.240359 35.650544 20.261719 35.652344 C 20.295229 35.655144 20.328489 35.658356 20.363281 35.660156 C 20.425431 35.663456 20.488459 35.666016 20.554688 35.666016 L 20.654297 35.666016 L 20.958984 35.6875 L 20.958984 35.925781 L 20.941406 36.896484 L 20.921875 37.912109 C 20.920575 37.915909 20.921322 37.920198 20.919922 37.923828 C 20.894012 37.995318 20.853963 38.043501 20.791016 38.078125 C 20.789316 38.079005 20.786856 38.079278 20.785156 38.080078 C 20.779956 38.082878 20.773098 38.085291 20.767578 38.087891 L 20.699219 38.099609 C 20.556204 38.123039 20.158391 38.178115 19.814453 38.222656 C 19.703912 38.236966 19.597209 38.248143 19.492188 38.257812 C 19.355653 38.268682 19.22288 38.278803 19.095703 38.283203 C 19.082423 38.283523 19.067957 38.282963 19.054688 38.283203 C 19.005817 38.284603 18.95775 38.284756 18.910156 38.285156 C 18.842646 38.285556 18.77816 38.286057 18.712891 38.285156 C 18.681141 38.284516 18.648297 38.284343 18.617188 38.283203 C 18.584718 38.282003 18.553314 38.279044 18.521484 38.277344 C 17.909114 38.236484 17.38161 38.085569 16.869141 37.8125 C 16.015214 37.357517 15.330961 36.251877 14.910156 34.646484 L 14.757812 34.0625 L 14.716797 33.867188 L 14.705078 33.863281 L 14.703125 33.857422 L 14.123047 33.677734 C 13.793586 33.575463 13.481894 33.443446 13.185547 33.283203 C 12.438081 32.868601 11.780757 32.255973 11.234375 31.46875 C 11.233275 31.46715 11.231569 31.466444 11.230469 31.464844 C 11.217509 31.446134 11.204206 31.427153 11.191406 31.408203 C 10.399947 30.213094 9.84756 28.592402 9.5292969 26.539062 C 9.4314739 25.879938 9.3578649 25.186223 9.3085938 24.476562 C 9.2353268 23.050843 9.255633 20.861025 9.359375 19.632812 C 9.373932 19.480885 9.3910871 19.33061 9.4082031 19.181641 C 9.8438854 15.670359 10.981453 13.336708 12.792969 12.214844 C 12.860079 12.173264 12.927146 12.133926 12.996094 12.095703 C 13.028004 12.078113 13.06144 12.059839 13.09375 12.042969 C 13.12286 12.027699 13.152211 12.012837 13.181641 11.998047 C 13.241311 11.968297 13.300298 11.939619 13.361328 11.912109 L 13.363281 11.912109 C 13.383121 11.903109 13.403828 11.893486 13.423828 11.884766 C 13.471018 11.864216 13.518412 11.845362 13.566406 11.826172 C 13.609116 11.809142 13.651956 11.791311 13.695312 11.775391 C 14.085164 11.639695 14.509204 11.546196 14.953125 11.494141 C 15.167086 11.485141 15.429887 11.483142 15.800781 11.482422 z M 26.400391 12.824219 C 26.57492 12.837569 26.919058 12.870756 27.322266 12.916016 C 27.782264 12.967676 28.126785 13.005813 28.285156 13.021484 L 28.419922 13.039062 C 28.426822 13.047963 28.433373 13.094229 28.439453 13.171875 L 28.458984 14.925781 L 28.478516 16.613281 L 28.478516 16.853516 L 28.478516 16.855469 L 28.478516 16.857422 L 28.738281 16.900391 C 28.881296 16.924701 29.384706 16.97026 29.857422 17 L 30.560547 17.042969 L 30.716797 17.054688 L 30.716797 18.236328 L 30.716797 18.244141 C 30.716717 19.318908 30.70602 19.415893 30.578125 19.390625 C 30.501175 19.375435 29.995975 19.344736 29.457031 19.322266 L 28.542969 19.283203 L 28.478516 19.279297 L 28.478516 19.28125 L 28.478516 19.283203 L 28.478516 19.328125 L 28.478516 19.330078 L 28.478516 19.332031 L 28.478516 19.34375 L 28.478516 19.347656 L 28.478516 19.353516 L 28.478516 19.357422 L 28.46875 19.357422 L 28.478516 21.167969 L 28.478516 24.015625 L 28.478516 24.216797 L 28.478516 24.238281 C 28.478516 26.128018 28.476814 27.342582 28.496094 28.148438 C 28.506254 28.651716 28.521892 28.96304 28.544922 29.150391 C 28.546722 29.171341 28.549081 29.185186 28.550781 29.197266 C 28.560281 29.308253 28.570121 29.392711 28.582031 29.427734 C 28.594431 29.464034 28.60925 29.497795 28.625 29.529297 C 28.69683 29.740316 28.80388 29.788893 28.962891 29.871094 C 28.976891 29.878294 28.992542 29.884225 29.007812 29.890625 C 29.157867 29.972585 29.250729 29.995381 29.474609 29.96875 C 29.503089 29.96635 29.535329 29.961491 29.568359 29.957031 C 29.852549 29.939761 30.183717 29.86697 30.517578 29.740234 C 30.737538 29.656754 30.946235 29.587891 30.980469 29.587891 C 31.013339 29.587891 31.028971 30.029348 31.019531 30.578125 L 31.019531 30.609375 L 31.001953 31.486328 L 30.998047 31.638672 C 30.993147 31.660102 30.988502 31.681676 30.982422 31.697266 L 30.804688 31.773438 L 30.412109 31.923828 C 30.089766 32.046729 29.471625 32.218523 29.039062 32.306641 C 28.855415 32.344061 28.680649 32.372734 28.511719 32.396484 C 28.468449 32.401584 28.425759 32.405846 28.382812 32.410156 C 28.318983 32.415356 28.254355 32.421831 28.191406 32.425781 C 28.125256 32.429981 28.061315 32.432987 27.998047 32.435547 C 27.873749 32.440547 27.757619 32.442959 27.648438 32.443359 C 27.274345 32.436859 26.945631 32.397313 26.730469 32.320312 C 26.657039 32.294002 26.585486 32.264685 26.517578 32.234375 C 26.321453 32.146575 26.147119 32.040481 25.992188 31.914062 C 25.75591 31.710559 25.561403 31.448959 25.400391 31.126953 C 25.189389 30.704915 25.078354 30.440054 25.021484 29.583984 C 24.996124 28.995385 24.98339 27.788754 24.96875 25.931641 L 24.960938 24.671875 L 24.958984 24.644531 C 24.958984 24.545301 24.958984 24.473925 24.958984 24.371094 L 24.958984 24.267578 C 24.959064 23.180818 24.960624 22.347118 24.958984 21.669922 L 24.958984 19.113281 L 24.695312 19.113281 C 24.602853 19.083131 24.48031 19.113281 24.3125 19.113281 L 24.101562 19.113281 L 23.941406 19.095703 C 23.935806 19.089103 23.930741 19.081819 23.925781 19.074219 L 23.917969 18.697266 L 23.917969 17.84375 L 23.917969 17.828125 L 23.917969 17.826172 L 23.917969 17.824219 L 23.917969 17.822266 L 23.917969 17.787109 C 23.917969 17.061056 23.931367 16.710701 23.966797 16.578125 L 24.630859 16.615234 L 25.316406 16.654297 L 25.345703 16.65625 L 25.384766 16.513672 L 25.419922 16.384766 C 25.461032 16.235957 25.667344 15.378132 25.878906 14.476562 C 26.069672 13.663752 26.21684 13.050432 26.251953 12.916016 C 26.256553 12.898906 26.258219 12.893169 26.261719 12.880859 C 26.281159 12.857429 26.306047 12.840115 26.341797 12.828125 C 26.358277 12.826025 26.379431 12.825519 26.400391 12.824219 z "
     id="path2" />
  <path
     style="fill:#419236;stroke-width:0.07997375;fill-opacity:1"
     inkscape:connector-curvature="0"
     id="path10"
     d="m 16.485531,14.317549 c -0.816094,0.0039 -1.446142,0.498242 -1.876385,1.461941 -0.11182,0.239885 -0.208203,0.513994 -0.291068,0.831203 -2.4e-4,10e-4 -4.8e-4,0.002 -8e-4,0.003 -0.07599,0.280186 -0.140935,0.585401 -0.194685,0.915643 -0.124538,0.765714 -0.207643,2.054058 -0.244357,3.453549 -0.0025,0.08324 -0.0054,0.161763 -0.0077,0.247242 -0.02048,0.786024 -0.022,1.539184 -0.0072,2.255722 0.0156,1.063012 0.05991,2.052539 0.136696,2.783709 0.142134,1.353913 0.362495,2.394695 0.674119,3.15849 0.02584,0.06621 0.05183,0.130738 0.07871,0.191589 0.032,0.07237 0.06999,0.14585 0.11182,0.219255 0.193406,0.366225 0.416006,0.64857 0.670201,0.852872 0.0097,0.0081 0.0196,0.01567 0.02935,0.02359 0.0039,0.003 0.0077,0.0062 0.0116,0.0092 0.119259,0.09475 0.244917,0.173757 0.377453,0.235967 0.07119,0.03342 0.138535,0.05877 0.206523,0.07836 0.136136,0.04774 0.254675,0.06117 0.422245,0.0539 0.180767,0.0022 0.365214,-0.02455 0.546942,-0.0798 4e-4,-8e-5 7.2e-4,-2.4e-4 0.0011,-3.2e-4 0.02592,-0.0073 0.05111,-0.01599 0.07655,-0.02423 0.711953,-0.23085 1.23098,-0.857271 1.587077,-1.935076 0.04471,-0.130177 0.08518,-0.264673 0.120778,-0.403007 0.0033,-0.01287 0.0064,-0.02767 0.0097,-0.04078 0.154452,-0.58764 0.270831,-1.284986 0.352257,-2.099797 0.22148,-2.21758 0.179088,-6.75757 -0.07871,-8.435968 -0.06039,-0.393012 -0.133177,-0.754999 -0.218521,-1.08604 -8e-5,-4e-4 -2.4e-4,-7.2e-4 -3.2e-4,-0.0011 -0.152133,-0.662403 -0.351857,-1.15041 -0.620529,-1.546781 -0.467597,-0.75268 -1.090926,-1.126661 -1.872946,-1.122663" />
  <g
     fill="#e0c31e"
     transform="matrix(.55563273 0 0 .55563273 24.666204 24.663425)"
     id="g16"
     style="fill:#419236;fill-opacity:1">
    <path
       d="M6 34.5L6 42 13.5 42 35.63 19.87 28.13 12.37 6 34.5ZM41.41 14.09c.78-.78.78-2.05 0-2.83L36.74 6.59C35.96 5.81 34.69 5.81 33.91 6.59l-3.66 3.66 7.5 7.5 3.66-3.66z"
       fill="#e0c31e"
       id="path14"
       style="fill:#419236;fill-opacity:1" />
  </g>
</svg>
