<?xml version="1.0" encoding="UTF-8"?>
<svg enable-background="new 0 0 30.851 30.851" version="1.1" viewBox="0 0 30.851 30.851" xml:space="preserve" xmlns="http://www.w3.org/2000/svg" xmlns:cc="http://creativecommons.org/ns#" xmlns:dc="http://purl.org/dc/elements/1.1/" xmlns:rdf="http://www.w3.org/1999/02/22-rdf-syntax-ns#"><metadata><rdf:RDF><cc:Work rdf:about=""><dc:format>image/svg+xml</dc:format><dc:type rdf:resource="http://purl.org/dc/dcmitype/StillImage"/></cc:Work></rdf:RDF></metadata>
<g fill="#419236" fill-opacity=".91282">
	<g fill="#419236" fill-opacity=".91282">
		<path d="m28.645 2.203h-26.441c-1.217 0-2.204 0.985-2.204 2.202v22.038c0 1.216 0.987 2.204 2.204 2.204h26.441c1.215 0 2.206-0.988 2.206-2.204v-22.038c0-1.217-0.992-2.202-2.206-2.202zm-21.483 1.654c0.607 0 1.102 0.491 1.102 1.103 0 0.607-0.494 1.098-1.102 1.098-0.611 0-1.104-0.49-1.104-1.098 1e-3 -0.611 0.493-1.103 1.104-1.103zm-3.307 0c0.608 0 1.102 0.491 1.102 1.103 0 0.607-0.493 1.098-1.102 1.098s-1.103-0.49-1.103-1.098c1e-3 -0.611 0.494-1.103 1.103-1.103zm24.79 22.587h-26.441v-18.709h26.441v18.709z"/>
		<polygon points="12.351 12.264 5.275 9.028 5.275 10.589 10.746 12.929 10.746 12.958 5.275 15.294 5.275 16.854 12.351 13.618"/>
		<rect x="15.682" y="12.199" width="3.855" height="1.486"/>
	</g>
	
</g>















</svg>
