<?xml version="1.0" encoding="UTF-8" standalone="no"?>
<svg
   xmlns:dc="http://purl.org/dc/elements/1.1/"
   xmlns:cc="http://creativecommons.org/ns#"
   xmlns:rdf="http://www.w3.org/1999/02/22-rdf-syntax-ns#"
   xmlns:svg="http://www.w3.org/2000/svg"
   xmlns="http://www.w3.org/2000/svg"
   xmlns:sodipodi="http://sodipodi.sourceforge.net/DTD/sodipodi-0.dtd"
   xmlns:inkscape="http://www.inkscape.org/namespaces/inkscape"
   fill="#419236"
   height="48"
   version="1.1"
   viewBox="0 0 48 48"
   width="48"
   id="svg6"
   sodipodi:docname="ums.svg"
   inkscape:version="0.92.3 (2405546, 2018-03-11)">
  <metadata
     id="metadata12">
    <rdf:RDF>
      <cc:Work
         rdf:about="">
        <dc:format>image/svg+xml</dc:format>
        <dc:type
           rdf:resource="http://purl.org/dc/dcmitype/StillImage" />
      </cc:Work>
    </rdf:RDF>
  </metadata>
  <defs
     id="defs10" />
  <sodipodi:namedview
     pagecolor="#ffffff"
     bordercolor="#666666"
     borderopacity="1"
     objecttolerance="10"
     gridtolerance="10"
     guidetolerance="10"
     inkscape:pageopacity="0"
     inkscape:pageshadow="2"
     inkscape:window-width="1328"
     inkscape:window-height="737"
     id="namedview8"
     showgrid="false"
     inkscape:zoom="4.9166667"
     inkscape:cx="-32.338983"
     inkscape:cy="24"
     inkscape:window-x="38"
     inkscape:window-y="0"
     inkscape:window-maximized="1"
     inkscape:current-layer="svg6" />
  <path
     style="fill:#419236;fill-opacity:1"
     d="M 24 6 A 18 18 0 0 0 6 24 A 18 18 0 0 0 24 42 A 18 18 0 0 0 42 24 A 18 18 0 0 0 24 6 z M 27.935547 11.392578 C 28.59463 11.44136 28.793621 11.529949 29.238281 11.974609 C 29.682941 12.419269 29.771531 12.618261 29.820312 13.277344 C 29.893571 14.267118 29.524318 14.906904 28.652344 15.302734 C 27.882539 15.652185 27.604011 15.652279 26.851562 15.310547 C 26.463671 15.134383 26.175146 15.085255 26.027344 15.167969 C 25.873263 15.254196 25.688698 15.205171 25.457031 15.017578 C 25.129678 14.752503 25.125864 14.727802 25.369141 14.458984 C 25.530015 14.281221 25.622702 13.939715 25.623047 13.53125 C 25.623704 12.754852 26.017034 12.050142 26.681641 11.632812 C 27.04984 11.401607 27.334349 11.34808 27.935547 11.392578 z M 20.25 13.320312 C 20.973528 13.302718 21.739154 13.430887 22.501953 13.712891 C 27.197894 15.44896 33.094914 23.711141 33.746094 29.466797 C 33.831797 30.224314 33.882039 30.31673 34.359375 30.578125 C 35.134655 31.002678 35.465922 31.535554 35.478516 32.382812 C 35.489987 33.154544 35.210758 33.680017 34.529297 34.171875 C 33.226555 35.112156 31.325653 34.077699 31.324219 32.427734 C 31.323497 31.59738 31.643358 31.014404 32.34375 30.572266 L 32.916016 30.210938 L 32.693359 29.441406 C 31.958463 26.902257 30.120561 23.613584 28.236328 21.46875 C 25.316665 18.14528 21.655378 16.383793 19.521484 17.275391 C 18.769618 17.589541 18.471619 17.890506 18.076172 18.732422 C 17.592089 19.763045 17.604864 21.218649 18.113281 23.015625 C 18.38729 23.984095 18.459317 24.462509 18.363281 24.677734 C 18.247204 24.937871 18.143611 24.79844 17.621094 23.673828 C 16.454616 21.163221 15.873309 18.521521 16.132812 16.910156 C 16.30686 15.829412 16.569248 15.259882 17.199219 14.589844 C 17.956458 13.784443 19.04412 13.349637 20.25 13.320312 z M 22.347656 17.650391 C 22.405875 17.586669 23.722656 18.065476 23.722656 18.150391 C 23.722656 18.179629 23.499164 18.586201 23.226562 19.052734 C 21.939433 21.255544 20.654297 25.617533 20.654297 27.779297 L 20.654297 28.597656 L 20.033203 28.578125 C 19.255391 28.553672 18.05805 28.390081 17.962891 28.294922 C 17.854459 28.18649 18.387457 25.872662 18.822266 24.564453 C 19.317019 23.075893 20.730242 20.141379 21.609375 18.775391 C 21.987101 18.188485 22.318692 17.682093 22.347656 17.650391 z M 28.640625 18.220703 L 29.068359 18.222656 C 29.82659 18.226062 32.102256 18.755319 33.152344 19.173828 C 35.820165 20.237079 36.98489 21.704046 36.845703 23.826172 C 36.742005 25.407215 35.893313 26.773925 34.396484 27.771484 C 34.197726 27.903946 33.99241 28.013672 33.939453 28.013672 C 33.886496 28.013672 33.763717 27.700198 33.667969 27.318359 C 33.572221 26.93652 33.306418 26.174054 33.076172 25.625 L 32.65625 24.626953 L 32.935547 24.169922 C 34.061473 22.318485 32.874282 20.22433 30.128906 19.222656 C 29.672601 19.05617 29.151412 18.762669 28.970703 18.570312 L 28.640625 18.220703 z M 13.259766 25.259766 C 14.344449 25.273196 15.392578 26.153113 15.392578 27.558594 L 15.392578 28.134766 L 16.419922 28.369141 C 20.857679 29.378487 26.728589 28.655849 30.271484 26.664062 C 30.698286 26.424117 31.084056 26.263744 31.128906 26.308594 C 31.30118 26.480868 32.179881 28.806302 32.113281 28.914062 C 32.003882 29.091075 29.789414 29.761105 28.253906 30.082031 C 26.432028 30.462811 20.972616 30.592848 19.412109 30.292969 C 18.174344 30.05511 16.439302 29.549199 15.521484 29.158203 C 14.846838 28.8708 14.845831 28.870544 14.351562 29.171875 C 12.496687 30.3027 10.283018 28.042463 11.484375 26.244141 C 11.944377 25.55556 12.608956 25.251708 13.259766 25.259766 z M 29.589844 30.177734 L 29.339844 30.666016 C 28.337008 32.627293 25.762138 35.382936 24.230469 36.132812 C 23.57706 36.452709 23.099434 36.573059 22.333984 36.609375 C 21.424498 36.652525 21.209908 36.607457 20.400391 36.199219 C 19.313684 35.651195 18.573433 34.83505 18.160156 33.730469 C 17.841214 32.87802 17.559954 30.528995 17.761719 30.404297 C 17.867346 30.339015 19.513781 30.533333 20.527344 30.730469 C 20.817875 30.786977 20.970347 30.958248 21.150391 31.429688 C 22.196108 34.167857 24.843321 34.510713 27.248047 32.21875 C 27.693184 31.794486 28.249262 31.209391 28.484375 30.917969 C 28.719488 30.626546 29.065261 30.340691 29.251953 30.283203 L 29.589844 30.177734 z "
     id="circle2" />
</svg>
