<?xml version="1.0" encoding="UTF-8" standalone="no"?>
<svg
   xmlns:dc="http://purl.org/dc/elements/1.1/"
   xmlns:cc="http://creativecommons.org/ns#"
   xmlns:rdf="http://www.w3.org/1999/02/22-rdf-syntax-ns#"
   xmlns:svg="http://www.w3.org/2000/svg"
   xmlns="http://www.w3.org/2000/svg"
   xmlns:sodipodi="http://sodipodi.sourceforge.net/DTD/sodipodi-0.dtd"
   xmlns:inkscape="http://www.inkscape.org/namespaces/inkscape"
   height="256"
   version="1.1"
   width="256"
   id="svg6"
   sodipodi:docname="xfce4-whiskermenu-stock-colorized.svg"
   inkscape:version="0.92.3 (2405546, 2018-03-11)">
  <metadata
     id="metadata12">
    <rdf:RDF>
      <cc:Work
         rdf:about="">
        <dc:format>image/svg+xml</dc:format>
        <dc:type
           rdf:resource="http://purl.org/dc/dcmitype/StillImage" />
      </cc:Work>
    </rdf:RDF>
  </metadata>
  <defs
     id="defs10" />
  <sodipodi:namedview
     pagecolor="#ffffff"
     bordercolor="#666666"
     borderopacity="1"
     objecttolerance="10"
     gridtolerance="10"
     guidetolerance="10"
     inkscape:pageopacity="0"
     inkscape:pageshadow="2"
     inkscape:window-width="1328"
     inkscape:window-height="737"
     id="namedview8"
     showgrid="false"
     inkscape:zoom="0.921875"
     inkscape:cx="14.101695"
     inkscape:cy="128"
     inkscape:window-x="38"
     inkscape:window-y="0"
     inkscape:window-maximized="1"
     inkscape:current-layer="svg6" />
  <path
     d="M 128 0 A 128 128 0 0 0 128 256 A 128 128 0 0 0 128 0 z M 176.71289 47.164062 C 181.39278 49.838502 174.40625 80.006521 175.70312 85.519531 C 179.85122 74.663161 189.97514 51.455633 195.30078 53.033203 C 197.96269 60.450223 191.42773 84.885196 191.33203 92.972656 C 199.74229 74.065936 209.83766 55.526586 211.33984 56.134766 C 221.79093 60.366016 185.83183 119.64999 183.18164 116.10547 C 181.92412 115.73765 184.97868 84.327375 187.41406 77.703125 C 184.29164 84.842345 174.28352 105.78527 167.57422 110.16602 C 163.65396 102.82422 167.94032 48.496032 176.71289 47.164062 z M 97.382812 52.888672 C 103.23414 52.750472 111.82801 56.13209 114.67188 79.21875 C 115.39349 84.17987 115.21734 98.146502 115.51367 103.16992 C 116.0787 107.51597 158.90667 101.80672 200.80664 129.21094 C 205.69173 132.14937 226.44016 153.22234 206.2168 169.94727 C 192.65136 181.197 133.7824 210.19964 129.8457 212.96484 C 119.52694 219.01674 61.842733 218.16076 42.460938 192.47852 C 23.240615 165.52636 29.483779 139.46324 44.818359 113.125 C 44.783732 107.68356 40.149146 90.153714 40.103516 86.433594 C 39.833965 73.483844 51.977385 67.100202 55.470703 67.820312 C 59.117688 68.751243 64.898387 67.718669 77.978516 99.730469 C 81.856808 105.72999 87.803474 108.12894 87.1875 102.40039 C 79.972711 80.021281 74.874718 56.146086 91.900391 53.753906 C 92.637199 53.758106 94.723112 52.951472 97.382812 52.888672 z M 154.20508 138.56641 C 144.82305 143.46823 93.100778 158.52832 95.267578 167.13281 C 99.544738 170.41304 129.04553 156.55293 134.63086 155.61523 C 129.80251 163.8789 107.18942 178.24672 110.70508 182.54688 C 118.57434 182.131 140.12468 170.32744 147.54492 167.10938 C 131.38632 179.53502 121.51411 193.73305 122.65625 194.88281 C 130.60238 202.88195 170.01663 151.73212 165.72266 150.66016 C 164.8702 149.61015 135.30325 165.59093 131.5293 169.84961 C 136.54838 164.6301 152.7299 146.62458 154.20508 138.56641 z "
     id="path2"
     style="fill:#419236;fill-opacity:1" />
</svg>
