<?xml version="1.0" encoding="UTF-8" standalone="no"?>
<svg
   xmlns:dc="http://purl.org/dc/elements/1.1/"
   xmlns:cc="http://creativecommons.org/ns#"
   xmlns:rdf="http://www.w3.org/1999/02/22-rdf-syntax-ns#"
   xmlns:svg="http://www.w3.org/2000/svg"
   xmlns="http://www.w3.org/2000/svg"
   xmlns:sodipodi="http://sodipodi.sourceforge.net/DTD/sodipodi-0.dtd"
   xmlns:inkscape="http://www.inkscape.org/namespaces/inkscape"
   height="256"
   version="1.1"
   width="256"
   id="svg8"
   sodipodi:docname="xfce4-whiskermenu-stock.svg"
   inkscape:version="0.92.3 (2405546, 2018-03-11)">
  <metadata
     id="metadata14">
    <rdf:RDF>
      <cc:Work
         rdf:about="">
        <dc:format>image/svg+xml</dc:format>
        <dc:type
           rdf:resource="http://purl.org/dc/dcmitype/StillImage" />
      </cc:Work>
    </rdf:RDF>
  </metadata>
  <defs
     id="defs12" />
  <sodipodi:namedview
     pagecolor="#ffffff"
     bordercolor="#666666"
     borderopacity="1"
     objecttolerance="10"
     gridtolerance="10"
     guidetolerance="10"
     inkscape:pageopacity="0"
     inkscape:pageshadow="2"
     inkscape:window-width="1328"
     inkscape:window-height="737"
     id="namedview10"
     showgrid="false"
     inkscape:zoom="0.921875"
     inkscape:cx="-8.6779661"
     inkscape:cy="128"
     inkscape:window-x="38"
     inkscape:window-y="0"
     inkscape:window-maximized="1"
     inkscape:current-layer="svg8" />
  <path
     inkscape:connector-curvature="0"
     style="fill:#419236;fill-opacity:1"
     id="path2"
     d="m 128,256.00002 a 128,128 0 1 1 0,-256 128,128 0 1 1 0,256 z" />
  <path
     inkscape:connector-curvature="0"
     style="fill:#ffffff;fill-opacity:1;fill-rule:evenodd"
     id="path4"
     d="m 176.71247,47.16503 c -8.77257,1.33197 -13.05793,55.65997 -9.13767,63.00177 6.7093,-4.38075 16.71593,-25.32353 19.83835,-32.46275 -2.43538,6.62425 -5.4897,38.0344 -4.23218,38.40222 2.65019,3.54452 38.60951,-55.74065 28.15842,-59.9719 -1.50218,-0.60818 -11.59641,17.93248 -20.00667,36.8392 0.0957,-8.08746 6.62958,-32.52417 3.96767,-39.94119 -5.32564,-1.57757 -15.44977,21.63041 -19.59787,32.48678 -1.29688,-5.51301 5.68984,-35.67969 1.00995,-38.35413 z m -79.329316,5.72306 c -2.6597,0.0628 -4.74579,0.86988 -5.482598,0.86568 -17.025673,2.39218 -11.927898,26.2669 -4.713109,48.64601 0.615974,5.72855 -5.331508,3.33036 -9.2098,-2.66916 C 64.897518,67.71882 59.117131,68.75189 55.470146,67.82096 51.976828,67.10085 39.834897,73.48317 40.104448,86.43292 c 0.04563,3.72012 4.678483,21.25015 4.71311,26.69159 -15.33458,26.33824 -21.576876,52.40121 -2.356554,79.35337 19.381796,25.68224 77.066126,26.53944 87.384886,20.48754 3.9367,-2.7652 62.80616,-31.76936 76.3716,-43.01909 20.22336,-16.72493 -0.52536,-37.7963 -5.41045,-40.73473 C 158.90707,101.80738 116.07922,107.51532 115.51419,103.16927 115.21786,98.14585 115.39418,84.1801 114.67257,79.21898 111.8287,56.13232 103.23448,52.74989 97.383154,52.88809 Z m 56.821816,85.67759 c -1.47518,8.05817 -17.65675,26.06496 -22.67583,31.28447 3.77395,-4.25868 33.34163,-20.2391 34.19409,-19.18909 4.29397,1.07196 -35.12111,52.22068 -43.06724,44.22154 -1.14214,-1.14976 8.7295,-15.3481 24.8881,-27.77375 -7.42024,3.21806 -28.96994,15.02195 -36.8392,15.43783 -3.51566,-4.30015 19.0979,-18.66837 23.92625,-26.93204 -5.58533,0.9377 -35.086916,14.79849 -39.364076,11.51826 -2.1668,-8.60449 49.555876,-23.6654 58.937906,-28.56722 z" />
</svg>
